<svg width="30" height="30" viewBox="0 0 30 30" fill="none" xmlns="http://www.w3.org/2000/svg">
    <path d="M14.8099 28.3333C22.1737 28.3333 28.1432 22.3638 28.1432 15C28.1432 7.63616 22.1737 1.66663 14.8099 1.66663C7.4461 1.66663 1.47656 7.63616 1.47656 15C1.47656 22.3638 7.4461 28.3333 14.8099 28.3333Z" stroke="white" stroke-width="1.77778"/>
    <path d="M17.4769 20.3333C16.713 21.1757 15.7962 21.6666 14.8102 21.6666C13.8242 21.6666 12.9074 21.1757 12.1436 20.3333" stroke="white" stroke-width="1.77778" stroke-linecap="round"/>
    <path d="M10.8102 14.3333C10.4283 13.9121 9.96987 13.6666 9.47689 13.6666C8.9839 13.6666 8.52546 13.9121 8.14355 14.3333" stroke="white" stroke-width="1.77778" stroke-linecap="round"/>
    <path d="M21.4762 14.3333C21.0944 13.9121 20.6358 13.6666 20.1429 13.6666C19.65 13.6666 19.1914 13.9121 18.8096 14.3333" stroke="white" stroke-width="1.77778" stroke-linecap="round"/>
    <path d="M14.8096 1.66663C12.6004 1.66663 10.8096 3.45749 10.8096 5.66663C10.8096 7.87576 12.6004 9.66663 14.8096 9.66663C15.8341 9.66663 16.7685 9.28149 17.4762 8.64811" stroke="white" stroke-width="1.77778" stroke-linecap="round"/>
    </svg>
    