<svg width="51" height="58" viewBox="0 0 51 58" fill="none" xmlns="http://www.w3.org/2000/svg">
    <path d="M17.5 33V21C17.5 18.4859 17.5 17.2288 16.719 16.4477C15.9379 15.6667 14.6808 15.6667 12.1667 15.6667H6.83333C4.31917 15.6667 3.06211 15.6667 2.28104 16.4477C1.5 17.2288 1.5 18.4859 1.5 21V45C1.5 50.0283 1.5 52.5424 3.06211 54.1046C4.62419 55.6667 7.13835 55.6667 12.1667 55.6667H17.5M17.5 33L26.3445 28.5776C29.2797 27.1102 30.7475 26.3763 31.8845 26.864C32.1275 26.9683 32.3533 27.108 32.5552 27.2787C33.5 28.0776 33.5 29.7184 33.5 33L41.7816 28.8592C45.2408 27.1296 46.9707 26.2648 48.2352 27.0464C49.5 27.828 49.5 29.7619 49.5 33.6296V45C49.5 50.0283 49.5 52.5424 47.9379 54.1046C46.3757 55.6667 43.8616 55.6667 38.8333 55.6667H17.5M17.5 33V55.6667" stroke="white" stroke-width="3" stroke-linecap="round" stroke-linejoin="round"/>
    <path d="M1.5 23.6667H17.5" stroke="white" stroke-width="3" stroke-linecap="round" stroke-linejoin="round"/>
    <path d="M28.1667 2.33344H14.8333C12.3192 2.33344 11.0621 2.33344 10.281 3.11448C9.5 3.89554 9.5 5.15261 9.5 7.66677" stroke="white" stroke-width="3" stroke-linecap="round" stroke-linejoin="round"/>
    <path d="M36.166 2.33344H38.8327" stroke="white" stroke-width="3" stroke-linecap="round" stroke-linejoin="round"/>
    <path d="M22.834 10.3334H38.834" stroke="white" stroke-width="3" stroke-linecap="round" stroke-linejoin="round"/>
    </svg>
    