<svg width="52" height="52" viewBox="0 0 52 52" fill="none" xmlns="http://www.w3.org/2000/svg">
    <path d="M31.0965 6.87056C34.3593 3.60769 35.9907 1.97626 38.018 1.97626C40.0453 1.97626 41.6768 3.60769 44.9398 6.87056C48.2027 10.1335 49.8341 11.7649 49.8341 13.7922C49.8341 15.8195 48.2027 17.4509 44.9398 20.7138M20.7141 44.9395C17.4512 48.2024 15.8198 49.8338 13.7925 49.8338C11.7652 49.8338 10.1338 48.2024 6.8709 44.9395C3.608 41.6764 1.97656 40.045 1.97656 38.0177C1.97656 35.9904 3.608 34.359 6.8709 31.0962" stroke="white" stroke-width="3" stroke-linecap="round" stroke-linejoin="round"/>
    <path d="M12.0621 25.905L6.8709 20.7138C3.608 17.4509 1.97656 15.8195 1.97656 13.7922C1.97656 11.7649 3.608 10.1335 6.8709 6.87056C10.1338 3.60769 11.7652 1.97626 13.7925 1.97626C15.8198 1.97626 17.4512 3.60769 20.7141 6.87056L25.9053 12.0618M12.0621 25.905L25.9053 12.0618M12.0621 25.905L25.9053 39.7483M25.9053 12.0618L39.7486 25.905M25.9053 39.7483L31.0965 44.9395C34.3593 48.2024 35.9907 49.8338 38.018 49.8338C40.0453 49.8338 41.6768 48.2024 44.9398 44.9395C48.2027 41.6764 49.8341 40.045 49.8341 38.0177C49.8341 35.9904 48.2027 34.359 44.9398 31.0962L39.7486 25.905M25.9053 39.7483L39.7486 25.905" stroke="white" stroke-width="3" stroke-linecap="round" stroke-linejoin="round"/>
    </svg>
    