<svg width="59" height="48" viewBox="0 0 59 48" fill="none" xmlns="http://www.w3.org/2000/svg">
    <path d="M58.8195 1.97032C58.7976 1.60529 58.6427 1.26093 58.3842 1.00235C58.1256 0.743774 57.7812 0.588895 57.4162 0.567C44.704 -0.180773 34.5144 3.66278 30.1598 10.8514C27.261 15.6396 27.3233 21.4897 30.292 27.0531C28.3885 29.2322 27.0619 31.8537 26.4334 34.6779L21.4981 29.7401C23.5296 25.7271 23.5171 21.5271 21.4184 18.0624C18.2254 12.7906 10.805 9.96402 1.55751 10.5124C1.19208 10.5343 0.847389 10.6896 0.588752 10.9487C0.330115 11.2078 0.175496 11.5527 0.15419 11.9182C-0.389192 21.1632 2.43241 28.5836 7.70421 31.7766C9.42117 32.8259 11.395 33.3798 13.4072 33.3768C15.4911 33.3556 17.5407 32.8432 19.3894 31.8813L26.0097 38.4816V45.8397C26.0097 46.2363 26.1673 46.6167 26.4477 46.8972C26.7282 47.1777 27.1086 47.3352 27.5053 47.3352C27.9019 47.3352 28.2823 47.1777 28.5628 46.8972C28.8432 46.6167 29.0008 46.2363 29.0008 45.8397V38.4891C28.9908 35.0629 30.2075 31.7464 32.4306 29.1394C35.2248 30.6175 38.0937 31.3603 40.8605 31.3603C43.5667 31.3692 46.2227 30.6299 48.5351 29.2242C55.7237 24.8746 59.5673 14.6825 58.8195 1.97032ZM9.25459 29.2167C5.1892 26.7565 2.92594 20.9139 3.07798 13.4362C10.5557 13.2742 16.3908 15.5399 18.851 19.6053C20.2668 21.9409 20.3864 24.6852 19.2349 27.4794L12.6096 20.8516C12.329 20.571 11.9484 20.4133 11.5515 20.4133C11.1546 20.4133 10.774 20.571 10.4934 20.8516C10.2128 21.1322 10.0551 21.5128 10.0551 21.9097C10.0551 22.3066 10.2128 22.6872 10.4934 22.9678L17.1286 29.6006C14.3345 30.7521 11.5901 30.635 9.25459 29.2167ZM46.9872 26.6693C43.3132 28.8927 38.9761 28.9575 34.6066 26.8936L48.5052 12.9975C48.6442 12.8585 48.7544 12.6936 48.8296 12.512C48.9048 12.3305 48.9435 12.1359 48.9435 11.9394C48.9435 11.7429 48.9048 11.5483 48.8296 11.3667C48.7544 11.1852 48.6442 11.0202 48.5052 10.8813C48.3663 10.7423 48.2013 10.6321 48.0198 10.5569C47.8382 10.4817 47.6436 10.443 47.4471 10.443C47.2506 10.443 47.056 10.4817 46.8745 10.5569C46.6929 10.6321 46.528 10.7423 46.389 10.8813L32.4904 24.7799C30.4266 20.4104 30.4963 16.0733 32.7147 12.4018C36.334 6.41957 44.9433 3.13436 55.8957 3.49079C56.2522 14.4332 52.9644 23.0476 46.9872 26.6693Z" fill="white"/>
    </svg>
    