<svg width="22" height="32" viewBox="0 0 22 32" fill="none" xmlns="http://www.w3.org/2000/svg">
    <path d="M21.4759 10.6658C21.4775 8.61267 20.8865 6.6027 19.774 4.87717C18.6614 3.15163 17.0744 1.78386 15.2036 0.938028C13.3328 0.0921966 11.2577 -0.195748 9.22723 0.10876C7.19681 0.413267 5.29741 1.29728 3.75704 2.6547C2.21666 4.01211 1.10076 5.78524 0.543297 7.76124C-0.0141695 9.73723 0.010483 11.8321 0.614296 13.7945C1.21811 15.7568 2.37542 17.5032 3.94732 18.824C5.51921 20.1447 7.43888 20.9838 9.47591 21.2405V25.3325H6.80924C6.45562 25.3325 6.11648 25.4729 5.86643 25.723C5.61638 25.973 5.47591 26.3122 5.47591 26.6658C5.47591 27.0194 5.61638 27.3586 5.86643 27.6086C6.11648 27.8587 6.45562 27.9991 6.80924 27.9991H9.47591V30.6658C9.47591 31.0194 9.61638 31.3586 9.86643 31.6086C10.1165 31.8587 10.4556 31.9991 10.8092 31.9991C11.1629 31.9991 11.502 31.8587 11.7521 31.6086C12.0021 31.3586 12.1426 31.0194 12.1426 30.6658V27.9991H14.8092C15.1629 27.9991 15.502 27.8587 15.7521 27.6086C16.0021 27.3586 16.1426 27.0194 16.1426 26.6658C16.1426 26.3122 16.0021 25.973 15.7521 25.723C15.502 25.4729 15.1629 25.3325 14.8092 25.3325H12.1426V21.2405C14.7179 20.9137 17.086 19.6599 18.8038 17.7136C20.5217 15.7673 21.4716 13.2618 21.4759 10.6658ZM2.80924 10.6658C2.80924 9.08354 3.27843 7.53683 4.15748 6.22123C5.03654 4.90564 6.28597 3.88026 7.74777 3.27476C9.20958 2.66926 10.8181 2.51083 12.37 2.81951C13.9218 3.12819 15.3473 3.89012 16.4661 5.00894C17.5849 6.12776 18.3468 7.55323 18.6555 9.10507C18.9642 10.6569 18.8058 12.2655 18.2003 13.7273C17.5948 15.1891 16.5694 16.4385 15.2538 17.3176C13.9382 18.1966 12.3915 18.6658 10.8092 18.6658C8.68816 18.6637 6.65456 17.8201 5.15473 16.3203C3.65489 14.8205 2.81136 12.7869 2.80924 10.6658Z" fill="white"/>
    </svg>
    