<svg width="30" height="22" viewBox="0 0 30 22" fill="none" xmlns="http://www.w3.org/2000/svg">
    <path d="M11.0111 17.6667C11.0111 19.1395 9.81716 20.3333 8.3444 20.3333C6.87164 20.3333 5.67773 19.1395 5.67773 17.6667C5.67773 16.1939 6.87164 15 8.3444 15C9.81716 15 11.0111 16.1939 11.0111 17.6667Z" stroke="#863258" stroke-width="2"/>
    <path d="M24.3411 17.6667C24.3411 19.1395 23.1473 20.3333 21.6745 20.3333C20.2017 20.3333 19.0078 19.1395 19.0078 17.6667C19.0078 16.1939 20.2017 15 21.6745 15C23.1473 15 24.3411 16.1939 24.3411 17.6667Z" stroke="#863258" stroke-width="2"/>
    <path d="M1.67643 8.33341H23.0098M1.67643 8.33341C1.67643 9.37341 1.64978 12.3867 1.68175 15.3467C1.72971 16.3067 1.88959 17.1067 5.67871 17.6667M1.67643 8.33341C1.9642 6.01341 3.21658 3.26675 3.8561 2.22675M11.0098 8.33341V1.66675M18.9966 17.6667H11.0026M1.69774 1.66675H15.3194C15.3194 1.66675 16.0387 1.66675 16.6783 1.73075C17.8774 1.84275 18.8846 2.38675 19.8918 3.74675C20.9583 5.18675 21.7785 7.01075 22.8655 7.98675C24.6722 9.60861 28.1097 9.10675 28.3014 12.5467C28.3494 14.3067 28.3494 16.2267 28.2695 16.5467C28.1411 17.489 27.4146 17.6429 26.5109 17.6667C25.7265 17.6875 24.781 17.6295 24.3205 17.6667" stroke="#863258" stroke-width="2" stroke-linecap="round"/>
    </svg>
    