<svg width="9" height="15" viewBox="0 0 9 15" fill="none" xmlns="http://www.w3.org/2000/svg">
    <path d="M3.95705 7.85413C3.91048 7.80768 3.87354 7.75251 3.84833 7.69176C3.82313 7.63102 3.81015 7.5659 3.81015 7.50013C3.81015 7.43436 3.82313 7.36924 3.84833 7.30849C3.87354 7.24775 3.91048 7.19257 3.95705 7.14613L8.54304 2.56113C8.82443 2.27986 8.98257 1.89834 8.98267 1.50048C8.98276 1.10262 8.8248 0.721021 8.54354 0.439627C8.26228 0.158232 7.88075 9.38129e-05 7.48289 4.17261e-08C7.08504 -9.37294e-05 6.70344 0.157865 6.42204 0.439127L1.83605 5.02513C1.18082 5.68216 0.812866 6.57221 0.812866 7.50013C0.812866 8.42804 1.18082 9.31809 1.83605 9.97513L6.42204 14.5611C6.70344 14.8424 7.08504 15.0003 7.48289 15.0003C7.88075 15.0002 8.26228 14.842 8.54354 14.5606C8.8248 14.2792 8.98276 13.8976 8.98267 13.4998C8.98257 13.1019 8.82443 12.7204 8.54304 12.4391L3.95705 7.85413Z" fill="#007255"/>
    </svg>
    