<svg width="24" height="24" viewBox="0 0 24 24" fill="none" xmlns="http://www.w3.org/2000/svg">
    <g clip-path="url(#clip0_285_1618)">
    <path d="M13.4138 11.9999L23.7068 1.70693C23.8889 1.51833 23.9897 1.26573 23.9875 1.00353C23.9852 0.741336 23.88 0.490524 23.6946 0.305116C23.5092 0.119707 23.2584 0.0145385 22.9962 0.0122601C22.734 0.00998167 22.4814 0.110776 22.2928 0.292934L11.9998 10.5859L1.70679 0.292934C1.51818 0.110776 1.26558 0.00998167 1.00339 0.0122601C0.741189 0.0145385 0.490376 0.119707 0.304968 0.305116C0.11956 0.490524 0.0143908 0.741336 0.0121124 1.00353C0.00983399 1.26573 0.110628 1.51833 0.292786 1.70693L10.5858 11.9999L0.292786 22.2929C0.105315 22.4805 0 22.7348 0 22.9999C0 23.2651 0.105315 23.5194 0.292786 23.7069C0.480314 23.8944 0.734622 23.9997 0.999786 23.9997C1.26495 23.9997 1.51926 23.8944 1.70679 23.7069L11.9998 13.4139L22.2928 23.7069C22.4803 23.8944 22.7346 23.9997 22.9998 23.9997C23.2649 23.9997 23.5193 23.8944 23.7068 23.7069C23.8943 23.5194 23.9996 23.2651 23.9996 22.9999C23.9996 22.7348 23.8943 22.4805 23.7068 22.2929L13.4138 11.9999Z" fill="#374957"/>
    </g>
    <defs>
    <clipPath id="clip0_285_1618">
    <rect width="24" height="24" fill="white"/>
    </clipPath>
    </defs>
    </svg>
    