<svg width="24" height="25" viewBox="0 0 24 25" fill="none" xmlns="http://www.w3.org/2000/svg">
    <g clip-path="url(#clip0_361_1856)">
    <path d="M15 8.49995H21.54C21.1909 7.57482 20.6485 6.73482 19.949 6.03596L16.465 2.54996C15.7653 1.85129 14.9251 1.30927 14 0.959961V7.49996C14 8.0522 14.4477 8.49995 15 8.49995Z" fill="white"/>
    <path d="M21.976 10.5H15C13.3431 10.5 12 9.15683 12 7.49998V0.524C11.839 0.512984 11.678 0.5 11.515 0.5H6.99997C4.23992 0.503328 2.00328 2.73997 2 5.50002V19.5C2.00328 22.26 4.23992 24.4967 6.99997 24.5H17C19.76 24.4967 21.9966 22.26 22 19.5V10.985C22 10.822 21.987 10.661 21.976 10.5Z" fill="white"/>
    </g>
    <defs>
    <clipPath id="clip0_361_1856">
    <rect width="24" height="24" fill="white" transform="translate(0 0.5)"/>
    </clipPath>
    </defs>
    </svg>
    