<svg width="30" height="30" viewBox="0 0 30 30" fill="none" xmlns="http://www.w3.org/2000/svg">
    <path d="M2.33301 16.3333L4.99967 17.6666" stroke="#863258" stroke-width="1.5" stroke-linecap="round" stroke-linejoin="round"/>
    <path d="M27.6667 17L25 17.6667" stroke="#863258" stroke-width="1.5" stroke-linecap="round" stroke-linejoin="round"/>
    <path d="M9.66699 23.6666L9.99455 22.8477C10.4817 21.6299 10.7252 21.021 11.2331 20.6771C11.741 20.3333 12.3969 20.3333 13.7085 20.3333H16.2922C17.6038 20.3333 18.2597 20.3333 18.7675 20.6771C19.2754 21.021 19.519 21.6299 20.0061 22.8477L20.3337 23.6666" stroke="#863258" stroke-width="1.5" stroke-linecap="round" stroke-linejoin="round"/>
    <path d="M1.66699 23V26.8427C1.66699 27.3476 1.98799 27.8093 2.49617 28.0352C2.8259 28.1817 3.14083 28.3333 3.5211 28.3333H5.81289C6.19315 28.3333 6.50809 28.1817 6.83782 28.0352C7.34599 27.8093 7.66699 27.3476 7.66699 26.8427V24.3333" stroke="#863258" stroke-width="1.5" stroke-linecap="round" stroke-linejoin="round"/>
    <path d="M22.333 24.3333V26.8427C22.333 27.3476 22.6541 27.8093 23.1622 28.0352C23.4919 28.1817 23.8069 28.3333 24.1871 28.3333H26.4789C26.8591 28.3333 27.1741 28.1817 27.5038 28.0352C28.0119 27.8093 28.333 27.3476 28.333 26.8427V23" stroke="#863258" stroke-width="1.5" stroke-linecap="round" stroke-linejoin="round"/>
    <path d="M25.667 11.6667L27.0003 11" stroke="#863258" stroke-width="1.5" stroke-linecap="round" stroke-linejoin="round"/>
    <path d="M4.33333 11.6667L3 11" stroke="#863258" stroke-width="1.5" stroke-linecap="round" stroke-linejoin="round"/>
    <path d="M5 13.0001L6.45107 9.00963C7.03776 7.39626 7.33109 6.58956 8.02947 6.12816C8.72783 5.66675 9.65545 5.66675 11.5107 5.66675H18.4893C20.3445 5.66675 21.2721 5.66675 21.9705 6.12816C22.6689 6.58956 22.9623 7.39626 23.5489 9.00963L25 13.0001" stroke="#863258" stroke-width="1.5" stroke-linejoin="round"/>
    <path d="M5.00033 13H25.0003C26.2766 14.2763 28.3337 16.0536 28.3337 18.0365V22.4069C28.3337 23.1253 27.8277 23.7299 27.1561 23.8139L23.0003 24.3333H7.00033L2.84454 23.8139C2.17306 23.7299 1.66699 23.1253 1.66699 22.4069V18.0365C1.66699 16.0536 3.72405 14.2763 5.00033 13Z" stroke="#863258" stroke-width="1.5" stroke-linejoin="round"/>
    <path d="M12.333 4.06675C12.333 2.74127 13.0494 1.66675 13.933 1.66675H14.9997H16.0663C16.9499 1.66675 17.6663 2.74127 17.6663 4.06675C17.6663 4.9504 17.1887 5.66675 16.5997 5.66675H13.3997C12.8106 5.66675 12.333 4.9504 12.333 4.06675Z" stroke="#863258" stroke-width="1.5" stroke-linejoin="round"/>
    </svg>
    