<svg width="24" height="24" viewBox="0 0 24 24" fill="none" xmlns="http://www.w3.org/2000/svg">
    <path d="M24 12C24 5.37188 18.6281 0 12 0C5.37188 0 0 5.37188 0 12C0 17.9902 4.38563 22.9547 10.1259 23.8552V15.4716H7.08141V12H10.1259V9.35672C10.1259 6.35156 11.9142 4.68844 14.6564 4.68844C15.9713 4.68844 17.3456 4.92516 17.3456 4.92516V7.87734H15.8334C14.3409 7.87734 13.8806 8.80453 13.8806 9.75141V12H17.2078L16.6753 15.4716H13.8806V23.8552C19.6144 22.9547 24 17.9902 24 12Z" fill="#1877F2"/>
    <path d="M16.6686 15.4716L17.2016 12H13.8744V9.75145C13.8744 8.80457 14.3413 7.87738 15.8272 7.87738H17.3394V4.9252C17.3394 4.9252 15.965 4.68848 14.6502 4.68848C11.9085 4.68848 10.1197 6.35207 10.1197 9.35676V12H7.0752V15.4716H10.1197V23.8552C10.7314 23.9536 11.3558 24 11.9938 24C12.6318 24 13.2561 23.9475 13.8679 23.8552V15.4716H16.6686Z" fill="white"/>
    </svg>
    