<svg width="16" height="16" viewBox="0 0 16 16" fill="none" xmlns="http://www.w3.org/2000/svg">
    <rect x="0.5" y="0.5" width="15" height="15" rx="1.5" fill="white"/>
    <rect x="0.5" y="0.5" width="15" height="15" rx="1.5" stroke="#D9D9D9"/>
    <path d="M4.66667 7.33301C4.48986 7.33301 4.32029 7.40325 4.19526 7.52827C4.07024 7.6533 4 7.82287 4 7.99968C4 8.17649 4.07024 8.34606 4.19526 8.47109C4.32029 8.59611 4.48986 8.66635 4.66667 8.66635H11.3333C11.5101 8.66635 11.6797 8.59611 11.8047 8.47109C11.9298 8.34606 12 8.17649 12 7.99968C12 7.82287 11.9298 7.6533 11.8047 7.52827C11.6797 7.40325 11.5101 7.33301 11.3333 7.33301H4.66667Z" fill="black" fill-opacity="0.85"/>
    </svg>
    