<svg width="30" height="30" viewBox="0 0 30 30" fill="none" xmlns="http://www.w3.org/2000/svg">
    <path d="M13.6757 26.9999H11.8076C7.02727 26.9999 4.63711 26.9999 3.15205 25.4866C1.66699 23.9734 1.66699 21.5378 1.66699 16.6666C1.66699 11.7954 1.66699 9.35981 3.15205 7.84653C4.63711 6.33325 7.02727 6.33325 11.8076 6.33325H16.8779C21.6582 6.33325 24.0485 6.33325 25.5335 7.84653C26.6761 9.01084 26.9395 10.7211 27.0003 13.6666" stroke="#863258" stroke-width="2" stroke-linecap="round" stroke-linejoin="round"/>
    <path d="M22.333 25.0333H22.3438M22.3447 22.3333V19.6333M28.333 22.3333C28.333 25.647 25.6467 28.3333 22.333 28.3333C19.0193 28.3333 16.333 25.647 16.333 22.3333C16.333 19.0195 19.0193 16.3333 22.333 16.3333C25.6467 16.3333 28.333 19.0195 28.333 22.3333Z" stroke="#863258" stroke-width="2" stroke-linecap="round"/>
    <path d="M20.333 6.33341L20.2006 5.92133C19.5405 3.86793 19.2105 2.84124 18.4249 2.25399C17.6391 1.66675 16.5957 1.66675 14.5085 1.66675H14.1575C12.0704 1.66675 11.0268 1.66675 10.2412 2.25399C9.45549 2.84124 9.12549 3.86793 8.46546 5.92133L8.33301 6.33341" stroke="#863258" stroke-width="2" stroke-linecap="round" stroke-linejoin="round"/>
    </svg>
    