<svg width="22" height="23" viewBox="0 0 22 23" fill="none" xmlns="http://www.w3.org/2000/svg">
    <path d="M2.77762 11.4424C1.8296 9.7893 1.37185 8.43948 1.09584 7.07121C0.687619 5.04758 1.62181 3.07081 3.16938 1.80947C3.82345 1.27638 4.57323 1.45852 4.96 2.1524L5.83318 3.71891C6.52529 4.96057 6.87134 5.58139 6.8027 6.23959C6.73407 6.89779 6.26737 7.43386 5.33397 8.50601L2.77762 11.4424ZM2.77762 11.4424C4.69651 14.7883 7.70784 17.8013 11.0576 19.7224M11.0576 19.7224C12.7107 20.6704 14.0605 21.1282 15.4288 21.4042C17.4524 21.8124 19.4292 20.8782 20.6905 19.3306C21.2236 18.6766 21.0415 17.9268 20.3476 17.54L18.7811 16.6668C17.5394 15.9747 16.9186 15.6287 16.2604 15.6973C15.6022 15.7659 15.0661 16.2326 13.994 17.166L11.0576 19.7224Z" stroke="white" stroke-width="1.5" stroke-linejoin="round"/>
    </svg>
    