<svg width="26" height="30" viewBox="0 0 26 30" fill="none" xmlns="http://www.w3.org/2000/svg">
    <path d="M21 9.66675C23.2091 9.66675 25 7.87589 25 5.66675C25 3.45761 23.2091 1.66675 21 1.66675C18.7909 1.66675 17 3.45761 17 5.66675C17 7.87589 18.7909 9.66675 21 9.66675Z" stroke="#863258" stroke-width="2" stroke-linecap="round" stroke-linejoin="round"/>
    <path d="M5 28.3333C7.20914 28.3333 9 26.5424 9 24.3333C9 22.1241 7.20914 20.3333 5 20.3333C2.79086 20.3333 1 22.1241 1 24.3333C1 26.5424 2.79086 28.3333 5 28.3333Z" stroke="#863258" stroke-width="2" stroke-linecap="round" stroke-linejoin="round"/>
    <path d="M13.0003 5.66675H8.33366C5.75633 5.66675 3.66699 7.75608 3.66699 10.3334C3.66699 12.9107 5.75633 15.0001 8.33366 15.0001H17.667C20.2443 15.0001 22.3337 17.0894 22.3337 19.6667C22.3337 22.2441 20.2443 24.3334 17.667 24.3334H13.0003" stroke="#863258" stroke-width="2" stroke-linecap="round" stroke-linejoin="round"/>
    </svg>
    