<svg width="24" height="30" viewBox="0 0 24 30" fill="none" xmlns="http://www.w3.org/2000/svg">
    <path d="M8 9.06284C8 6.41287 10.2468 3.79416 11.8237 2.2825C12.6803 1.4615 13.9864 1.4615 14.8429 2.2825C16.4199 3.79416 18.6667 6.41287 18.6667 9.06284C18.6667 11.661 16.6471 14.3334 13.3333 14.3334C10.0196 14.3334 8 11.661 8 9.06284Z" stroke="#863258" stroke-width="2"/>
    <path d="M1.33301 17.6667H4.5261C4.9183 17.6667 5.30511 17.7551 5.6559 17.9249L8.37854 19.2422C8.72933 19.4119 9.11614 19.5002 9.50834 19.5002H10.8985C12.243 19.5002 13.333 20.555 13.333 21.8561C13.333 21.9086 13.297 21.9549 13.2447 21.9693L9.85688 22.9061C9.2491 23.0741 8.59834 23.0155 8.03301 22.7419L5.12249 21.3338" stroke="#863258" stroke-width="2" stroke-linecap="round" stroke-linejoin="round"/>
    <path d="M13.333 21L19.4567 19.1186C20.5423 18.7803 21.7158 19.1814 22.3958 20.1231C22.8875 20.8039 22.6873 21.779 21.971 22.1923L11.9502 27.974C11.3129 28.3418 10.5609 28.4315 9.85994 28.2235L1.33301 25.6932" stroke="#863258" stroke-width="2" stroke-linecap="round" stroke-linejoin="round"/>
    </svg>
    