<svg width="26" height="30" viewBox="0 0 26 30" fill="none" xmlns="http://www.w3.org/2000/svg">
    <path d="M6.33301 28.3332V15.5307C6.33301 14.1064 6.33301 13.3943 6.65911 12.7969C6.98521 12.1997 7.58423 11.8146 8.7823 11.0444L11.5577 9.26023C12.2579 8.81005 12.6081 8.58496 12.9997 8.58496C13.3913 8.58496 13.7414 8.81005 14.4417 9.26023L17.217 11.0444C18.4151 11.8146 19.0141 12.1997 19.3402 12.7969C19.6663 13.3943 19.6663 14.1064 19.6663 15.5307V28.3332" stroke="#863258" stroke-width="1.5" stroke-linecap="round" stroke-linejoin="round"/>
    <path d="M13 16.3333H13.012" stroke="#863258" stroke-width="2" stroke-linecap="round" stroke-linejoin="round"/>
    <path d="M25.0003 28.3333V20.5497C25.0003 17.4942 23.3214 17.2469 19.667 16.3333" stroke="#863258" stroke-width="1.5" stroke-linecap="round" stroke-linejoin="round"/>
    <path d="M1 28.3333V20.5497C1 17.4942 2.67888 17.2469 6.33333 16.3333" stroke="#863258" stroke-width="1.5" stroke-linecap="round" stroke-linejoin="round"/>
    <path d="M13 28.3333V23" stroke="#863258" stroke-width="1.5" stroke-linecap="round"/>
    <path d="M13 8.33342V5.64303M13 5.64303V2.96055C13 2.32829 13 2.01215 13.1952 1.81573C13.8081 1.19927 16.3333 2.65746 17.2937 3.24879C18.1047 3.74815 18.3333 4.74561 18.3333 5.64303H13Z" stroke="#863258" stroke-width="1.5" stroke-linecap="round" stroke-linejoin="round"/>
    </svg>
    