<svg width="24" height="25" viewBox="0 0 24 25" fill="none" xmlns="http://www.w3.org/2000/svg">
    <g clip-path="url(#clip0_361_197)">
    <path d="M3.75691e-05 12.4862C-0.0101686 15.0505 2.06043 17.1377 4.62486 17.1479C5.80587 17.1526 6.94433 16.707 7.80844 15.902L14.7279 19.0261C14.6798 19.2849 14.6535 19.5471 14.649 19.8102C14.6409 22.3923 16.7274 24.492 19.3095 24.5002C21.8916 24.5084 23.9913 22.4219 23.9995 19.8398C24.0077 17.2577 21.9212 15.1579 19.3391 15.1498C17.7964 15.1449 16.3506 15.9013 15.475 17.1714L8.97401 14.236C9.43577 13.121 9.43755 11.8686 8.97902 10.7523L15.4711 7.80189C16.9329 9.91622 19.832 10.4451 21.9463 8.98319C24.0607 7.52132 24.5895 4.62228 23.1276 2.50796C21.6657 0.393634 18.7666 -0.135216 16.6523 1.32666C15.3932 2.19728 14.6426 3.63134 14.645 5.16218C14.6492 5.42567 14.676 5.68827 14.7249 5.94722L7.82343 9.08333C5.95358 7.32754 3.01443 7.42 1.25863 9.28985C0.446021 10.1553 -0.00436327 11.299 3.75691e-05 12.4862Z" fill="white"/>
    </g>
    <defs>
    <clipPath id="clip0_361_197">
    <rect width="24" height="24" fill="white" transform="translate(0 0.5)"/>
    </clipPath>
    </defs>
    </svg>
    