<svg width="30" height="24" viewBox="0 0 30 24" fill="none" xmlns="http://www.w3.org/2000/svg">
    <path d="M21.6667 22.6666C23.1394 22.6666 24.3333 21.4727 24.3333 19.9999C24.3333 18.5272 23.1394 17.3333 21.6667 17.3333C20.1939 17.3333 19 18.5272 19 19.9999C19 21.4727 20.1939 22.6666 21.6667 22.6666Z" stroke="#863258" stroke-width="1.5"/>
    <path d="M8.33366 22.6666C9.80642 22.6666 11.0003 21.4727 11.0003 19.9999C11.0003 18.5272 9.80642 17.3333 8.33366 17.3333C6.8609 17.3333 5.66699 18.5272 5.66699 19.9999C5.66699 21.4727 6.8609 22.6666 8.33366 22.6666Z" stroke="#863258" stroke-width="1.5"/>
    <path d="M13.667 8V12" stroke="#863258" stroke-width="1.5" stroke-linecap="round"/>
    <path d="M8.33301 9.33325V11.9999" stroke="#863258" stroke-width="1.5" stroke-linecap="round"/>
    <path d="M21.667 1.33325H19.0003M19.0003 1.33325H11.6474C10.0124 1.33325 9.19486 1.33325 8.45978 1.63773C7.7247 1.94221 7.14663 2.52028 5.99051 3.6764L3.61961 6.04731C2.65618 7.01073 2.17446 7.49245 1.92073 8.10502C1.66699 8.71758 1.66699 9.39885 1.66699 10.7614V13.3333C1.66699 16.4759 1.66699 18.0473 2.6433 19.0237C3.29246 19.6727 4.2047 19.8903 5.66699 19.9631M19.0003 1.33325V6.66658C19.0003 9.18074 19.0003 10.4378 19.7814 11.2189C20.5625 11.9999 21.8195 11.9999 24.3337 11.9999H28.3337V13.3333C28.3337 16.4759 28.3337 18.0473 27.3574 19.0237C26.7082 19.6727 25.7959 19.8903 24.3337 19.9631M11.0003 19.9999H19.0003" stroke="#863258" stroke-width="1.5" stroke-linecap="round" stroke-linejoin="round"/>
    <path d="M19 5.33325H21.2664C23.0775 5.33325 23.9831 5.33325 24.72 5.80487C25.4569 6.27648 25.8863 7.13073 26.7449 8.83925L28.3333 11.9999" stroke="#863258" stroke-width="1.5" stroke-linecap="round" stroke-linejoin="round"/>
    </svg>
    