<svg width="45" height="50" viewBox="0 0 45 50" fill="none" xmlns="http://www.w3.org/2000/svg">
    <path d="M9.84767 33.1236C6.54654 35.0892 -2.10882 39.1028 3.16288 44.1253C5.73806 46.5786 8.60615 48.3332 12.212 48.3332H32.7879C36.3938 48.3332 39.262 46.5786 41.837 44.1253C47.1087 39.1028 38.4535 35.0892 35.1523 33.1236C27.4112 28.5141 17.5888 28.5141 9.84767 33.1236Z" stroke="black" stroke-width="2" stroke-linecap="round" stroke-linejoin="round"/>
    <path d="M33 12.1665C33 17.9655 28.299 22.6665 22.5 22.6665C16.701 22.6665 12 17.9655 12 12.1665C12 6.36752 16.701 1.6665 22.5 1.6665C28.299 1.6665 33 6.36752 33 12.1665Z" stroke="black" stroke-width="2"/>
    </svg>
    