<svg width="24" height="24" viewBox="0 0 24 24" fill="none" xmlns="http://www.w3.org/2000/svg">
    <path d="M0.548828 23.3163L2.16659 17.4353C1.16853 15.7141 0.643677 13.7614 0.644307 11.7615C0.646924 5.504 5.76216 0.413086 12.0472 0.413086C15.0976 0.414457 17.9606 1.59638 20.1132 3.74152C22.2663 5.88664 23.4513 8.73798 23.4501 11.7704C23.4474 18.0281 18.3319 23.1194 12.0476 23.1194C12.0472 23.1194 12.048 23.1194 12.0476 23.1194H12.0426C10.1342 23.1188 8.25913 22.6419 6.59372 21.7382L0.548828 23.3163Z" fill="url(#paint0_linear_0_1)"/>
    <path fill-rule="evenodd" clip-rule="evenodd" d="M9.09765 6.84321C8.87659 6.35387 8.64383 6.34408 8.43351 6.33551C8.26149 6.32817 8.06455 6.32862 7.86792 6.32862C7.67114 6.32862 7.35137 6.40224 7.08096 6.69627C6.81038 6.9903 6.04785 7.70111 6.04785 9.14675C6.04785 10.5925 7.10555 11.9895 7.25298 12.1857C7.40057 12.3817 9.29475 15.4432 12.2946 16.6209C14.7877 17.5998 15.2951 17.4051 15.8362 17.3561C16.3774 17.3071 17.5823 16.6454 17.8283 15.9593C18.0743 15.2732 18.0743 14.6852 18.0005 14.5623C17.9267 14.4398 17.7299 14.3664 17.4347 14.2194C17.1396 14.0725 15.6886 13.3615 15.418 13.2636C15.1475 13.1656 14.9507 13.1166 14.7539 13.4108C14.5571 13.7047 13.9918 14.3664 13.8196 14.5623C13.6475 14.7586 13.4753 14.7831 13.1801 14.6362C12.8849 14.4888 11.9344 14.1788 10.8067 13.1778C9.92937 12.3991 9.33702 11.4372 9.16483 11.1431C8.99265 10.8492 9.14638 10.69 9.29443 10.5435C9.42695 10.4119 9.58961 10.2005 9.73719 10.0289C9.88446 9.85736 9.93366 9.73491 10.032 9.53899C10.1304 9.34276 10.0812 9.1712 10.0075 9.02426C9.93366 8.87733 9.36008 7.42422 9.09765 6.84321Z" fill="white"/>
    <path d="M20.4052 3.44987C18.1749 1.22791 15.2094 0.00358827 12.0498 0.00219727C5.53895 0.00219727 0.240447 5.2757 0.23783 11.7576C0.237063 13.8296 0.780829 15.8521 1.81439 17.6349L0.138672 23.7267L6.40032 22.092C8.12555 23.0287 10.068 23.5223 12.0447 23.5231H12.0497H12.0498C18.5596 23.5231 23.8589 18.2487 23.8616 11.7671C23.8627 8.6257 22.6351 5.67198 20.4052 3.44987ZM12.0498 21.5376H12.046C10.284 21.5367 8.55616 21.0658 7.04909 20.1754L6.69042 19.9637L2.97463 20.9337L3.96669 17.3281L3.73301 16.9584C2.75018 15.4026 2.23133 13.6046 2.23209 11.7584C2.23424 6.37085 6.63815 1.98784 12.0535 1.98784C14.6759 1.98892 17.1406 3.00661 18.9944 4.85343C20.848 6.70025 21.868 9.1553 21.8672 11.7664C21.8649 17.154 17.4608 21.5376 12.0498 21.5376Z" fill="#32BB46"/>
    <defs>
    <linearGradient id="paint0_linear_0_1" x1="11.9995" y1="23.3163" x2="11.9995" y2="0.413124" gradientUnits="userSpaceOnUse">
    <stop stop-color="#20B038"/>
    <stop offset="1" stop-color="#60D66A"/>
    </linearGradient>
    </defs>
    </svg>
