<svg width="30" height="30" viewBox="0 0 30 30" fill="none" xmlns="http://www.w3.org/2000/svg">
    <path d="M20.3327 18.9998C20.3327 24.1545 16.154 28.3332 10.9993 28.3332C5.8447 28.3332 1.66602 24.1545 1.66602 18.9998C1.66602 13.8452 5.8447 9.6665 10.9993 9.6665C16.154 9.6665 20.3327 13.8452 20.3327 18.9998Z" stroke="#863258" stroke-width="1.6"/>
    <path d="M15 10.3333L14.2913 8.5616C14.0792 8.03128 13.9732 7.76612 13.8303 7.54633C13.4383 6.9434 12.8193 6.52436 12.1139 6.38431C11.8567 6.33325 11.5712 6.33325 11 6.33325C10.4288 6.33325 10.1433 6.33325 9.88609 6.38431C9.18071 6.52436 8.56177 6.9434 8.16976 7.54633C8.02685 7.76612 7.92079 8.03128 7.70867 8.5616L7 10.3333" stroke="#863258" stroke-width="1.6" stroke-linecap="round" stroke-linejoin="round"/>
    <path d="M28.334 9L26.334 7M26.334 7L24.334 5M26.334 7L24.334 9M26.334 7L28.334 5" stroke="#863258" stroke-width="1.6" stroke-linecap="round"/>
    <path d="M21.6667 6.99974C17.6667 6.99974 18.2127 3.58628 14.8131 2.0228C11.8264 0.649249 10.6944 3.54326 11.0693 5.6665" stroke="#863258" stroke-width="1.6" stroke-linecap="round" stroke-linejoin="round"/>
    </svg>
    