<svg width="30" height="28" viewBox="0 0 30 28" fill="none" xmlns="http://www.w3.org/2000/svg">
    <path d="M17.6673 14.6667C17.6673 16.1395 16.4735 17.3333 15.0007 17.3333C13.5279 17.3333 12.334 16.1395 12.334 14.6667C12.334 13.1939 13.5279 12 15.0007 12C16.4735 12 17.6673 13.1939 17.6673 14.6667Z" stroke="#863258" stroke-width="1.6"/>
    <path d="M18.8818 9.24577L20.1406 6.86923C21.0481 5.15568 21.5019 4.29891 21.1153 3.36225C20.7287 2.4256 19.9741 2.21735 18.4649 1.80085C17.3594 1.49581 16.1982 1.33325 15.0003 1.33325C13.8025 1.33325 12.6413 1.49581 11.5358 1.80085C10.0266 2.21735 9.2719 2.4256 8.88534 3.36225C8.49878 4.29891 8.95257 5.15568 9.86013 6.86923L11.1188 9.24577M21.6634 14.8865H24.4179C26.3851 14.8865 27.3687 14.8865 27.9737 15.7358C28.5787 16.585 28.3387 17.3931 27.8587 19.0094C27.1527 21.3865 25.8522 23.4929 24.1377 25.1411C22.9861 26.2482 22.4103 26.8017 21.4379 26.6385C20.4655 26.4753 20.0102 25.6155 19.0994 23.8961L17.4881 20.8537M12.5126 20.8537L10.9012 23.8961C9.9905 25.6155 9.53516 26.4753 8.56274 26.6385C7.59032 26.8017 7.01456 26.2482 5.86302 25.1411C4.1484 23.4929 2.84796 21.3865 2.14197 19.0094C1.66196 17.3931 1.42194 16.585 2.02693 15.7358C2.63192 14.8865 3.6155 14.8865 5.58269 14.8865H8.33722" stroke="#863258" stroke-width="1.6" stroke-linecap="round" stroke-linejoin="round"/>
    </svg>
    