<svg width="30" height="30" viewBox="0 0 30 30" fill="none" xmlns="http://www.w3.org/2000/svg">
    <path d="M1.90351 16.3056L3.65974 10.4407C4.08894 9.00741 5.07031 7.81705 6.37566 7.14641L8.5034 6.05325C10.1674 5.19837 12.1913 5.80399 13.1485 7.44313L15.1394 10.8527C15.6307 11.6942 15.8765 12.1149 16.1917 12.3315C16.6351 12.6361 17.1918 12.7069 17.6935 12.5225C18.0503 12.3914 18.3875 12.0449 19.0621 11.3518C20.6507 9.71947 23.2957 9.98857 24.5419 11.9094L26.1034 14.3161C26.9725 15.6556 27.2253 17.3196 26.7949 18.8674L26.3386 20.5084C25.9273 21.9874 24.9309 23.221 23.5919 23.9089L16.1082 27.7538C14.339 28.6628 12.2256 28.4925 10.6159 27.311L3.90368 22.3846C2.03319 21.0117 1.22751 18.563 1.90351 16.3056Z" stroke="#863258" stroke-width="1.6" stroke-linecap="round" stroke-linejoin="round"/>
    <path d="M20.333 17.6665H20.345" stroke="#863258" stroke-width="1.6" stroke-linecap="round" stroke-linejoin="round"/>
    <path d="M13.667 19.6665L11.667 21.6665" stroke="#863258" stroke-width="1.6" stroke-linecap="round"/>
    <path d="M11 13.3373C9.74292 12.5535 9.11439 12.1616 8.5286 12.405C7.94281 12.6486 7.62853 13.4323 7 14.9999" stroke="#863258" stroke-width="1.6" stroke-linecap="round"/>
    <path d="M25.6085 1.6665H23.3123C22.951 1.6665 22.7703 1.6665 22.6022 1.69282C22.201 1.75561 21.8329 1.92818 21.5507 2.18572C21.4325 2.29369 21.3322 2.42536 21.1318 2.68868C20.7007 3.25502 20.4851 3.53821 20.4029 3.80085C20.2038 4.43576 20.4443 5.11412 21.019 5.53852C21.2567 5.71408 21.6175 5.84048 22.339 6.09328L23.6919 6.56726C24.5542 6.86937 24.9854 7.02041 25.4165 6.99758C25.5989 6.98792 25.7789 6.95556 25.951 6.90148C26.3575 6.77373 26.6858 6.48614 27.3425 5.91096L27.5357 5.7418C27.7655 5.54041 27.8806 5.43972 27.9722 5.32794C28.1453 5.11673 28.2605 4.87334 28.3085 4.61676C28.3339 4.48097 28.3339 4.33857 28.3339 4.05376C28.3339 3.40293 28.3339 3.07752 28.2329 2.81502C28.0405 2.31558 27.5929 1.9235 27.0227 1.75505C26.723 1.6665 26.3514 1.6665 25.6085 1.6665Z" stroke="#863258" stroke-width="1.6" stroke-linecap="round"/>
    </svg>
    