<svg width="24" height="30" viewBox="0 0 24 30" fill="none" xmlns="http://www.w3.org/2000/svg">
    <path d="M9.33398 28.3333C5.48946 28.3333 3.72266 28.3333 2.52833 27.1617C1.33398 25.9901 1.33398 24.1045 1.33398 20.3333V17.7887C1.33398 16.7885 1.33398 16.2885 1.42473 15.8073C1.51641 15.3213 1.6765 14.8503 1.90044 14.4075C2.1221 13.9692 2.42798 13.5692 3.03974 12.7691L3.5881 12.0518C3.88888 11.6584 4.03928 11.4617 4.15684 11.2646C4.77024 10.2364 4.88448 8.99353 4.46849 7.87427C4.38876 7.65975 4.27666 7.43983 4.05248 7M14.9264 7C14.7023 7.43981 14.5901 7.65975 14.5104 7.87427C14.0944 8.99353 14.2087 10.2364 14.8221 11.2646C14.9396 11.4617 15.09 11.6584 15.3908 12.0518C15.9833 12.8267 16.8724 13.4921 17.334 14.3333" stroke="#863258" stroke-width="1.6" stroke-linecap="round" stroke-linejoin="round"/>
    <path d="M5.42395 1.6665H13.2415C14.4699 1.6665 15.084 1.6665 15.4656 2.05702C16.1772 2.78526 16.1772 5.88108 15.4656 6.60932C15.084 6.99984 14.4699 6.99984 13.2415 6.99984H5.42395C4.19555 6.99984 3.58135 6.99984 3.19974 6.60932C2.48811 5.88108 2.48811 2.78526 3.19974 2.05702C3.58135 1.6665 4.19555 1.6665 5.42395 1.6665Z" stroke="#863258" stroke-width="1.6"/>
    <path d="M20.715 18.8742C22.9935 20.7408 23.3275 24.101 21.461 26.3796C19.5944 28.658 16.2342 28.992 13.9556 27.1254M20.715 18.8742C18.4364 17.0077 15.0763 17.3417 13.2098 19.6201C11.3431 21.8986 11.6771 25.2589 13.9556 27.1254M20.715 18.8742L13.9556 27.1254" stroke="#863258" stroke-width="1.6"/>
    </svg>
    