<svg width="26" height="30" viewBox="0 0 26 30" fill="none" xmlns="http://www.w3.org/2000/svg">
    <path d="M23 6.3335L22.1737 19.7003C21.9625 23.1154 21.8571 24.823 21.0011 26.0507C20.5777 26.6576 20.0329 27.1699 19.4009 27.5548C18.1228 28.3335 16.412 28.3335 12.9903 28.3335C9.56416 28.3335 7.85107 28.3335 6.57207 27.5534C5.93973 27.1678 5.39467 26.6546 4.97157 26.0466C4.11584 24.817 4.0126 23.107 3.80615 19.6871L3 6.3335" stroke="#863258" stroke-width="1.6" stroke-linecap="round"/>
    <path d="M1 6.33341H25M18.4076 6.33341L17.4975 4.45572C16.8928 3.20843 16.5904 2.58477 16.0689 2.19583C15.9533 2.10955 15.8308 2.0328 15.7027 1.96635C15.1252 1.66675 14.4321 1.66675 13.046 1.66675C11.6251 1.66675 10.9147 1.66675 10.3276 1.97891C10.1975 2.04809 10.0733 2.12795 9.95639 2.21764C9.42885 2.62235 9.13417 3.26881 8.54481 4.56176L7.73723 6.33341" stroke="#863258" stroke-width="1.6" stroke-linecap="round"/>
    <path d="M9.66699 21V13" stroke="#863258" stroke-width="1.6" stroke-linecap="round"/>
    <path d="M16.334 21V13" stroke="#863258" stroke-width="1.6" stroke-linecap="round"/>
    </svg>
    