<svg width="26" height="30" viewBox="0 0 26 30" fill="none" xmlns="http://www.w3.org/2000/svg">
    <path d="M15.6673 1.66663V4.33329M15.6673 4.33329V6.99996M15.6673 4.33329H10.334M10.334 4.33329V1.66663M10.334 4.33329V6.99996" stroke="#863258" stroke-width="1.5" stroke-linecap="round"/>
    <path d="M1 28.3334V14.1744C1 9.50217 1 7.16607 2.53769 5.71459C3.51497 4.79209 4.87083 4.45589 7 4.33337M25 28.3334V14.1744C25 9.50217 25 7.16607 23.4623 5.71459C22.4851 4.79209 21.1292 4.45589 19 4.33337" stroke="#863258" stroke-width="1.5" stroke-linecap="round" stroke-linejoin="round"/>
    <path d="M15.666 12.3334H18.3327" stroke="#863258" stroke-width="1.5" stroke-linecap="round"/>
    <path d="M15.666 17.6666H18.3327" stroke="#863258" stroke-width="1.5" stroke-linecap="round"/>
    <path d="M6.33398 17.6666H9.00065" stroke="#863258" stroke-width="1.5" stroke-linecap="round"/>
    <path d="M6.33398 12.3334H9.00065" stroke="#863258" stroke-width="1.5" stroke-linecap="round"/>
    <path d="M9.66602 28.3333V25C9.66602 23.7538 9.66602 23.1308 9.93396 22.6666C10.1095 22.3626 10.362 22.1101 10.666 21.9346C11.1301 21.6666 11.7532 21.6666 12.9993 21.6666C14.2455 21.6666 14.8685 21.6666 15.3327 21.9346C15.6367 22.1101 15.8892 22.3626 16.0647 22.6666C16.3327 23.1308 16.3327 23.7538 16.3327 25V28.3333" stroke="#863258" stroke-width="1.5" stroke-linecap="round"/>
    </svg>
    