<svg width="24" height="30" viewBox="0 0 24 30" fill="none" xmlns="http://www.w3.org/2000/svg">
    <path d="M12 5V7M12 7V9M12 7H14M12 7H10" stroke="#863258" stroke-width="1.5" stroke-linecap="round"/>
    <path d="M7.44805 2.44768C6.66699 3.22872 6.66699 4.4858 6.66699 6.99996C6.66699 9.51412 6.66699 10.7712 7.44805 11.5522C8.22909 12.3333 9.48619 12.3333 12.0003 12.3333C14.5145 12.3333 15.7715 12.3333 16.5526 11.5522C17.3337 10.7712 17.3337 9.51412 17.3337 6.99996C17.3337 4.4858 17.3337 3.22872 16.5526 2.44768C15.7715 1.66663 14.5145 1.66663 12.0003 1.66663C9.48619 1.66663 8.22909 1.66663 7.44805 2.44768Z" stroke="#863258" stroke-width="1.5" stroke-linecap="round" stroke-linejoin="round"/>
    <path d="M1.33301 28.3333V14.9609C1.33301 10.5483 1.33301 8.34195 2.69985 6.97111C3.56854 6.09987 4.77374 5.78235 6.66634 5.66663M22.6663 28.3333V14.9609C22.6663 10.5483 22.6663 8.34195 21.2995 6.97111C20.4307 6.09987 19.2255 5.78235 17.333 5.66663" stroke="#863258" stroke-width="1.5" stroke-linecap="round" stroke-linejoin="round"/>
    <path d="M8.66699 28.3333V25C8.66699 23.7538 8.66699 23.1308 8.93494 22.6666C9.11047 22.3626 9.36299 22.1101 9.66699 21.9346C10.1311 21.6666 10.7542 21.6666 12.0003 21.6666C13.2465 21.6666 13.8695 21.6666 14.3337 21.9346C14.6377 22.1101 14.8902 22.3626 15.0657 22.6666C15.3337 23.1308 15.3337 23.7538 15.3337 25V28.3333" stroke="#863258" stroke-width="1.5" stroke-linecap="round"/>
    <path d="M6.67894 16.3334H6.66699M12.0003 16.3334H11.9883M17.3351 16.3334H17.3233" stroke="#863258" stroke-width="2" stroke-linecap="round" stroke-linejoin="round"/>
    </svg>
    