<svg width="30" height="23" viewBox="0 0 30 23" fill="none" xmlns="http://www.w3.org/2000/svg">
    <path d="M13.666 18.9998H18.9993M16.9993 5.6665H18.2565C20.0037 5.6665 20.8775 5.6665 21.6181 6.08586C22.3588 6.50522 22.8527 7.27946 23.8404 8.82797C24.5329 9.9137 25.26 10.7018 26.2823 11.403C27.3115 12.1089 27.8009 12.454 28.0725 13.0078C28.3327 13.5382 28.3327 14.1665 28.3327 15.4229C28.3327 17.0793 28.3327 17.9076 27.8673 18.4338C27.8473 18.4565 27.8269 18.4785 27.8059 18.4998C27.316 18.9998 26.5452 18.9998 25.0033 18.9998H24.3327" stroke="#863258" stroke-width="1.5" stroke-linecap="round" stroke-linejoin="round"/>
    <path d="M5.66602 18.9998C3.7804 18.9998 2.83759 18.9998 2.2518 18.4141C1.66602 17.8282 1.66602 16.8854 1.66602 14.9998V5.6665C1.66602 3.78089 1.66602 2.83808 2.2518 2.25229C2.83759 1.6665 3.7804 1.6665 5.66602 1.6665H12.9993C14.8849 1.6665 15.8277 1.6665 16.4136 2.25229C16.9993 2.83808 16.9993 3.78089 16.9993 5.6665V18.9998H10.9993" stroke="#863258" stroke-width="1.5" stroke-linecap="round" stroke-linejoin="round"/>
    <path d="M28.3333 15H27" stroke="#863258" stroke-width="1.6" stroke-linecap="round" stroke-linejoin="round"/>
    <path d="M9.66667 7V12.3333M12.3333 9.66667H7" stroke="#863258" stroke-width="1.5" stroke-linecap="round" stroke-linejoin="round"/>
    <path d="M21.6667 21.6667C23.1394 21.6667 24.3333 20.4728 24.3333 19C24.3333 17.5273 23.1394 16.3334 21.6667 16.3334C20.1939 16.3334 19 17.5273 19 19C19 20.4728 20.1939 21.6667 21.6667 21.6667Z" stroke="#863258" stroke-width="1.5"/>
    <path d="M8.33268 21.6668C9.80544 21.6668 10.9993 20.4729 10.9993 19.0002C10.9993 17.5274 9.80544 16.3335 8.33268 16.3335C6.85992 16.3335 5.66602 17.5274 5.66602 19.0002C5.66602 20.4729 6.85992 21.6668 8.33268 21.6668Z" stroke="#863258" stroke-width="1.5"/>
    </svg>
    