<svg width="24" height="30" viewBox="0 0 24 30" fill="none" xmlns="http://www.w3.org/2000/svg">
    <path d="M2.8951 3.22884C1.33301 4.79093 1.33301 7.30509 1.33301 12.3334V17.6667C1.33301 22.695 1.33301 25.2093 2.8951 26.7713M2.8951 3.22884C4.45721 1.66675 6.97135 1.66675 11.9997 1.66675C17.0279 1.66675 19.5422 1.66675 21.1042 3.22884M2.8951 26.7713C4.45721 28.3334 6.97135 28.3334 11.9997 28.3334C17.0279 28.3334 19.5422 28.3334 21.1042 26.7713M21.1042 26.7713C22.6663 25.2093 22.6663 22.695 22.6663 17.6667V12.3334C22.6663 7.30509 22.6663 4.79095 21.1042 3.22884" stroke="#863258" stroke-width="1.6" stroke-linejoin="round"/>
    <path d="M12 13.6667V16.3334" stroke="#863258" stroke-width="1.6" stroke-linecap="round" stroke-linejoin="round"/>
    <path d="M12 6.3335V9.00016" stroke="#863258" stroke-width="1.6" stroke-linecap="round" stroke-linejoin="round"/>
    <path d="M12 21V23.6667" stroke="#863258" stroke-width="1.6" stroke-linecap="round" stroke-linejoin="round"/>
    </svg>
    