<svg width="28" height="28" viewBox="0 0 28 28" fill="none" xmlns="http://www.w3.org/2000/svg">
    <path d="M21.0049 24.5558C24.4179 22.2864 26.6673 18.406 26.6673 14.0002C26.6673 7.00455 20.9962 1.3335 14.0007 1.3335C13.0332 1.3335 12.0911 1.44195 11.1858 1.64738M21.0049 24.5558V20.6668M21.0049 24.5558H25.334M6.96361 3.4665C3.56898 5.73878 1.33398 9.60847 1.33398 14.0002C1.33398 20.9958 7.00504 26.6668 14.0007 26.6668C14.9681 26.6668 15.9103 26.5584 16.8155 26.353M6.96361 3.4665V7.3335M6.96361 3.4665H2.66732" stroke="#863258" stroke-width="1.6" stroke-linecap="round" stroke-linejoin="round"/>
    <path d="M14.0007 19.3335C16.578 19.3335 18.6673 17.2442 18.6673 14.6668C18.6673 11.3335 14.0007 7.3335 14.0007 7.3335C14.0007 7.3335 9.33398 11.3335 9.33398 14.6668C9.33398 17.2442 11.4233 19.3335 14.0007 19.3335Z" stroke="#863258" stroke-width="1.6" stroke-linecap="round" stroke-linejoin="round"/>
    </svg>
    