<svg width="28" height="28" viewBox="0 0 28 28" fill="none" xmlns="http://www.w3.org/2000/svg">
    <path d="M14.6673 5.3335H12.0007C10.7436 5.3335 10.115 5.3335 9.7245 5.72402C9.33398 6.11455 9.33398 6.74308 9.33398 8.00016V10.6668C9.33398 11.9239 9.33398 12.5524 9.7245 12.943C10.115 13.3335 10.7436 13.3335 12.0007 13.3335H14.6673C15.9244 13.3335 16.5529 13.3335 16.9435 12.943C17.334 12.5524 17.334 11.9239 17.334 10.6668V8.00016C17.334 6.74308 17.334 6.11455 16.9435 5.72402C16.5529 5.3335 15.9244 5.3335 14.6673 5.3335Z" stroke="#863258" stroke-width="1.6" stroke-linejoin="round"/>
    <path d="M15.334 13.3335H11.334V26.6668H15.334V13.3335Z" stroke="#863258" stroke-width="1.6" stroke-linecap="round" stroke-linejoin="round"/>
    <path d="M17.334 7.3335H22.6673C24.8765 7.3335 26.6673 9.12436 26.6673 11.3335V14.6668H22.6673V11.3335H17.334V7.3335Z" stroke="#863258" stroke-width="1.6" stroke-linejoin="round"/>
    <path d="M17.334 1.3335H10.1333C8.45106 1.3335 7.60993 1.3335 6.94721 1.76419C6.28449 2.19487 5.94288 2.9635 5.25965 4.50076L1.33398 13.3335" stroke="#863258" stroke-width="1.6" stroke-linecap="round" stroke-linejoin="round"/>
    <path d="M24.667 18.6667L25.4113 17.9989C25.2215 17.7875 24.951 17.6667 24.667 17.6667C24.383 17.6667 24.1125 17.7875 23.9227 17.9989L24.667 18.6667ZM25.667 22.0001C25.667 22.5523 25.2193 23.0001 24.667 23.0001V25.0001C26.3238 25.0001 27.667 23.6569 27.667 22.0001H25.667ZM24.667 23.0001C24.1147 23.0001 23.667 22.5523 23.667 22.0001H21.667C21.667 23.6569 23.0102 25.0001 24.667 25.0001V23.0001ZM23.667 22.0001C23.667 22.0041 23.6679 21.9587 23.7031 21.8515C23.7366 21.7493 23.791 21.6217 23.8686 21.4709C24.0246 21.1679 24.2435 20.8303 24.4789 20.503C24.7117 20.1794 24.9466 19.885 25.1245 19.6705C25.2129 19.5637 25.2862 19.4779 25.3367 19.4195C25.3619 19.3905 25.3814 19.3683 25.3942 19.3538C25.4006 19.3466 25.4053 19.3413 25.4082 19.3381C25.4097 19.3365 25.4106 19.3354 25.4111 19.3347C25.4111 19.3347 25.4113 19.3346 24.667 18.6667C23.9227 17.9989 23.9227 17.9989 23.9227 17.9989C23.9226 17.9991 23.9219 17.9997 23.9217 17.9999C23.9213 18.0005 23.9207 18.0011 23.9199 18.0019C23.9186 18.0035 23.9167 18.0057 23.9143 18.0082C23.9097 18.0135 23.9031 18.0209 23.8949 18.0302C23.8783 18.049 23.8549 18.0758 23.8254 18.1097C23.7665 18.1777 23.6837 18.2746 23.5846 18.3941C23.3874 18.6319 23.1223 18.9638 22.8551 19.3354C22.5905 19.7033 22.3094 20.1301 22.0903 20.5555C21.8879 20.9487 21.667 21.4738 21.667 22.0001H23.667ZM24.667 18.6667C23.9227 19.3346 23.9226 19.3345 23.9226 19.3345C23.9231 19.3351 23.9243 19.3365 23.9258 19.3381C23.9287 19.3413 23.9334 19.3466 23.9398 19.3538C23.9526 19.3683 23.9721 19.3905 23.9973 19.4195C24.0478 19.4779 24.1211 19.5637 24.2095 19.6705C24.3874 19.885 24.6223 20.1794 24.8551 20.503C25.0905 20.8303 25.3094 21.1679 25.4654 21.4709C25.543 21.6217 25.5974 21.7493 25.6309 21.8515C25.6661 21.9587 25.667 22.0041 25.667 22.0001H27.667C27.667 21.4738 27.4461 20.9487 27.2437 20.5555C27.0246 20.1301 26.7435 19.7033 26.4789 19.3354C26.2117 18.9638 25.9466 18.6319 25.7494 18.3941C25.6503 18.2746 25.5675 18.1777 25.5086 18.1097C25.4791 18.0758 25.4557 18.049 25.4391 18.0302C25.4309 18.0209 25.4243 18.0135 25.4197 18.0082C25.4173 18.0057 25.4154 18.0035 25.4141 18.0019C25.4133 18.0011 25.4127 18.0005 25.4123 17.9999C25.4121 17.9997 25.4125 18.0002 25.4123 17.9999C25.4123 17.9999 25.4113 17.9989 24.667 18.6667Z" fill="#863258"/>
    <path d="M13.334 1.3335V5.3335" stroke="#863258" stroke-width="1.6" stroke-linecap="round" stroke-linejoin="round"/>
    </svg>
    