<svg width="26" height="30" viewBox="0 0 26 30" fill="none" xmlns="http://www.w3.org/2000/svg">
    <path d="M2.81695 7.39443L1.45967 10.4754C1.23068 10.9952 1.11619 11.2551 1.05809 11.5313C1 11.8074 1 12.0919 1 12.6607V25.6431C1 26.9113 1 27.5454 1.39052 27.9394C1.78105 28.3334 2.40959 28.3334 3.66667 28.3334H22.3333C23.5904 28.3334 24.2189 28.3334 24.6095 27.9394C25 27.5454 25 26.9113 25 25.6431V12.1165C25 11.4842 25 11.1681 24.9287 10.8632C24.8573 10.5584 24.7172 10.2756 24.4369 9.71015L23.2071 7.22848C22.7748 6.35628 22.5587 5.92017 22.2144 5.59277C21.8703 5.26537 21.4261 5.07331 20.5376 4.68917L15.1009 2.33847C14.0652 1.89065 13.5473 1.66675 13 1.66675C12.4527 1.66675 11.9348 1.89065 10.8991 2.33847L5.58971 4.63411C4.63965 5.04489 4.16463 5.25028 3.80563 5.60767C3.44664 5.96504 3.23673 6.44151 2.81695 7.39443Z" stroke="#863258" stroke-width="1.5" stroke-linecap="round" stroke-linejoin="round"/>
    <path d="M6.33301 28.3333V16.3333M19.6663 16.3333V28.3333" stroke="#863258" stroke-width="1.5" stroke-linecap="round" stroke-linejoin="round"/>
    <path d="M6.33301 16.3333L19.6663 28.3333M6.33301 28.3333L19.6663 16.3333" stroke="#863258" stroke-width="1.5" stroke-linecap="round" stroke-linejoin="round"/>
    <path d="M1 16.3333H25" stroke="#863258" stroke-width="1.5" stroke-linecap="round" stroke-linejoin="round"/>
    <path d="M12.9997 12.3333C14.4725 12.3333 15.6663 11.1394 15.6663 9.66667C15.6663 8.19391 14.4725 7 12.9997 7C11.5269 7 10.333 8.19391 10.333 9.66667C10.333 11.1394 11.5269 12.3333 12.9997 12.3333Z" stroke="#863258" stroke-width="1.5" stroke-linecap="round" stroke-linejoin="round"/>
    </svg>
    