<svg width="30" height="24" viewBox="0 0 30 24" fill="none" xmlns="http://www.w3.org/2000/svg">
    <path d="M29.7032 0.9999C29.6923 0.816841 29.6146 0.644149 29.4849 0.514474C29.3552 0.384799 29.1826 0.307129 28.9995 0.296149C22.6245 -0.0788506 17.5145 1.84865 15.3307 5.45365C13.877 7.8549 13.9082 10.7887 15.397 13.5787C14.4425 14.6714 13.7772 15.9861 13.462 17.4024L10.987 14.9262C12.0057 12.9137 11.9995 10.8074 10.947 9.0699C9.34575 6.42615 5.6245 5.00865 0.986998 5.28365C0.803737 5.29466 0.63088 5.37251 0.501176 5.50244C0.371473 5.63237 0.293933 5.80537 0.283248 5.98865C0.0107483 10.6249 1.42575 14.3462 4.0695 15.9474C4.93053 16.4736 5.92038 16.7514 6.9295 16.7499C7.97456 16.7392 9.00238 16.4823 9.9295 15.9999L13.2495 19.3099V22.9999C13.2495 23.1988 13.3285 23.3896 13.4692 23.5302C13.6098 23.6709 13.8006 23.7499 13.9995 23.7499C14.1984 23.7499 14.3892 23.6709 14.5298 23.5302C14.6705 23.3896 14.7495 23.1988 14.7495 22.9999V19.3136C14.7445 17.5955 15.3546 15.9323 16.4695 14.6249C17.8707 15.3661 19.3095 15.7387 20.697 15.7387C22.0541 15.7431 23.3861 15.3724 24.5457 14.6674C28.1507 12.4861 30.0782 7.3749 29.7032 0.9999ZM4.847 14.6636C2.80825 13.4299 1.67325 10.4999 1.7495 6.7499C5.4995 6.66865 8.42575 7.8049 9.6595 9.84365C10.3695 11.0149 10.4295 12.3911 9.852 13.7924L6.5295 10.4686C6.38877 10.3279 6.1979 10.2489 5.99887 10.2489C5.79985 10.2489 5.60898 10.3279 5.46825 10.4686C5.32752 10.6094 5.24846 10.8003 5.24846 10.9993C5.24846 11.1983 5.32752 11.3892 5.46825 11.5299L8.79575 14.8562C7.3945 15.4337 6.01825 15.3749 4.847 14.6636ZM23.7695 13.3861C21.927 14.5011 19.752 14.5337 17.5607 13.4987L24.5307 6.5299C24.6004 6.46022 24.6557 6.37749 24.6934 6.28645C24.7311 6.1954 24.7505 6.09782 24.7505 5.99927C24.7505 5.90073 24.7311 5.80315 24.6934 5.7121C24.6557 5.62106 24.6004 5.53833 24.5307 5.46865C24.4611 5.39897 24.3783 5.34369 24.2873 5.30598C24.1963 5.26827 24.0987 5.24886 24.0001 5.24886C23.9016 5.24886 23.804 5.26827 23.713 5.30598C23.6219 5.34369 23.5392 5.39897 23.4695 5.46865L16.4995 12.4386C15.4645 10.2474 15.4995 8.0724 16.612 6.23115C18.427 3.23115 22.7445 1.58365 28.237 1.7624C28.4157 7.2499 26.767 11.5699 23.7695 13.3861Z" fill="#863258"/>
    </svg>
    