<svg width="26" height="30" viewBox="0 0 26 30" fill="none" xmlns="http://www.w3.org/2000/svg">
    <path d="M9 16.9999V10.9999C9 9.74284 9 9.11431 8.60948 8.72377C8.21895 8.33325 7.59041 8.33325 6.33333 8.33325H3.66667C2.40959 8.33325 1.78105 8.33325 1.39052 8.72377C1 9.11431 1 9.74284 1 10.9999V22.9999C1 25.5141 1 26.7711 1.78105 27.5522C2.56209 28.3333 3.81917 28.3333 6.33333 28.3333H9M9 16.9999L13.4223 14.7887C14.8899 14.055 15.6237 13.6881 16.1923 13.9319C16.3137 13.9841 16.4267 14.0539 16.5276 14.1393C17 14.5387 17 15.3591 17 16.9999L21.1408 14.9295C22.8704 14.0647 23.7353 13.6323 24.3676 14.0231C25 14.4139 25 15.3809 25 17.3147V22.9999C25 25.5141 25 26.7711 24.2189 27.5522C23.4379 28.3333 22.1808 28.3333 19.6667 28.3333H9M9 16.9999V28.3333" stroke="#863258" stroke-width="1.5" stroke-linecap="round" stroke-linejoin="round"/>
    <path d="M1 12.3333H9" stroke="#863258" stroke-width="1.5" stroke-linecap="round" stroke-linejoin="round"/>
    <path d="M14.3333 1.66675H7.66667C6.40959 1.66675 5.78105 1.66675 5.39052 2.05727C5 2.4478 5 3.07633 5 4.33341" stroke="#863258" stroke-width="1.5" stroke-linecap="round" stroke-linejoin="round"/>
    <path d="M18.333 1.66675H19.6663" stroke="#863258" stroke-width="1.5" stroke-linecap="round" stroke-linejoin="round"/>
    <path d="M11.667 5.66675H19.667" stroke="#863258" stroke-width="1.5" stroke-linecap="round" stroke-linejoin="round"/>
    </svg>
    