<svg width="30" height="30" viewBox="0 0 30 30" fill="none" xmlns="http://www.w3.org/2000/svg">
    <path d="M1.66699 10.4255C1.66699 8.8306 2.31017 7.85317 3.64117 7.11245L9.12015 4.06333C11.9911 2.46561 13.4266 1.66675 15.0003 1.66675C16.5741 1.66675 18.0095 2.46561 20.8805 4.06333L26.3595 7.11245C27.6905 7.85317 28.3337 8.83061 28.3337 10.4255C28.3337 10.858 28.3337 11.0742 28.2865 11.252C28.0383 12.186 27.1919 12.3334 26.3746 12.3334H3.62603C2.80869 12.3334 1.96235 12.186 1.71422 11.252C1.66699 11.0742 1.66699 10.858 1.66699 10.4255Z" stroke="#863258" stroke-width="1.5"/>
    <path d="M14.9941 8.33325H15.0061" stroke="#863258" stroke-width="2" stroke-linecap="round" stroke-linejoin="round"/>
    <path d="M4.33301 12.3333V23.6666M9.66634 12.3333V23.6666" stroke="#863258" stroke-width="1.5"/>
    <path d="M20.333 12.3333V23.6666M25.6663 12.3333V23.6666" stroke="#863258" stroke-width="1.5"/>
    <path d="M24.3337 23.6667H5.66699C3.45786 23.6667 1.66699 25.4575 1.66699 27.6667C1.66699 28.0349 1.96547 28.3334 2.33366 28.3334H27.667C28.0351 28.3334 28.3337 28.0349 28.3337 27.6667C28.3337 25.4575 26.5429 23.6667 24.3337 23.6667Z" stroke="#863258" stroke-width="1.5"/>
    </svg>
    