<svg width="26" height="30" viewBox="0 0 26 30" fill="none" xmlns="http://www.w3.org/2000/svg">
    <path d="M13 23C17.4183 23 21 19.4183 21 15C21 10.5817 17.4183 7 13 7C8.58172 7 5 10.5817 5 15C5 19.4183 8.58172 23 13 23Z" stroke="#863258" stroke-width="1.5"/>
    <path d="M7.66699 28.3333L11.2461 18.1357C11.9798 16.0452 12.3466 15 13.0003 15C13.6541 15 14.0209 16.0452 14.7546 18.1357L18.3337 28.3333" stroke="#863258" stroke-width="1.5" stroke-linecap="round" stroke-linejoin="round"/>
    <path d="M15.6663 4.33341C15.6663 5.80617 14.4725 7.00008 12.9997 7.00008C11.5269 7.00008 10.333 5.80617 10.333 4.33341C10.333 2.86065 11.5269 1.66675 12.9997 1.66675C14.4725 1.66675 15.6663 2.86065 15.6663 4.33341Z" stroke="#863258" stroke-width="1.5"/>
    <path d="M22.3337 12.3333C20.8609 12.3333 19.667 11.1394 19.667 9.66667C19.667 8.19391 20.8609 7 22.3337 7C23.8065 7 25.0003 8.19391 25.0003 9.66667C25.0003 11.1394 23.8065 12.3333 22.3337 12.3333Z" stroke="#863258" stroke-width="1.5"/>
    <path d="M6.33333 20.3334C6.33333 21.8062 5.13943 23.0001 3.66667 23.0001C2.19391 23.0001 1 21.8062 1 20.3334C1 18.8606 2.19391 17.6667 3.66667 17.6667C5.13943 17.6667 6.33333 18.8606 6.33333 20.3334Z" stroke="#863258" stroke-width="1.5"/>
    <path d="M6.33333 9.33341C6.33333 10.8062 5.13943 12.0001 3.66667 12.0001C2.19391 12.0001 1 10.8062 1 9.33341C1 7.86065 2.19391 6.66675 3.66667 6.66675C5.13943 6.66675 6.33333 7.86065 6.33333 9.33341Z" stroke="#863258" stroke-width="1.5"/>
    <path d="M25.0003 20.3334C25.0003 21.8062 23.8065 23.0001 22.3337 23.0001C20.8609 23.0001 19.667 21.8062 19.667 20.3334C19.667 18.8606 20.8609 17.6667 22.3337 17.6667C23.8065 17.6667 25.0003 18.8606 25.0003 20.3334Z" stroke="#863258" stroke-width="1.5"/>
    </svg>
    