<svg width="30" height="30" viewBox="0 0 30 30" fill="none" xmlns="http://www.w3.org/2000/svg">
    <path d="M7.00095 24.3334C5.12592 23.0834 4.07489 21.6197 3.52597 20.2643C3.14227 19.3169 2.95043 18.8431 3.34681 18.2549C3.7432 17.6667 4.38468 17.6667 5.66761 17.6667H24.3343C25.6172 17.6667 26.2587 17.6667 26.6551 18.2549C27.0515 18.8431 26.8596 19.3169 26.4759 20.2643C25.9269 21.6197 24.876 23.0834 23.0009 24.3334" stroke="#863258" stroke-width="1.5" stroke-linecap="round"/>
    <path d="M19.1395 3.89865L21.6685 8.2337C22.7302 10.0536 23.2611 10.9636 22.8726 11.6485C22.4841 12.3334 21.4371 12.3334 19.343 12.3334H12.7677C10.0951 12.3334 8.75884 12.3334 8.40716 11.5127C8.05548 10.692 8.97132 9.71084 10.803 7.74853L14.8494 3.41349C15.9795 2.20268 16.5446 1.59728 17.215 1.67309C17.8854 1.74889 18.3034 2.46548 19.1395 3.89865Z" stroke="#863258" stroke-width="1.5" stroke-linecap="round"/>
    <path d="M17.667 17.6667V3" stroke="#863258" stroke-width="1.5" stroke-linecap="round"/>
    <path d="M1.66699 27.8111C2.73291 28.4747 4.11083 28.4747 5.20275 27.8111C6.94463 26.7296 9.20646 26.7296 10.9743 27.8111C10.9743 27.8356 11.0003 27.8356 11.0003 27.8356C12.0663 28.4992 13.4702 28.4992 14.5361 27.8356C16.3039 26.7543 18.5658 26.7543 20.3337 27.8356C21.3995 28.4992 22.7775 28.4747 23.8694 27.8111C25.2042 26.9824 26.8445 26.7887 28.3337 27.2302" stroke="#863258" stroke-width="1.5" stroke-linecap="round"/>
    </svg>
    