<svg width="30" height="28" viewBox="0 0 30 28" fill="none" xmlns="http://www.w3.org/2000/svg">
    <path d="M2.95605 11.9949V18.6639C2.95605 22.4365 2.95605 24.3227 4.12763 25.4947C5.2992 26.6669 7.18481 26.6669 10.9561 26.6669H18.9561C22.7273 26.6669 24.6129 26.6669 25.7845 25.4947C26.9561 24.3227 26.9561 22.4365 26.9561 18.6639V11.9949" stroke="#863258" stroke-width="1.5" stroke-linecap="round"/>
    <path d="M12.4721 9.22464C12.0961 10.5825 10.7287 12.9248 8.13068 13.2643C5.83676 13.564 4.09694 12.5627 3.65254 12.144C3.16256 11.8045 2.04587 10.7183 1.7724 10.0394C1.49892 9.36042 1.81797 7.88941 2.04587 7.28968L2.9569 4.65184C3.1793 3.98928 3.69992 2.42221 4.23367 1.89217C4.76743 1.36213 5.84807 1.33907 6.29286 1.33907H15.6335C18.0378 1.37304 23.2949 1.31762 24.3341 1.33908C25.3733 1.36052 25.9978 2.23164 26.1801 2.60505C27.7306 6.36081 28.3337 8.51176 28.3337 9.42832C28.1313 10.4061 27.2937 12.2497 24.3341 13.0607C21.2581 13.9033 19.5142 12.2641 18.9671 11.6348M11.2073 11.6348C11.6403 12.1667 12.9986 13.2372 14.9675 13.2643C16.9366 13.2915 18.6367 11.9177 19.2406 11.2275C19.4115 11.0238 19.7807 10.4196 20.1637 9.22464" stroke="#863258" stroke-width="1.5" stroke-linecap="round" stroke-linejoin="round"/>
    </svg>
    