<svg width="366" height="358" viewBox="0 0 366 358" fill="none" xmlns="http://www.w3.org/2000/svg">
    <path d="M261 49L271.5 163L256.5 191L34 353.5L71 235L152.5 117L261 49Z" fill="url(#paint0_linear_1032_4835)"/>
    <path d="M222.754 82.1048L215.51 77.081L211.888 75.8878L206.811 75.216L204.694 73.8823L202.517 70.2323L201.824 65.2888L200.71 62.1602L198.132 58.5002L188.59 48.1519L186.021 44.3815L206.69 14.5499L215.47 0.391113L251.249 33.6622L262.467 50.2175L262.557 68.668L255.293 81.5332L231.513 87.1987L222.754 82.1048Z" fill="#009971"/>
    <path d="M215.52 0.78214L251.029 33.8126L262.206 50.3077L262.296 68.6078L255.112 81.3226L231.533 86.938L222.895 81.9243L215.64 76.8805L215.58 76.8404L215.51 76.8203L211.958 75.6671H211.918L211.868 75.6471L206.881 74.9853L204.864 73.7118L202.767 70.2022L202.065 65.2586V65.2085L202.045 65.1584L200.941 62.0799L200.921 62.0198L200.881 61.9596L198.333 58.3598L198.312 58.3297L198.292 58.3096L188.801 48.0114L186.322 44.3915L206.901 14.6802L215.52 0.792177M215.42 0L206.48 14.4094L185.72 44.3815L188.409 48.3223L197.921 58.6505L200.47 62.2504L201.573 65.3288L202.296 70.3726L204.503 74.0728L206.711 75.4666L211.808 76.1384L215.359 77.2916L222.614 82.3354L231.453 87.4795L255.433 81.7638L262.788 68.7482L262.688 50.1573L251.39 33.4917L215.39 0.0100219L215.42 0Z" fill="white"/>
    <path d="M154.486 149.71L151.165 137.115L148.356 132.763L145.546 131.38L133.255 127.81L118.997 127.198L123.533 120.851L129.964 113.33L148.175 93.2051L185.7 44.8026L188.199 48.4626L197.741 58.8109L200.269 62.3908L201.343 65.409L202.045 70.4027L204.322 74.2432L206.63 75.6972L211.777 76.3791L215.289 77.5222L222.483 82.5359L231.062 87.5195L155.038 161.061L154.486 149.71Z" fill="#183938"/>
    <path d="M185.69 45.2338L187.998 48.603L188.018 48.6331L188.038 48.6632L197.53 58.9714L200.018 62.4911L201.082 65.4492L201.794 70.4428V70.5431L201.864 70.6334L204.072 74.3335L204.132 74.4338L204.232 74.4939L206.44 75.8877L206.53 75.9479H206.64L211.687 76.6298L215.129 77.7428L222.363 82.7666L230.63 87.5697L155.239 160.499L154.717 149.69V149.64L154.697 149.59L151.376 137.055L151.356 136.975L151.315 136.905L148.576 132.673L148.496 132.553L148.376 132.493L145.636 131.149L145.596 131.129H145.556L133.295 127.559L133.235 127.539H133.175L119.439 126.948L123.683 121.011L130.115 113.481L148.356 93.3255L185.66 45.2138M185.72 44.3815L147.994 93.0447L129.773 113.17L123.332 120.71L118.526 127.439L133.185 128.061L145.446 131.61L148.185 132.954L150.924 137.186L154.245 149.72L154.817 161.632L231.473 87.4695L222.634 82.3254L215.379 77.2816L211.828 76.1284L206.731 75.4566L204.523 74.0628L202.316 70.3626L201.593 65.3188L200.49 62.2404L197.941 58.6405L188.429 48.3123L185.74 44.3715L185.72 44.3815Z" fill="white"/>
    <path d="M109.867 212.873L107.74 211.569L100.726 204.54L98.9104 203.357L71.9403 193.58L66.9336 190.662L64.084 187.493L71.4988 180.695L86.9304 164.591L99.1512 151.184L118.636 127.69L133.175 128.301L145.366 131.851L148.004 133.145L150.703 137.316L153.994 149.78L154.556 161.532L148.004 167.839L120.392 203.317L117.141 214.046L109.867 212.873Z" fill="#2B6766"/>
    <path d="M118.747 127.94L133.095 128.552L145.255 132.082L147.834 133.345L150.453 137.386L153.734 149.79L154.295 161.422L147.824 167.649L147.794 167.669L147.774 167.699L120.181 203.146L120.121 203.216L120.091 203.307L116.951 213.745L109.987 212.632L107.91 211.369L100.887 204.349L100.847 204.309L100.807 204.279L99.0308 203.126L98.9806 203.096L98.9305 203.076L72.0607 193.339L67.1242 190.471L64.4352 187.493L71.6895 180.845L87.131 164.741L99.3519 151.324L118.757 127.93M118.526 127.429L98.9606 151.013L86.7498 164.41L71.3182 180.504L63.7228 187.473L66.8031 190.883L71.85 193.811L98.7699 203.557L100.546 204.71L107.609 211.77L109.817 213.113L117.312 214.317L120.583 203.457L148.175 168.01L154.807 161.622L154.235 149.71L150.914 137.176L148.175 132.944L145.436 131.6L133.175 128.051L118.516 127.429H118.526Z" fill="white"/>
    <path d="M71.1276 313.177L66.6226 292.711L65.4085 289.503L63.8734 287.607L60.9436 285.592L44.5187 277.55L31.9467 270.21L7.64554 252.261L2.26758 249.794L26.6591 225.989L54.9737 195.716L63.7128 187.824L66.6226 191.053L71.7296 194.031L98.6796 203.798L100.415 204.931L107.439 211.96L109.696 213.334L117.001 214.527L113.088 227.603L115.145 255.51L115.345 281.41L106.235 298.116L75.9337 324.248L71.1276 313.177Z" fill="#00543E"/>
    <path d="M63.6928 188.185L66.4319 191.224L66.4821 191.284L66.5523 191.324L71.5992 194.252L71.6393 194.272L71.6795 194.292L98.5392 204.019L100.225 205.112L107.248 212.131L107.288 212.171L107.339 212.201L109.546 213.545L109.626 213.595L109.727 213.615L116.66 214.728L112.837 227.533L112.807 227.623V227.713L114.884 255.489L115.074 281.35L106.044 297.916L76.0139 323.826L71.3584 313.107L66.8533 292.641V292.601L66.8333 292.571L65.6292 289.402L65.5991 289.322L65.549 289.262L64.064 287.437L64.0138 287.377L63.9536 287.337L61.074 285.371L61.0439 285.351L61.0138 285.331L44.6592 277.329L32.0872 269.989L7.786 252.04L7.74586 252.01L7.6957 251.99L2.68897 249.704L26.8397 226.129L55.1141 195.896L63.6827 188.165M63.7329 187.473L54.793 195.545L26.4885 225.808L1.83612 249.874L7.50506 252.471L31.8263 270.44L44.4184 277.791L60.8031 285.812L63.6827 287.778L65.1677 289.603L66.3717 292.772L70.8868 313.278L75.8333 324.659L106.446 298.236L115.576 281.471L115.385 255.479L113.319 227.663L117.312 214.307L109.817 213.103L107.609 211.76L100.546 204.7L98.77 203.547L71.85 193.801L66.8032 190.873L63.7229 187.463L63.7329 187.473Z" fill="white"/>
    <path d="M0.290924 251.358L1.85615 250.165L7.39465 252.692L31.6657 270.631L44.2879 277.991L60.6927 286.023L63.5422 287.978L64.977 289.753L66.1409 292.852L70.646 313.328L75.5423 324.589L69.4319 329.853L32.4383 357.579L0.290924 251.358Z" fill="#009971"/>
    <path d="M1.89633 250.446L7.2442 252.892L31.5253 270.821L31.5454 270.841H31.5654L44.1876 278.222L60.5422 286.224L63.3316 288.129L64.7262 289.833L65.8901 292.892L70.3952 313.368V313.418L70.4253 313.458L75.2313 324.508L69.2915 329.622L32.5688 357.148L0.581944 251.448L1.89633 250.446ZM1.8261 249.874L0 251.268L32.2979 358L69.5925 330.043L75.8434 324.659L70.8968 313.278L66.3818 292.771L65.1777 289.603L63.6928 287.778L60.8132 285.812L44.4284 277.79L31.8364 270.44L7.5151 252.471L1.84617 249.874H1.8261Z" fill="white"/>
    <path d="M28.3285 302.798C29.5291 302.798 30.4581 303.078 31.1154 303.639C31.7815 304.191 32.1145 304.971 32.1145 305.979C32.1145 307.04 31.7815 307.868 31.1154 308.464C30.4581 309.051 29.5291 309.345 28.3285 309.345H26.4092V312H24.3322V302.798H28.3285ZM28.3285 307.662C28.8981 307.662 29.3407 307.53 29.6562 307.267C29.9805 306.996 30.1426 306.588 30.1426 306.045C30.1426 305.519 29.9805 305.125 29.6562 304.862C29.3407 304.599 28.8981 304.467 28.3285 304.467H26.4092V307.662H28.3285ZM28.0787 308.569H30.1032L32.338 312H29.9849L28.0787 308.569ZM36.3032 308.937C35.9176 308.937 35.6284 309.003 35.4356 309.134C35.2428 309.266 35.1464 309.476 35.1464 309.765C35.1464 310.046 35.2428 310.269 35.4356 310.436C35.6371 310.593 35.9088 310.672 36.2506 310.672C36.5486 310.672 36.8115 310.624 37.0394 310.528C37.276 310.422 37.4688 310.287 37.6178 310.12C37.7755 309.945 37.8719 309.743 37.907 309.515L38.2093 310.646C38.0078 311.119 37.6923 311.479 37.2628 311.724C36.8334 311.969 36.3076 312.092 35.6853 312.092C35.1858 312.092 34.752 311.996 34.3839 311.803C34.0246 311.61 33.7441 311.347 33.5426 311.014C33.3498 310.681 33.2534 310.304 33.2534 309.884C33.2534 309.226 33.4856 308.709 33.9501 308.332C34.4146 307.955 35.0806 307.763 35.9482 307.754H38.1042V308.937H36.3032ZM37.8938 307.622C37.8938 307.237 37.7668 306.934 37.5126 306.715C37.2672 306.496 36.9035 306.387 36.4215 306.387C36.106 306.387 35.7686 306.444 35.4093 306.558C35.0499 306.663 34.6862 306.816 34.3182 307.018L33.6872 305.703C34.0377 305.519 34.3795 305.366 34.7125 305.243C35.0456 305.12 35.3874 305.028 35.7379 304.967C36.0885 304.897 36.4697 304.862 36.8816 304.862C37.8369 304.862 38.573 305.085 39.0901 305.532C39.6072 305.979 39.8701 306.597 39.8789 307.386L39.892 312H37.907L37.8938 307.622ZM42.0177 304.573C42.0177 304.038 42.136 303.591 42.3727 303.232C42.6093 302.872 42.9248 302.605 43.3192 302.43C43.7135 302.246 44.1473 302.154 44.6206 302.154C44.8572 302.154 45.0938 302.18 45.3305 302.233C45.5759 302.285 45.8037 302.355 46.0141 302.443L45.7117 303.968C45.5802 303.915 45.44 303.871 45.291 303.836C45.1508 303.793 45.0106 303.771 44.8704 303.771C44.7214 303.771 44.5812 303.801 44.4497 303.863C44.3182 303.915 44.2131 304.007 44.1342 304.139C44.0641 304.261 44.029 304.419 44.029 304.612V312H42.0177V304.573ZM41.0712 305.243H45.6986V306.597H41.0712V305.243ZM48.7686 308.937C48.383 308.937 48.0938 309.003 47.901 309.134C47.7082 309.266 47.6118 309.476 47.6118 309.765C47.6118 310.046 47.7082 310.269 47.901 310.436C48.1026 310.593 48.3742 310.672 48.716 310.672C49.014 310.672 49.2769 310.624 49.5048 310.528C49.7414 310.422 49.9342 310.287 50.0832 310.12C50.241 309.945 50.3374 309.743 50.3724 309.515L50.6748 310.646C50.4732 311.119 50.1577 311.479 49.7283 311.724C49.2988 311.969 48.773 312.092 48.1508 312.092C47.6512 312.092 47.2174 311.996 46.8493 311.803C46.49 311.61 46.2096 311.347 46.008 311.014C45.8152 310.681 45.7188 310.304 45.7188 309.884C45.7188 309.226 45.951 308.709 46.4155 308.332C46.88 307.955 47.5461 307.763 48.4137 307.754H50.5696V308.937H48.7686ZM50.3593 307.622C50.3593 307.237 50.2322 306.934 49.978 306.715C49.7326 306.496 49.3689 306.387 48.8869 306.387C48.5714 306.387 48.234 306.444 47.8747 306.558C47.5154 306.663 47.1517 306.816 46.7836 307.018L46.1526 305.703C46.5032 305.519 46.8449 305.366 47.178 305.243C47.511 305.12 47.8528 305.028 48.2033 304.967C48.5539 304.897 48.9351 304.862 49.347 304.862C50.3023 304.862 51.0385 305.085 51.5555 305.532C52.0726 305.979 52.3355 306.597 52.3443 307.386L52.3574 312H50.3724L50.3593 307.622ZM59.2157 308.135C59.2157 307.671 59.0886 307.307 58.8344 307.044C58.589 306.781 58.2516 306.65 57.8222 306.65C57.3139 306.658 56.9151 306.838 56.6259 307.189C56.3367 307.539 56.1921 307.982 56.1921 308.516H55.6926C55.6926 307.693 55.8109 307.013 56.0475 306.479C56.2841 305.935 56.6215 305.532 57.0597 305.269C57.5067 304.998 58.0325 304.862 58.6372 304.862C59.1718 304.862 59.6319 304.976 60.0175 305.204C60.4119 305.423 60.7143 305.734 60.9246 306.137C61.1349 306.54 61.2401 307.018 61.2401 307.57V312H59.2157V308.135ZM54.1677 302.246H56.1921V312H54.1677V302.246Z" fill="white"/>
    <path d="M22.088 241.798H24.165V246.175L27.9773 241.798H30.3961L24.165 248.673V251H22.088V241.798ZM26.7547 245.387L30.6196 251H28.1351L25.3744 247.03L26.7547 245.387ZM36.8547 247.135C36.8547 246.671 36.7277 246.307 36.4735 246.044C36.2281 245.781 35.8907 245.65 35.4613 245.65C34.953 245.658 34.5542 245.838 34.265 246.189C33.9758 246.539 33.8312 246.982 33.8312 247.516H33.3317C33.3317 246.693 33.45 246.013 33.6866 245.479C33.9232 244.935 34.2606 244.532 34.6988 244.269C35.1458 243.998 35.6716 243.862 36.2763 243.862C36.8109 243.862 37.271 243.976 37.6566 244.204C38.051 244.423 38.3534 244.734 38.5637 245.137C38.774 245.54 38.8792 246.018 38.8792 246.57V251H36.8547V247.135ZM31.8067 241.246H33.8312V251H31.8067V241.246ZM43.1096 247.937C42.724 247.937 42.4348 248.003 42.242 248.134C42.0492 248.266 41.9528 248.476 41.9528 248.765C41.9528 249.046 42.0492 249.269 42.242 249.436C42.4435 249.593 42.7152 249.672 43.057 249.672C43.355 249.672 43.6179 249.624 43.8458 249.528C44.0824 249.422 44.2752 249.287 44.4242 249.12C44.5819 248.945 44.6783 248.743 44.7134 248.515L45.0157 249.646C44.8142 250.119 44.4987 250.479 44.0692 250.724C43.6398 250.969 43.114 251.092 42.4917 251.092C41.9922 251.092 41.5584 250.996 41.1903 250.803C40.831 250.61 40.5505 250.347 40.349 250.014C40.1562 249.681 40.0598 249.304 40.0598 248.884C40.0598 248.226 40.292 247.709 40.7565 247.332C41.221 246.955 41.887 246.763 42.7547 246.754H44.9106V247.937H43.1096ZM44.7002 246.622C44.7002 246.237 44.5732 245.934 44.319 245.715C44.0736 245.496 43.7099 245.387 43.2279 245.387C42.9124 245.387 42.575 245.444 42.2157 245.558C41.8564 245.663 41.4927 245.816 41.1246 246.018L40.4936 244.703C40.8441 244.519 41.1859 244.366 41.519 244.243C41.852 244.12 42.1938 244.028 42.5443 243.967C42.8949 243.897 43.2761 243.862 43.688 243.862C44.6433 243.862 45.3794 244.085 45.8965 244.532C46.4136 244.979 46.6765 245.597 46.6853 246.386L46.6984 251H44.7134L44.7002 246.622ZM53.4778 247.135C53.4778 246.671 53.3507 246.307 53.0965 246.044C52.8511 245.781 52.5137 245.65 52.0843 245.65C51.5848 245.658 51.1904 245.838 50.9012 246.189C50.612 246.539 50.4674 246.982 50.4674 247.516H49.9547C49.9547 246.693 50.073 246.013 50.3096 245.479C50.555 244.935 50.8968 244.532 51.335 244.269C51.7819 243.998 52.3078 243.862 52.9125 243.862C53.4383 243.862 53.894 243.976 54.2797 244.204C54.674 244.423 54.9764 244.734 55.1867 245.137C55.397 245.54 55.5022 246.018 55.5022 246.57V251H53.4778V247.135ZM48.4429 243.941H50.4674V251H48.4429V243.941ZM59.7806 241.798H61.8708L64.2239 245.991L66.5244 241.798H68.6146L64.3553 249.646H64.0793L59.7806 241.798ZM63.1853 247.017H65.2624V251H63.1853V247.017ZM71.9595 243.875C72.7132 243.875 73.3748 244.024 73.9445 244.322C74.5141 244.62 74.9567 245.041 75.2722 245.584C75.5877 246.119 75.7455 246.745 75.7455 247.464C75.7455 248.182 75.5877 248.813 75.2722 249.357C74.9567 249.9 74.5141 250.321 73.9445 250.619C73.3748 250.917 72.7132 251.066 71.9595 251.066C71.2058 251.066 70.5397 250.917 69.9613 250.619C69.3916 250.321 68.9491 249.9 68.6336 249.357C68.3181 248.813 68.1603 248.182 68.1603 247.464C68.1603 246.745 68.3181 246.119 68.6336 245.584C68.9491 245.041 69.3916 244.62 69.9613 244.322C70.5397 244.024 71.2058 243.875 71.9595 243.875ZM71.9595 245.492C71.6089 245.492 71.2978 245.575 71.0261 245.742C70.7632 245.908 70.5572 246.145 70.4083 246.452C70.2593 246.75 70.1848 247.096 70.1848 247.49C70.1848 247.884 70.2593 248.235 70.4083 248.542C70.5572 248.84 70.7632 249.076 71.0261 249.252C71.2978 249.418 71.6089 249.501 71.9595 249.501C72.31 249.501 72.6168 249.418 72.8797 249.252C73.1426 249.076 73.3485 248.84 73.4975 248.542C73.6465 248.235 73.721 247.884 73.721 247.49C73.721 247.096 73.6465 246.75 73.4975 246.452C73.3485 246.145 73.1426 245.908 72.8797 245.742C72.6168 245.575 72.31 245.492 71.9595 245.492ZM78.898 247.819C78.898 248.274 79.0163 248.634 79.2529 248.897C79.4896 249.16 79.8138 249.291 80.2257 249.291C80.7165 249.282 81.0977 249.103 81.3694 248.752C81.6499 248.402 81.7901 247.959 81.7901 247.424H82.2765C82.2765 248.248 82.1582 248.932 81.9215 249.475C81.6937 250.01 81.365 250.408 80.9356 250.671C80.5149 250.934 80.011 251.07 79.4238 251.079C78.898 251.079 78.4467 250.969 78.0698 250.75C77.693 250.522 77.3994 250.207 77.189 249.804C76.9787 249.401 76.8735 248.923 76.8735 248.371V243.941H78.898V247.819ZM81.7901 243.941H83.8014V251H81.7901V243.941ZM90.797 247.135C90.797 246.671 90.67 246.307 90.4158 246.044C90.1704 245.781 89.833 245.65 89.4036 245.65C88.904 245.658 88.5097 245.838 88.2204 246.189C87.9312 246.539 87.7866 246.982 87.7866 247.516H87.2739C87.2739 246.693 87.3923 246.013 87.6289 245.479C87.8743 244.935 88.2161 244.532 88.6543 244.269C89.1012 243.998 89.6271 243.862 90.2318 243.862C90.7576 243.862 91.2133 243.976 91.5989 244.204C91.9933 244.423 92.2957 244.734 92.506 245.137C92.7163 245.54 92.8215 246.018 92.8215 246.57V251H90.797V247.135ZM85.7622 243.941H87.7866V251H85.7622V243.941ZM99.183 246.899C99.1743 246.574 99.1042 246.298 98.9727 246.07C98.85 245.834 98.6704 245.65 98.4337 245.518C98.1971 245.387 97.9254 245.321 97.6187 245.321C97.2769 245.321 96.9789 245.409 96.7248 245.584C96.4706 245.759 96.2734 246 96.1332 246.307C95.993 246.614 95.9229 246.969 95.9229 247.372C95.9229 247.827 96.0018 248.217 96.1595 248.542C96.3173 248.866 96.5407 249.116 96.8299 249.291C97.1192 249.466 97.4522 249.554 97.829 249.554C98.5126 249.554 99.1086 249.3 99.6169 248.791L100.682 249.843C100.331 250.238 99.8973 250.54 99.3802 250.75C98.8719 250.961 98.2979 251.066 97.6581 251.066C96.9044 251.066 96.2515 250.917 95.6994 250.619C95.1473 250.321 94.7178 249.905 94.4111 249.37C94.1131 248.827 93.9642 248.2 93.9642 247.49C93.9642 246.763 94.1175 246.132 94.4243 245.597C94.731 245.054 95.156 244.633 95.6994 244.335C96.2515 244.037 96.8869 243.884 97.6055 243.875C98.4381 243.875 99.1173 244.05 99.6432 244.401C100.178 244.743 100.563 245.229 100.8 245.86C101.045 246.482 101.137 247.223 101.076 248.082H95.6337V246.899H99.183ZM106.869 245.965C106.484 245.755 106.102 245.593 105.725 245.479C105.349 245.356 105.011 245.295 104.713 245.295C104.477 245.295 104.279 245.339 104.122 245.426C103.973 245.514 103.898 245.654 103.898 245.847C103.898 246.031 103.986 246.18 104.161 246.294C104.345 246.399 104.577 246.491 104.858 246.57C105.147 246.649 105.449 246.741 105.765 246.846C106.08 246.942 106.378 247.069 106.659 247.227C106.948 247.385 107.18 247.6 107.356 247.871C107.531 248.134 107.618 248.476 107.618 248.897C107.618 249.37 107.491 249.773 107.237 250.106C106.983 250.43 106.637 250.676 106.199 250.842C105.761 251 105.274 251.079 104.74 251.079C104.17 251.079 103.618 250.996 103.083 250.829C102.549 250.663 102.08 250.417 101.677 250.093L102.334 248.778C102.702 249.059 103.105 249.278 103.543 249.436C103.99 249.585 104.406 249.659 104.792 249.659C104.967 249.659 105.121 249.637 105.252 249.593C105.384 249.55 105.489 249.484 105.568 249.396C105.647 249.309 105.686 249.199 105.686 249.068C105.686 248.875 105.598 248.721 105.423 248.607C105.248 248.485 105.02 248.384 104.74 248.305C104.459 248.217 104.161 248.13 103.846 248.042C103.53 247.946 103.232 247.819 102.952 247.661C102.68 247.503 102.457 247.297 102.281 247.043C102.106 246.78 102.018 246.443 102.018 246.031C102.018 245.54 102.145 245.137 102.4 244.821C102.654 244.497 102.991 244.256 103.412 244.098C103.832 243.941 104.297 243.862 104.805 243.862C105.296 243.862 105.778 243.928 106.251 244.059C106.733 244.19 107.172 244.379 107.566 244.624L106.869 245.965Z" fill="white"/>
    <path d="M107.341 164.798C108.506 164.798 109.409 165.078 110.049 165.639C110.697 166.191 111.021 166.971 111.021 167.979C111.021 169.04 110.697 169.868 110.049 170.464C109.409 171.051 108.506 171.345 107.341 171.345H104.606L105.513 170.437V174H103.436V164.798H107.341ZM107.235 169.662C107.814 169.662 108.261 169.53 108.576 169.267C108.892 168.996 109.049 168.588 109.049 168.045C109.049 167.519 108.892 167.125 108.576 166.862C108.261 166.599 107.814 166.467 107.235 166.467H104.606L105.513 165.56V170.582L104.606 169.662H107.235ZM114.12 170.819C114.12 171.274 114.239 171.634 114.475 171.897C114.712 172.16 115.036 172.291 115.448 172.291C115.939 172.282 116.32 172.103 116.592 171.752C116.872 171.402 117.012 170.959 117.012 170.424H117.499C117.499 171.248 117.38 171.932 117.144 172.475C116.916 173.01 116.587 173.408 116.158 173.671C115.737 173.934 115.233 174.07 114.646 174.079C114.12 174.079 113.669 173.969 113.292 173.75C112.915 173.522 112.622 173.207 112.411 172.804C112.201 172.401 112.096 171.923 112.096 171.371V166.941H114.12V170.819ZM117.012 166.941H119.024V174H117.012V166.941ZM125.441 168.965C125.055 168.755 124.674 168.593 124.297 168.479C123.92 168.356 123.583 168.295 123.285 168.295C123.048 168.295 122.851 168.339 122.693 168.426C122.544 168.514 122.47 168.654 122.47 168.847C122.47 169.031 122.558 169.18 122.733 169.294C122.917 169.399 123.149 169.491 123.43 169.57C123.719 169.649 124.021 169.741 124.337 169.846C124.652 169.942 124.95 170.069 125.231 170.227C125.52 170.385 125.752 170.6 125.927 170.871C126.103 171.134 126.19 171.476 126.19 171.897C126.19 172.37 126.063 172.773 125.809 173.106C125.555 173.43 125.209 173.676 124.77 173.842C124.332 174 123.846 174.079 123.311 174.079C122.742 174.079 122.189 173.996 121.655 173.829C121.12 173.663 120.651 173.417 120.248 173.093L120.906 171.778C121.274 172.059 121.677 172.278 122.115 172.436C122.562 172.585 122.978 172.659 123.364 172.659C123.539 172.659 123.692 172.637 123.824 172.593C123.955 172.55 124.061 172.484 124.139 172.396C124.218 172.309 124.258 172.199 124.258 172.068C124.258 171.875 124.17 171.721 123.995 171.607C123.82 171.485 123.592 171.384 123.311 171.305C123.031 171.217 122.733 171.13 122.417 171.042C122.102 170.946 121.804 170.819 121.523 170.661C121.252 170.503 121.028 170.297 120.853 170.043C120.678 169.78 120.59 169.443 120.59 169.031C120.59 168.54 120.717 168.137 120.971 167.821C121.225 167.497 121.563 167.256 121.984 167.098C122.404 166.941 122.869 166.862 123.377 166.862C123.868 166.862 124.35 166.928 124.823 167.059C125.305 167.19 125.743 167.379 126.138 167.624L125.441 168.965ZM130.042 170.937C129.657 170.937 129.367 171.003 129.175 171.134C128.982 171.266 128.885 171.476 128.885 171.765C128.885 172.046 128.982 172.269 129.175 172.436C129.376 172.593 129.648 172.672 129.99 172.672C130.288 172.672 130.551 172.624 130.778 172.528C131.015 172.422 131.208 172.287 131.357 172.12C131.515 171.945 131.611 171.743 131.646 171.515L131.948 172.646C131.747 173.119 131.431 173.479 131.002 173.724C130.572 173.969 130.047 174.092 129.424 174.092C128.925 174.092 128.491 173.996 128.123 173.803C127.764 173.61 127.483 173.347 127.282 173.014C127.089 172.681 126.992 172.304 126.992 171.884C126.992 171.226 127.225 170.709 127.689 170.332C128.154 169.955 128.82 169.763 129.687 169.754H131.843V170.937H130.042ZM131.633 169.622C131.633 169.237 131.506 168.934 131.252 168.715C131.006 168.496 130.643 168.387 130.161 168.387C129.845 168.387 129.508 168.444 129.148 168.558C128.789 168.663 128.425 168.816 128.057 169.018L127.426 167.703C127.777 167.519 128.119 167.366 128.452 167.243C128.785 167.12 129.126 167.028 129.477 166.967C129.828 166.897 130.209 166.862 130.621 166.862C131.576 166.862 132.312 167.085 132.829 167.532C133.346 167.979 133.609 168.597 133.618 169.386L133.631 174H131.646L131.633 169.622ZM137.702 171.594C137.702 171.91 137.764 172.133 137.886 172.265C138.009 172.387 138.176 172.444 138.386 172.436C138.517 172.436 138.662 172.414 138.82 172.37C138.978 172.326 139.148 172.26 139.332 172.173L139.753 173.592C139.49 173.75 139.201 173.873 138.885 173.961C138.57 174.048 138.246 174.092 137.913 174.092C137.492 174.092 137.111 174.013 136.769 173.855C136.436 173.698 136.173 173.457 135.98 173.132C135.787 172.808 135.691 172.405 135.691 171.923V165.297H137.702V171.594ZM134.705 167.243H139.622V168.597H134.705V167.243Z" fill="white"/>
    <path d="M166.396 101.44C166.062 101.116 165.668 100.862 165.212 100.678C164.765 100.494 164.318 100.402 163.872 100.402C163.46 100.402 163.078 100.481 162.728 100.638C162.377 100.787 162.071 100.998 161.808 101.269C161.545 101.541 161.339 101.857 161.19 102.216C161.05 102.575 160.979 102.965 160.979 103.386C160.979 103.806 161.054 104.201 161.203 104.569C161.352 104.928 161.558 105.248 161.821 105.529C162.084 105.8 162.39 106.015 162.741 106.173C163.092 106.322 163.473 106.396 163.885 106.396C164.262 106.396 164.669 106.313 165.107 106.146C165.545 105.98 165.944 105.756 166.303 105.476L167.487 106.935C167.162 107.163 166.79 107.369 166.369 107.553C165.957 107.737 165.524 107.882 165.068 107.987C164.612 108.092 164.174 108.145 163.753 108.145C163.052 108.145 162.404 108.026 161.808 107.79C161.22 107.544 160.703 107.207 160.256 106.777C159.809 106.348 159.463 105.844 159.218 105.266C158.973 104.678 158.85 104.052 158.85 103.386C158.85 102.72 158.977 102.102 159.231 101.532C159.485 100.954 159.836 100.45 160.283 100.02C160.738 99.591 161.273 99.258 161.886 99.0214C162.5 98.7848 163.162 98.6665 163.872 98.6665C164.327 98.6665 164.779 98.7234 165.226 98.8374C165.672 98.9425 166.098 99.0959 166.501 99.2975C166.904 99.499 167.259 99.74 167.565 100.02L166.396 101.44ZM165.686 103.373H167.487V106.935H165.686V103.373ZM171.761 104.937C171.375 104.937 171.086 105.003 170.893 105.134C170.7 105.266 170.604 105.476 170.604 105.765C170.604 106.046 170.7 106.269 170.893 106.436C171.095 106.593 171.366 106.672 171.708 106.672C172.006 106.672 172.269 106.624 172.497 106.528C172.733 106.422 172.926 106.287 173.075 106.12C173.233 105.945 173.329 105.743 173.364 105.515L173.667 106.646C173.465 107.119 173.15 107.479 172.72 107.724C172.291 107.969 171.765 108.092 171.143 108.092C170.643 108.092 170.209 107.996 169.841 107.803C169.482 107.61 169.202 107.347 169 107.014C168.807 106.681 168.711 106.304 168.711 105.884C168.711 105.226 168.943 104.709 169.407 104.332C169.872 103.955 170.538 103.763 171.406 103.754H173.562V104.937H171.761ZM173.351 103.622C173.351 103.237 173.224 102.934 172.97 102.715C172.725 102.496 172.361 102.387 171.879 102.387C171.563 102.387 171.226 102.444 170.867 102.558C170.507 102.663 170.144 102.816 169.776 103.018L169.145 101.703C169.495 101.519 169.837 101.366 170.17 101.243C170.503 101.12 170.845 101.028 171.195 100.967C171.546 100.897 171.927 100.862 172.339 100.862C173.294 100.862 174.03 101.085 174.547 101.532C175.065 101.979 175.327 102.597 175.336 103.386L175.349 108H173.364L173.351 103.622ZM176.662 100.941L182.709 100.954V102.19L179.068 106.475H182.84V108.013L176.544 108V106.764L180.185 102.479H176.662V100.941ZM186.639 104.937C186.254 104.937 185.965 105.003 185.772 105.134C185.579 105.266 185.483 105.476 185.483 105.765C185.483 106.046 185.579 106.269 185.772 106.436C185.973 106.593 186.245 106.672 186.587 106.672C186.885 106.672 187.148 106.624 187.376 106.528C187.612 106.422 187.805 106.287 187.954 106.12C188.112 105.945 188.208 105.743 188.243 105.515L188.546 106.646C188.344 107.119 188.029 107.479 187.599 107.724C187.17 107.969 186.644 108.092 186.022 108.092C185.522 108.092 185.088 107.996 184.72 107.803C184.361 107.61 184.08 107.347 183.879 107.014C183.686 106.681 183.59 106.304 183.59 105.884C183.59 105.226 183.822 104.709 184.286 104.332C184.751 103.955 185.417 103.763 186.285 103.754H188.44V104.937H186.639ZM188.23 103.622C188.23 103.237 188.103 102.934 187.849 102.715C187.604 102.496 187.24 102.387 186.758 102.387C186.442 102.387 186.105 102.444 185.746 102.558C185.386 102.663 185.023 102.816 184.654 103.018L184.023 101.703C184.374 101.519 184.716 101.366 185.049 101.243C185.382 101.12 185.724 101.028 186.074 100.967C186.425 100.897 186.806 100.862 187.218 100.862C188.173 100.862 188.909 101.085 189.426 101.532C189.943 101.979 190.206 102.597 190.215 103.386L190.228 108H188.243L188.23 103.622Z" fill="white"/>
    <path d="M214.01 46.5435C214.01 47.2183 214.199 47.7529 214.576 48.1473C214.953 48.5329 215.448 48.7257 216.061 48.7257C216.657 48.7257 217.135 48.5329 217.494 48.1473C217.862 47.7529 218.046 47.2183 218.046 46.5435V41.1274H220.123V46.5435C220.123 47.341 219.957 48.0377 219.624 48.6337C219.299 49.2208 218.831 49.6766 218.217 50.0008C217.612 50.3163 216.889 50.4741 216.048 50.4741C215.207 50.4741 214.475 50.3163 213.853 50.0008C213.239 49.6766 212.766 49.2208 212.433 48.6337C212.1 48.0377 211.933 47.341 211.933 46.5435V41.1274H214.01V46.5435ZM224.276 47.9238C224.276 48.2393 224.338 48.4628 224.46 48.5942C224.583 48.7169 224.75 48.7739 224.96 48.7651C225.091 48.7651 225.236 48.7432 225.394 48.6994C225.552 48.6556 225.722 48.5898 225.906 48.5022L226.327 49.9219C226.064 50.0797 225.775 50.2024 225.46 50.29C225.144 50.3777 224.82 50.4215 224.487 50.4215C224.066 50.4215 223.685 50.3426 223.343 50.1849C223.01 50.0271 222.747 49.7861 222.554 49.4618C222.362 49.1376 222.265 48.7344 222.265 48.2524V41.6269H224.276V47.9238ZM221.279 43.5725H226.196V44.9265H221.279V43.5725ZM230.045 47.2665C229.659 47.2665 229.37 47.3322 229.177 47.4637C228.984 47.5951 228.888 47.8055 228.888 48.0947C228.888 48.3751 228.984 48.5986 229.177 48.7651C229.378 48.9229 229.65 49.0017 229.992 49.0017C230.29 49.0017 230.553 48.9535 230.781 48.8571C231.017 48.752 231.21 48.6161 231.359 48.4496C231.517 48.2743 231.613 48.0728 231.648 47.8449L231.951 48.9754C231.749 49.4487 231.434 49.808 231.004 50.0534C230.575 50.2988 230.049 50.4215 229.427 50.4215C228.927 50.4215 228.493 50.3251 228.125 50.1323C227.766 49.9395 227.485 49.6766 227.284 49.3435C227.091 49.0105 226.995 48.6337 226.995 48.213C226.995 47.5557 227.227 47.0386 227.691 46.6618C228.156 46.2849 228.822 46.0921 229.69 46.0834H231.846V47.2665H230.045ZM231.635 45.9519C231.635 45.5663 231.508 45.2639 231.254 45.0448C231.009 44.8257 230.645 44.7162 230.163 44.7162C229.847 44.7162 229.51 44.7732 229.151 44.8871C228.791 44.9923 228.428 45.1456 228.06 45.3472L227.429 44.0326C227.779 43.8486 228.121 43.6952 228.454 43.5725C228.787 43.4498 229.129 43.3578 229.479 43.2964C229.83 43.2263 230.211 43.1913 230.623 43.1913C231.578 43.1913 232.314 43.4148 232.831 43.8617C233.349 44.3087 233.611 44.9265 233.62 45.7153L233.633 50.3295H231.648L231.635 45.9519ZM239.742 45.0186C239.269 44.9747 238.853 45.0317 238.493 45.1894C238.143 45.3472 237.871 45.5751 237.678 45.873C237.494 46.171 237.402 46.5259 237.402 46.9378L236.89 46.8458C236.89 46.0746 237.004 45.4173 237.231 44.8739C237.468 44.3306 237.801 43.9143 238.231 43.6251C238.66 43.3359 239.164 43.1913 239.742 43.1913V45.0186ZM235.378 43.2702H237.402V50.3295H235.378V43.2702ZM243.113 47.2665C242.728 47.2665 242.439 47.3322 242.246 47.4637C242.053 47.5951 241.957 47.8055 241.957 48.0947C241.957 48.3751 242.053 48.5986 242.246 48.7651C242.447 48.9229 242.719 49.0017 243.061 49.0017C243.359 49.0017 243.622 48.9535 243.85 48.8571C244.086 48.752 244.279 48.6161 244.428 48.4496C244.586 48.2743 244.682 48.0728 244.717 47.8449L245.02 48.9754C244.818 49.4487 244.502 49.808 244.073 50.0534C243.644 50.2988 243.118 50.4215 242.496 50.4215C241.996 50.4215 241.562 50.3251 241.194 50.1323C240.835 49.9395 240.554 49.6766 240.353 49.3435C240.16 49.0105 240.064 48.6337 240.064 48.213C240.064 47.5557 240.296 47.0386 240.76 46.6618C241.225 46.2849 241.891 46.0921 242.758 46.0834H244.914V47.2665H243.113ZM244.704 45.9519C244.704 45.5663 244.577 45.2639 244.323 45.0448C244.077 44.8257 243.714 44.7162 243.232 44.7162C242.916 44.7162 242.579 44.7732 242.219 44.8871C241.86 44.9923 241.496 45.1456 241.128 45.3472L240.497 44.0326C240.848 43.8486 241.19 43.6952 241.523 43.5725C241.856 43.4498 242.198 43.3578 242.548 43.2964C242.899 43.2263 243.28 43.1913 243.692 43.1913C244.647 43.1913 245.383 43.4148 245.9 43.8617C246.417 44.3087 246.68 44.9265 246.689 45.7153L246.702 50.3295H244.717L244.704 45.9519Z" fill="white"/>
    <g clip-path="url(#clip0_1032_4835)">
    <path d="M345.138 84.0724L344.605 83.5978L344.628 83.1145L344.059 82.3737L343.593 80.9932L343.69 79.0861L343.437 77.0401L342.131 74.8146L340.828 73.8394L340.146 73.6715L338.601 73.6426L334.668 74.369L333.73 74.3632L333.091 74.1953L331.825 73.5673L330.593 72.6557L329.155 71.1596L328.044 70.549L327.265 70.6676L326.836 70.8847L326.387 71.3969L325.961 70.6734L325.76 70.4621L324.822 70.0917L324.557 69.9036L323.95 68.7634L323.726 68.5521L323.435 68.4219L322.969 68.6042L322.385 69.5621L321.513 69.9846L321.271 70.1959L321.136 70.9136L320.958 71.1798L320.44 71.339L319.908 72.32L319.571 72.6123L319.082 72.7947H318.857L317.537 72.3721H316.285L315.949 72.2651L315.658 71.9236L315.457 71.4461L315.143 71.3158L315.008 71.42L314.648 71.449L314.406 70.8152L314.159 70.6271L313.67 70.4679L313.512 69.9615L313.759 69.1396L313.802 68.5058L313.601 68.2656L313.158 68.0775L312.956 67.626L312.798 67.545L312.421 67.574L312.197 67.3569L312.062 66.8534V66.0546L311.748 65.7132L311.593 65.6582L311.365 65.4469L311.299 65.0765L311.48 64.8102L311.794 64.706H312.395L313.02 64.9694L313.397 65.0244L313.891 64.9173L313.958 64.57L313.779 64.3067L312.571 63.9883L312.306 63.6179L312.26 63.2186L312.349 62.66L312.663 62.1015L312.887 61.8613L313.336 61.679H313.736L314.225 61.8092L315.12 62.2607H315.48L315.721 62.0494L315.969 61.65L316.547 60.2696L316.818 59.8934L318.227 59.1004L318.446 58.8834L318.581 58.5911L318.558 58.0094L318.294 57.6332L317.911 57.3409L317.781 57.0226L317.825 56.0647L317.937 55.7464L318.138 55.5351L318.34 55.5062L318.564 55.7232L318.97 56.412L319.125 56.493L319.416 56.3859L319.928 55.8042L320.063 55.509L320.132 55.1386V54.9274L319.951 54.4499L320.71 53.8913L320.889 53.6511L320.935 53.463L320.575 52.5051L320.532 52.1058L320.575 51.9234L321.761 50.0308L321.807 49.4723L321.962 48.9658L321.939 48.5433L321.784 48.0918L321.358 47.4262L320.774 45.9908L320.756 45.4033L321.07 44.1792L321.001 43.8088L320.489 43.4326L318.99 42.9811L318.164 42.2634L317.451 41.8872V41.5399L317.715 40.5039L317.738 40.0814L317.56 39.8383L317.134 39.5981L316.82 39.2566L316.642 38.7791L316.573 38.1916L316.423 38.154L316.662 36.4031L316.34 35.451L315.779 35.5321L315.624 35.3034L315.442 35.1674L315.178 35.1443L315.088 35.2253V35.4366L314.93 35.3845L314.729 35.4076V35.1964L315.088 34.2385L315.132 33.5439L315.445 32.2387L315.468 31.4631L315.537 31.304L315.514 30.9856L315.557 30.9567V30.6905L315.649 30.3721L315.626 30.2419L315.828 29.7355V29.4953L315.963 29.4403V28.7226L316.052 28.6415L316.118 28.2422L316.432 27.6547L316.409 27.2785L316.343 27.1483L316.409 27.0933V26.746L316.521 26.5347L316.501 26.2685L316.631 25.9762L316.608 25.8952L316.72 25.8402L316.677 25.5739L316.832 25.2556L316.901 24.8562L317.013 24.6392L317.056 24.2398L317.281 23.8405L317.192 23.7884V23.5713L317.416 23.3832L317.37 23.3311L317.439 23.1141L317.393 22.9839L317.551 22.7437L317.505 22.4774H317.571L317.554 22.1851L317.661 22.1012L317.684 21.4906L317.773 21.3025L317.819 20.4198L317.908 20.2606V19.9683L317.842 19.8844V18.9728L321.43 18.9207L323.964 18.7037L326.816 19.2014L327.095 19.0799L327.558 18.5764L328.487 18.2725L331.465 18.1741L334.564 17.7371L336.155 18.1162L337.507 20.7034L338.264 21.5774L339.478 22.3009L339.944 22.4369L341.987 21.5224L344.194 21.343L344.778 21.0333L346.15 19.705L346.547 19.1609L347.206 18.6719L347.557 18.6342L348.976 18.9757L350.334 18.4606L350.527 18.232L350.633 17.0165L350.814 16.6142L352.345 15.9631L352.745 14.9994L352.909 12.8955L353.412 10.563L353.93 9.65717L354.327 8.58641L354.261 7.41725L353.971 6.10339L354.008 5.35096L354.693 3.77955L355.159 3.38597L355.916 2.38755L356.687 0.680116L356.879 0.477539L357.443 0.943466L359.348 3.67536L359.662 3.77376L359.955 3.48726L360.628 4.12103L361.227 4.26573L361.828 4.10946L362.884 3.54224L363.365 3.48147L364.377 3.61748L364.841 3.88952L364.915 4.1384L364.225 5.74454L363.833 7.2523L363.779 9.35042L363.923 10.6324L364.311 12.308L364.305 12.9563L364.006 14.1254L362.806 17.3464L362.588 19.4503L362.559 21.9478L362.326 21.6758L361.463 21.9391L361.086 22.379L360.254 23.9736L358.934 25.3019L358.962 25.7534L359.892 27.51L360.027 29.7297L359.673 34.6494L359.509 35.4713L359.043 36.5073L359.02 37.0051L359.187 37.4131L359.555 37.6186L360.156 37.3552L360.493 37.9369L361.204 38.7009L362.248 40.7614L362.599 41.673L362.818 43.1982L362.662 44.6451L362.099 46.8098L361.955 50.2941L361.707 51.9755L360.807 53.8711L359.282 55.4309L359.259 55.619L359.843 56.0358L361.382 56.7361L361.609 56.9908L361.653 57.5927L359.385 58.5882L358.862 59.1902L359.011 60.5387L358.102 60.9005L358.14 61.4822L357.944 61.7108L357.233 61.9134L356.071 62.8018L355.964 63.7829L356.218 64.0781L356.1 65.499L356.281 65.9389L356.879 66.2688L357.038 66.8649L356.655 67.7563L356.6 68.6534L357.426 70.3753L357.345 70.5721L356.543 70.5634L356.399 71.4634L356.031 71.4548L355.564 71.1451L355.392 71.2377L355.444 71.8049L355.985 72.6876L355.806 72.9886L354.995 73.1622L354.566 73.767L354.949 74.0593L355.467 74.0449L355.979 75.2227L356.58 75.4658L356.735 75.7233L356.638 76.2124L355.645 78.0096L355.576 78.4929L355.703 78.9241L356.37 79.254L356.534 79.5723L356.333 80.0411L355.941 80.0556L355.671 80.3045L355.867 81.5662L354.923 81.8614L355.156 84.0203L355.015 84.3734L354.414 84.5528L354.33 84.7091L355.101 86.0143L354.442 85.9477L352.575 85.4065L350.204 84.2952L349.197 83.9856L347.367 83.9046L346.165 84.2576L345.146 84.0927L345.138 84.0724Z" fill="#CAAE7C" stroke="#E6F5F1" stroke-width="0.5"/>
    <path d="M298.628 84.0782L298.582 83.9972L298.674 83.7801L298.829 83.7049L298.896 83.4878V83.4357H298.677L298.806 83.2534V83.1174L298.919 82.9061L299.1 82.8251L299.077 82.7441L299.12 82.7209L299.457 81.0772L299.503 80.3074L299.744 79.5665L299.88 78.8488L299.701 78.3742H298.717V78.2382L299.589 78.215L299.655 78.16L299.701 77.9488L299.79 78.0298L299.813 78.2179H300.078L300.101 78.1629H299.946L299.877 78.0877V77.9806L299.966 77.9517L300.012 77.7694V77.6623L299.923 77.6334V77.5581L300.012 77.5292L300.035 77.6102H300.101L300.213 77.5292L300.167 77.4481L300.19 77.1558L300.438 76.7275L300.392 76.5973L300.262 76.6494L300.239 76.279L300.328 76.2269V76.0156L300.418 75.8565L300.372 75.7494L300.53 75.5671V75.379L300.441 75.2979L300.484 74.9825L300.665 74.8465L300.688 74.476L300.907 74.1837L300.688 74.1548L300.665 74.0246H300.777L300.907 73.7323L301.088 72.9336L301.177 72.8033L301.2 72.4618L301.312 72.2448L301.289 71.9033L301.154 71.8744L301.088 71.7933V71.53L301.2 71.1827L301.379 71.0004L301.537 71.0235L301.666 70.7602L301.643 70.6531L301.488 70.63V70.4708L301.376 70.3898L301.64 69.8833L301.574 69.7531L301.597 69.5418L301.733 69.3827L301.911 68.72L302 68.772L302.046 68.665L302 68.4826L302.179 68.1354L302.135 67.9241L301.977 67.7649V67.6058L302.135 67.4466L302.202 67.0762L302.112 67.0241V66.8881L302.248 66.4945L302.377 66.3064L302.311 66.1993L302.377 66.017L302.36 65.5655L302.449 65.3774V65.1372L302.38 65.0851L302.472 64.8189L302.561 63.9681L302.673 63.9391L302.786 63.6758L302.829 62.906L302.964 62.3185L303.119 62.0552L302.99 61.9741L303.102 61.3867L303.079 60.9641L303.28 60.776L303.303 60.669L303.326 59.8181L303.456 58.9413L303.433 58.1483L303.525 57.9602V57.8792L303.433 57.7982V57.6679L303.479 57.6129L303.456 57.4306L303.591 57.3235L303.568 57.1644L303.456 57.0833V56.8721L303.591 56.4727V56.2615L303.839 55.9663V55.8361L304.017 55.6479L304.331 55.6769L304.555 55.3846L304.71 55.0373L304.802 54.638L304.733 54.3978L304.892 54.2097L304.981 53.2286L305.159 52.8003L305.318 50.9424L305.407 50.5951V49.7703L305.45 49.3999L305.542 49.1886L305.648 47.8314L305.559 47.4031H305.671L305.694 47.351L305.761 46.7114L305.743 46.3873L305.631 46.176H305.697L305.743 46.095L305.809 46.176L305.876 46.1471V46.066L305.809 46.0429L305.876 45.8259L305.786 45.7448L305.72 45.5046V44.6538L305.833 44.5236L305.743 44.3644L305.873 44.2052L306.074 44.2573L306.569 43.7798L306.811 43.7248L307.104 43.7538L307.504 43.5425L307.593 43.3834L307.66 43.3284L307.729 43.3573L307.795 43.2502H307.996L308.29 43.3862L308.491 43.7567H308.692L308.805 43.8638L309.205 44.0229L309.446 44.0461V44.1271L309.558 44.2631L310.166 44.2921L310.744 44.1271V44.211L310.479 44.3152L310.433 44.2631L310.255 44.3933H310.166L309.604 44.3413L309.268 44.2342L308.868 43.9419L308.69 43.994L308.802 44.0229L308.845 44.1271L308.934 44.156L308.917 44.2631L309.383 44.5033L309.449 44.6335L309.541 44.6625L309.671 44.8217L309.717 45.0098L309.806 44.9548V44.6914H309.895L309.941 44.9316H310.053L310.096 44.7725L309.984 44.6654V44.5583L310.007 44.5062L310.143 44.5351L310.321 44.7985L310.39 45.3049L310.545 45.357L310.635 45.5741H310.925L311.037 45.493L311.285 45.4641L311.219 45.276L311.308 45.2528L311.662 45.493L311.731 45.9156L312.18 45.7853L312.197 45.7043L312.131 45.5972L311.906 45.5741L311.863 45.3078L311.682 45.3368L311.552 45.2557L311.906 45.1487L312.62 44.6712L312.778 44.6422L312.867 44.4599L313.002 44.431V44.3239L313.158 44.2429V44.1126L313.27 44.0056L313.405 43.7133L313.719 43.4181L314.191 42.7293L314.993 40.8367L315.129 40.7846L315.083 40.5965L315.284 39.9309L315.373 39.8788L315.35 39.7717L315.531 39.2652L315.644 39.1842L315.598 39.08L315.822 38.3045L315.799 38.1974L316 37.1613L316.023 35.9893L315.799 35.5292L316.36 35.4481L316.682 36.4002L316.444 38.1511L316.593 38.1887L316.662 38.7762L316.841 39.2537L317.154 39.5952L317.58 39.8354L317.758 40.0785L317.735 40.501L317.471 41.537V41.8843L318.184 42.2605L319.01 42.9782L320.509 43.4297L321.021 43.8059L321.09 44.1763L320.777 45.4004L320.794 45.9879L321.378 47.4233L321.804 48.0889L321.959 48.5404L321.982 48.9629L321.827 49.4693L321.781 50.0279L320.595 51.9205L320.552 52.1028L320.595 52.5022L320.955 53.4601L320.909 53.6482L320.731 53.8884L319.971 54.447L320.152 54.9245V55.1357L320.083 55.5061L319.948 55.8013L319.436 56.383L319.145 56.4901L318.99 56.4091L318.584 55.7203L318.36 55.5032L318.158 55.5322L317.957 55.7434L317.845 56.0618L317.802 57.0197L317.931 57.338L318.314 57.6303L318.578 58.0065L318.601 58.5882L318.466 58.8805L318.248 59.0975L316.838 59.8905L316.567 60.2667L315.989 61.6471L315.742 62.0465L315.5 62.2577H315.14L314.245 61.8063L313.756 61.6761H313.356L312.907 61.8584L312.683 62.0986L312.369 62.6571L312.28 63.2156L312.326 63.615L312.591 63.9854L313.799 64.3038L313.978 64.5671L313.912 64.9144L313.417 65.0215L313.04 64.9665L312.415 64.7031H311.814L311.501 64.8073L311.319 65.0736L311.385 65.444L311.613 65.6553L311.768 65.7102L312.082 66.0517V66.8505L312.217 67.354L312.441 67.5711L312.818 67.5421L312.977 67.6231L313.178 68.0746L313.621 68.2627L313.822 68.5029L313.779 69.1367L313.532 69.9586L313.69 70.465L314.179 70.6242L314.427 70.8123L314.668 71.4461L315.028 71.4171L315.163 71.3129L315.477 71.4432L315.678 71.9207L315.969 72.2622L316.305 72.3692H317.557L318.878 72.7918H319.102L319.591 72.6094L319.928 72.3171L320.46 71.3361L320.978 71.1769L321.156 70.9107L321.292 70.193L321.533 69.9817L322.405 69.5592L322.989 68.6013L323.455 68.419L323.746 68.5492L323.97 68.7605L324.577 69.9007L324.842 70.0888L325.78 70.4592L325.981 70.6705L326.407 71.394L325.38 72.5631L325.101 73.1448L324.134 74.0825L322.552 75.2429L320.546 76.2703L317.312 77.5002L316.7 77.9662L315.954 79.3755L315.601 80.7038L315.224 83.1492L314.524 85.1027L314.36 86.2892L313.992 86.266L311.751 86.9808H311.173L310.813 86.8998L310.252 86.1589L309.697 85.8406L309.403 85.2589L309.003 84.8075L308.738 84.6194L308.402 84.5152H306.48L305.251 84.2229L304.023 84.1419L303.237 84.246L302.276 84.6165L301.698 84.6454L301.338 84.5644L300.423 84.165L299.687 84.0348L298.645 84.0782H298.628Z" fill="#CAAE7C" stroke="#E6F5F1" stroke-width="0.5"/>
    <path d="M282.919 134.966L283.655 133.111L283.744 132.711L283.992 132.185V132.08L284.081 131.973L284.193 131.394L284.329 131.131L284.346 130.813L284.438 130.79L284.455 130.683L284.524 130.659V130.471L284.567 130.39H284.636V130.26H284.68L284.861 129.945L284.973 129.893L284.99 129.733L285.664 128.735L286.242 127.308L286.803 125.835L287.787 122.417L288.446 122.524L288.823 122.817L289.361 122.921L290.794 122.898L291.484 123.291L292.045 123.372L293.297 123.291L293.97 123.103L294.525 122.577L295.598 121.257L296.136 120.941H296.536L296.985 121.124L297.388 121.81L297.702 121.94L298.15 121.758L298.24 121.598L298.487 121.442L299.022 121.306L299.802 121.387L300.116 121.072L300.139 120.649L300.026 120.334L299.69 119.986L298.798 119.593L298.372 117.006L298.26 116.69L297.946 116.349L297.161 115.819L296.896 115.449L296.83 115.084L296.896 114.555L297.008 114.239L297.031 113.417L297.143 112.679L297.834 111.834L298.372 110.859L298.619 110.248L298.637 109.432L298.412 108.798L298.571 108.295L298.617 107.05L298.481 106.735L297.785 106.365L297.543 105.942L297.118 105.731L296.516 105.201L295.886 104.961L294.168 104.75L293.576 104.732L293.711 104.371V104.24L293.642 104.159L293.665 104.023L293.912 103.448L294.025 103.34L294.002 103.129L294.203 102.759L294.226 102.443L294.468 102.073L294.514 101.702L294.626 101.439L294.58 101.17L294.761 100.988V100.565L294.917 99.8764L295.052 99.6651L295.276 99.0545L295.253 98.739L295.342 98.6088L295.455 98.2384L295.432 98.1574L295.685 97.4946L295.702 97.1011H295.633V97.02L295.791 96.7538L295.837 96.149L296.079 95.6714L296.125 95.4081L296.326 94.9566L296.303 94.6383L296.393 94.6933L296.462 94.6643L296.416 94.2129L296.505 93.7383L296.594 93.6573L296.577 93.4692L296.908 91.9614V91.8543L296.795 91.7733L296.778 91.6431L297.069 91.4839L297.092 91.4029L297.247 90.5057L297.336 90.2655V89.9472L297.471 89.6838L297.848 87.933V87.6176L297.961 87.0359H297.831V86.9809L298.073 86.7465L298.142 86.5873L298.185 86.2169L298.142 85.8986L298.271 85.369L298.116 85.2648L298.228 85.0246L298.317 84.9696L298.496 84.495L298.565 84.466L298.631 84.0725L299.673 84.0291L300.409 84.1593L301.324 84.5587L301.684 84.6397L302.262 84.6107L303.223 84.2403L304.008 84.1361L305.237 84.2172L306.466 84.5095H308.387L308.724 84.6136L308.989 84.8017L309.389 85.2532L309.682 85.8349L310.237 86.1532L310.799 86.8941L311.158 86.9751H311.736L313.978 86.2603L314.346 86.2834L314.179 87.5134L313.618 88.0632L311.526 89.0067L310.988 89.6867L310.134 91.3016L310.045 93.8685L310.422 96.5946L310.157 97.2979L309.475 97.7869L308.37 99.396L306.92 102.707L306.779 103.818L306.817 104.921L307.913 106.573L308.347 107.487L308.957 110.202L309.055 111.423L308.799 112.419L308.146 113.663L308.054 114.419L308.307 115.052L309.147 115.952L310.071 117.723L310.335 118.817L310.148 120.221L309.504 121.633L309.524 122.273L309.679 122.785L309.325 123.077L309.676 124.015L308.574 126.379L308.77 128.529L310.002 130.199L311.84 131.672L312.228 133.195L311.518 135.411L307.498 136.135L307.429 136.242L305.361 136.152L304.115 135.996L303.393 136.077L302.8 136.543L302.078 138.635L301.223 139.173L298.657 139.717L297.342 140.183L295.699 141.807L295.345 142.727H295.164L294.917 142.91L294.404 143.488L293.596 144.62L293.17 145.071L292.928 145.254L292.411 145.384L292.146 145.202L291.697 144.568L291.119 142.75L290.917 142.305L290.558 141.778L290.109 141.384L288.728 140.594L288.546 140.565L288.034 141.141L287.787 141.329L287.456 141.382L286.696 141.274L286.314 141.355L286.383 141.619L287.007 141.882L287.163 142.386L287.611 142.808L287.634 143.014L287.433 143.254L287.232 143.277L286.719 143.147L286.561 143.202L286.538 143.807L286.314 144.041L285.577 144.171L285.376 144.142L284.887 143.749L284.398 143.619L283.503 143.566L283.126 143.274L283.014 142.959V142.724L283.192 142.461L283.569 142.198L284.176 141.934L284.4 141.723L284.556 141.431L284.49 141.06L284.199 140.693L283.368 140.247L283.166 139.772V139.402L283.391 138.98L283.681 138.823L283.883 138.794L284.691 139.087L285.045 139.139L285.471 139.116L285.695 138.927L285.678 137.903L285.879 137.24L285.721 136.531L285.767 136.349L286.391 135.686L286.458 135.345L286.302 135.081L286.009 134.925L285.229 135.212L284.668 135.16L284.179 134.555L283.779 134.607L283.555 134.818L283.241 134.948H282.939L282.919 134.966Z" fill="#CAAE7C" stroke="#E6F5F1" stroke-width="0.5"/>
    <path d="M287.793 122.417L287.971 121.717L288.149 121.3L288.218 120.69L288.397 120.455L288.285 120.374L288.443 119.845L288.572 119.633V119.477L288.664 119.266L288.777 119.136L288.843 118.554L289.107 118.343V118.102L289.018 118.027L289.266 117.787H289.421L289.622 117.628L289.87 117.234L290.028 116.731L290.14 116.572L290.158 116.337L290.114 116.282L290.25 116.23L290.158 116.1L290.227 116.019L290.181 115.996L290.227 115.808L290.563 115.017L290.581 114.777L290.678 114.725L290.739 114.566L290.627 114.248V113.984L290.805 113.854L290.894 113.883L291.029 113.461L291.231 113.061L291.119 112.85L291.142 112.694H291.208L291.254 112.824H291.343L291.59 112.06L291.746 111.267L291.947 111.001L292.016 110.818L291.993 110.714L292.059 110.659L292.284 109.791V109.392L292.554 108.706L292.508 108.413L292.756 108.283L292.733 108.072L292.574 107.965L292.621 107.36L292.71 107.279L292.845 107.331L292.888 107.25L293.205 106.194L293.423 105.007L293.581 104.735L294.174 104.753L295.892 104.964L296.522 105.204L297.123 105.734L297.549 105.945L297.791 106.367L298.487 106.738L298.622 107.053L298.576 108.298L298.418 108.801L298.642 109.435L298.625 110.251L298.378 110.862L297.84 111.837L297.149 112.682L297.037 113.42L297.014 114.242L296.902 114.557L296.836 115.087L296.902 115.452L297.166 115.822L297.952 116.352L298.266 116.693L298.378 117.009L298.804 119.596L299.695 119.989L300.032 120.337L300.144 120.652L300.121 121.075L299.808 121.39L299.028 121.309L298.493 121.445L298.245 121.601L298.156 121.76L297.707 121.943L297.394 121.812L296.991 121.127L296.542 120.944H296.142L295.604 121.26L294.531 122.579L293.976 123.106L293.302 123.294L292.051 123.375L291.49 123.294L290.799 122.901L289.366 122.924L288.828 122.82L288.451 122.527L287.793 122.42V122.417Z" fill="#CAAE7C" stroke="#E6F5F1" stroke-width="0.5"/>
    <path d="M347.658 173.169L347.626 177.999L347.341 179.894L346.015 183.697L342.971 189.193L342.042 191.088L341.179 192.622L340.764 194.517L341.682 196.526L345.27 201.385L345.909 202.765L346.309 204.727L346.392 206.197L345.845 208.605L345.35 210.327L342.272 215.102L341.944 217.018L342.134 218.549L342.793 220.381L342.787 222.314L341.391 223.605L338.368 225.598L336.221 230.368L336.192 232.066L336.598 233.612L336.187 235.505L334.647 236.063L333.448 237.522L332.737 239.475L332.728 243.295L331.595 245.957L329.621 249.581L329.195 251.661L328.001 252.779L325.625 257.389L325.432 258.928L323.611 267.416L323.055 269.086L321.945 270.692L321.628 271.954L324.41 277.215L324.836 278.671L324.58 279.782L322.793 281.773L322.281 283.379L322.557 285.237L321.027 288.655L323.547 299.869L317.321 308.855L315.647 315.548L315.9 322.815L313.529 327.584L313.169 329.33L313.402 330.713L313.169 332.585L311.797 338.327V341.452L312.013 343.406L312.03 345.214L310.974 346.514L309.535 347.576L308.313 349.003L307.449 350.745L306.664 352.962L306.506 352.909L306.169 352.933L305.968 352.727H305.789L305.723 352.985L305.631 353.014L305.588 353.268L305.476 353.399L305.453 353.526H305.251L305.208 353.653L305.004 353.734L304.915 353.914L304.848 354.299L304.647 354.637H304.469V354.712L304.221 354.993L303.931 355.173L303.862 355.43L303.548 355.74V356.125L303.347 356.252L303.056 356.666L302.898 356.793V357.028L302.544 357.436L302.207 357.592L300.176 355.228L299.117 353.213L298.734 351.665L298.412 348.965L299.169 346.439L299.546 343.909L299.183 342.167L297.742 339.638L297.797 335.172L289.568 311.943L289.732 310.539L287.128 303.295L280.197 283.585L278.56 277.389L272.946 273.693L272.742 270.825L274.408 266.102L270.918 261.984L271.151 256.882L268.823 247.138L261.74 232.168L257.148 218.644L250.51 196.488L254.132 193.756L257.712 190.648L258.598 189.01L258.581 186.472L258.379 183.755L259.084 181.39L261.763 177.926L269.836 170.058L272.178 169.493L272.892 168.22L272.883 166.403L271.787 164.773L268.291 161.489L270.233 158.311L270.57 158.1L270.728 157.865L270.705 157.813L270.57 157.784L270.593 157.55L270.524 157.521V157.446L270.794 157.127V157.235L270.593 157.469L270.817 157.521L270.86 157.602L270.929 157.579L272.158 155.527L272.316 154.974L272.607 154.769L273.056 154.187L273.234 153.823L273.211 153.692L273.458 153.377L273.588 153.035L273.7 152.954L273.746 153.061H273.835L275.199 150.616L275.447 150.275L276.071 149.013L276.425 148.567L276.606 148.04L277.498 146.486L278.307 144.75L278.706 144.07L279.106 143.095L279.242 142.86L279.308 142.831L279.285 142.75L279.509 142.334L279.734 141.7L280.024 141.173L280.361 140.383L280.119 140.12L279.984 139.668L280.007 139.301L280.226 138.748H280.295V138.93L280.205 138.985L280.07 139.301V139.746L280.361 140.25H280.542L280.585 140.12L280.361 139.989V139.908L280.45 139.856L280.433 139.593L280.499 139.512L280.522 139.301V139.22L280.433 139.168V139.06H280.634L280.723 139.168H281.235L281.282 139.037L281.46 138.855L281.503 138.748L281.391 138.696L281.374 138.566L281.391 137.88L281.46 137.828L281.483 137.932H281.549V137.88L281.727 137.776L282.395 136.085L282.913 134.968H283.215L283.529 134.838L283.753 134.627L284.153 134.575L284.642 135.18L285.203 135.232L285.983 134.945L286.276 135.102L286.432 135.365L286.366 135.706L285.741 136.369L285.695 136.551L285.853 137.26L285.652 137.923L285.669 138.948L285.445 139.136L285.019 139.159L284.665 139.107L283.857 138.814L283.655 138.843L283.365 139L283.14 139.422V139.793L283.342 140.267L284.173 140.713L284.464 141.08L284.53 141.451L284.374 141.743L284.15 141.954L283.543 142.218L283.166 142.481L282.988 142.744V142.979L283.1 143.294L283.477 143.587L284.372 143.639L284.861 143.769L285.35 144.163L285.551 144.191L286.288 144.061L286.512 143.827L286.535 143.222L286.694 143.167L287.206 143.297L287.407 143.274L287.608 143.034L287.585 142.828L287.137 142.406L286.981 141.902L286.357 141.639L286.288 141.376L286.67 141.295L287.43 141.402L287.761 141.35L288.008 141.161L288.521 140.586L288.702 140.615L290.083 141.405L290.532 141.798L290.891 142.325L291.093 142.771L291.671 144.588L292.12 145.222L292.385 145.404L292.902 145.274L293.144 145.091L293.57 144.64L294.378 143.508L294.891 142.93L295.138 142.747H295.446L295.895 143.193L296.407 143.957L296.743 144.718L297.103 145.902L297.282 146.142L297.552 146.298L298.265 146.142L298.665 146.194L298.956 146.298L299.356 146.802V147.143L298.93 148.035L298.976 148.376L299.336 149.348L299.379 149.742L299.336 150.347L299.111 150.793L299.042 151.163L299.155 152.581L299.088 153.345L299.29 154.002V154.653L299.155 155.391L299.356 155.866L300.587 156.575L301.75 157.365L302.843 157.97L303.203 158.285L303.652 158.913L304.903 159.228L305.168 159.359L306.917 160.725L305.671 162.594L304.961 166.148L305.312 169.997L305.012 171.641L303.401 174.714L301.617 177.029L300.055 180.189L300.274 182.068L301.174 183.538L302.466 184.611L304.463 185.15L308.117 184.666L311.486 183.821L314.778 184.099L319.416 184.4L321.113 183.512L322.229 183.769L323.97 183.468L325.478 183.338L327.408 182.97L328.588 182.256L330.936 179.839L332.938 177.573L335.542 176.41L338.215 174.448L341.058 171.921L342.327 171.47L347.641 171.551L347.632 173.183L347.658 173.169Z" fill="#CAAE7C" stroke="#E6F5F1" stroke-width="0.5"/>
    <path d="M327.026 147.945L326.914 148.124L322.857 148.229L319.43 149.641L315.226 153.823L311.454 155.643L310.119 156.818L307.665 159.483L306.932 160.713L305.182 159.347L304.918 159.217L303.666 158.902L303.217 158.274L302.857 157.958L301.764 157.353L300.602 156.563L299.37 155.854L299.169 155.38L299.304 154.642V153.99L299.103 153.334L299.169 152.57L299.057 151.151L299.126 150.781L299.35 150.335L299.393 149.731L299.35 149.337L298.991 148.365L298.945 148.023L299.37 147.132V146.79L298.97 146.287L298.68 146.183L298.28 146.13L297.566 146.287L297.296 146.13L297.118 145.89L296.758 144.707L296.421 143.946L295.909 143.182L295.46 142.736H295.334L295.688 141.816L297.33 140.192L298.645 139.726L301.212 139.182L302.066 138.644L302.788 136.551L303.381 136.086L304.103 136.005L305.349 136.161L307.418 136.251L306.5 137.616L307.173 140.157L308.727 140.829L310.948 141.147L312.997 140.409L314.51 138.757L316.041 137.845L317.813 139.492L319.427 140.27L322.903 141.68L326.632 141.662L328.096 143.202L327.857 146.628L327.017 147.948L327.026 147.945Z" fill="#CAAE7C" stroke="#E6F5F1" stroke-width="0.5"/>
    <path d="M272.9 166.4L272.909 168.217L272.195 169.493L269.868 170.052L262.425 177.298L261.78 177.923L259.096 181.393L258.779 182.455L258.391 183.761L258.592 186.478L258.609 189.016L257.723 190.654L254.751 193.235L254.138 193.765L250.516 196.497L247.388 186.053L247.567 185.917L249.955 183.564L252.703 180.603L253.574 179.819L254.311 179.139L255.81 177.567L256.995 176.257L258.894 173.953L259.366 173.296L259.99 172.564L261.754 170.596L265.417 165.841L267.434 162.912L268.303 161.503L271.801 164.77L272.895 166.4H272.9ZM355.613 102.409L355.389 101.653L355.308 100.128L354.995 98.7679L355.285 96.6611L354.736 95.2865L354.756 94.6093L355.147 93.5009L354.517 91.8021L354.578 91.0381L354.834 90.3725L355.061 88.9458L354.865 88.3873L354.273 87.6464L354.428 85.939L352.561 85.3978L350.19 84.2865L349.177 83.9769L347.347 83.8959L346.145 84.2489L345.126 84.084L344.594 83.6094L344.617 83.1261L344.044 82.3852L343.578 81.0048L343.676 79.0977L343.423 77.0516L342.117 74.8262L340.813 73.8509L340.131 73.6831L338.583 73.6599L334.65 74.3863L333.712 74.3805L333.074 74.2127L331.808 73.5847L330.57 72.6731L329.138 71.1769L328.021 70.5663L327.242 70.6878L326.816 70.9049L325.337 72.5863L325.058 73.168L324.097 74.1056L322.511 75.2661L320.509 76.2934L317.275 77.5234L316.662 77.9893L316.182 78.8951L315.917 79.4015L315.563 80.7299L315.189 83.1753L314.49 85.1287L314.159 87.5451L313.595 88.095L311.503 89.0384L310.965 89.7185L310.111 91.3333L310.022 93.9003L310.399 96.6264L310.134 97.3354L309.967 97.4569L309.458 97.8245L308.353 99.4335L306.897 102.744L306.762 103.855L306.799 104.958L307.895 106.611L308.33 107.525L308.943 110.24L309.041 111.461L308.784 112.456L308.131 113.701L308.085 114.08L308.039 114.456L308.292 115.084L309.133 115.984L309.245 116.195L310.056 117.752L310.321 118.846L310.134 120.244L309.487 121.656L309.507 122.296L309.662 122.808L309.308 123.1L309.662 124.038L308.56 126.408L308.756 128.558L309.987 130.228L311.826 131.701L312.214 133.223L311.501 135.44L307.487 136.164L306.494 137.642L307.168 140.18L308.721 140.852L310.942 141.176L312.991 140.435L314.504 138.783L315.601 138.132L316.038 137.874L317.807 139.521L319.427 140.299L322.9 141.708L326.634 141.691L328.099 143.231L327.857 146.657L327.017 147.977L326.905 148.15L322.851 148.257L319.421 149.667L315.946 153.125L315.218 153.849L311.446 155.669L310.111 156.844L307.657 159.509L306.923 160.739L305.677 162.609L304.966 166.157L305.317 170.006L305.018 171.649L303.407 174.723L301.623 177.038L300.061 180.198L300.28 182.076L301.186 183.546L302.475 184.62L304.472 185.155L308.12 184.672L311.495 183.827L314.781 184.105L319.419 184.406L321.116 183.517L322.232 183.775L323.973 183.474L325.475 183.347L327.411 182.982L328.591 182.267L330.939 179.851L332.941 177.585L335.545 176.421L338.215 174.459L338.995 173.771L341.064 171.936L342.332 171.484L347.649 171.56L347.704 167.644L347.868 163.425L349.566 157.562L351.312 152.037L352.054 149.684L352.146 149.516L354.091 146.006L353.099 140.473L353.735 138.676L352.9 137.327L353.686 135.77L352.285 134.873L351.499 130.879L352.949 129.47L353.458 126.081L352.115 123.106L352.866 122.006L352.736 121.358L351.853 120.334L351.675 116.242L351.902 115.781L352.336 114.908L352.598 113.223L353.732 111.678L354.04 110.622L354.267 108.086L354.785 105.711L355.481 104.33L355.677 103.517L355.622 102.417L355.613 102.409Z" fill="#CAAE7C" stroke="#E6F5F1" stroke-width="0.5"/>
    <path d="M272.9 166.4L272.909 168.217L272.195 169.493L269.868 170.052L262.425 177.298L261.78 177.923L259.096 181.393L258.779 182.455L258.391 183.761L258.592 186.478L258.609 189.016L257.723 190.654L254.751 193.235L254.138 193.765L250.516 196.497L247.388 186.053L247.567 185.917L249.955 183.564L252.703 180.603L253.574 179.819L254.311 179.139L255.81 177.568L256.995 176.257L258.894 173.953L259.366 173.296L259.99 172.564L261.754 170.596L265.417 165.841L267.434 162.913L268.303 161.503L271.801 164.77L272.895 166.4H272.9Z" fill="#00543E" stroke="#E6F5F1" stroke-width="0.5"/>
    </g>
    <defs>
    <linearGradient id="paint0_linear_1032_4835" x1="269.5" y1="184" x2="207" y2="144" gradientUnits="userSpaceOnUse">
    <stop stop-color="#00543E"/>
    <stop offset="1" stop-color="#009971" stop-opacity="0"/>
    </linearGradient>
    <clipPath id="clip0_1032_4835">
    <rect width="118.275" height="358" fill="white" transform="translate(247)"/>
    </clipPath>
    </defs>
    </svg>
    