<svg width="366" height="358" viewBox="0 0 366 358" fill="none" xmlns="http://www.w3.org/2000/svg">
    <path d="M261 49L271.5 163L256.5 191L34 353.5L71 235L152.5 117L261 49Z"
        fill="url(#paint0_linear_1032_4835)" />
    <path
        d="M222.754 82.1048L215.51 77.081L211.888 75.8878L206.811 75.2159L204.694 73.8823L202.517 70.2323L201.824 65.2888L200.71 62.1602L198.132 58.5002L188.59 48.1518L186.021 44.3815L206.69 14.5499L215.47 0.391098L251.249 33.6622L262.467 50.2175L262.557 68.668L255.293 81.5332L231.513 87.1987L222.754 82.1048Z"
        fill="#009971" />
    <path
        d="M215.52 0.78214L251.029 33.8126L262.206 50.3077L262.296 68.6078L255.112 81.3226L231.533 86.938L222.895 81.9243L215.64 76.8805L215.58 76.8404L215.51 76.8203L211.958 75.6671H211.918L211.868 75.6471L206.881 74.9853L204.864 73.7118L202.767 70.2022L202.065 65.2586V65.2085L202.045 65.1584L200.941 62.0799L200.921 62.0198L200.881 61.9596L198.333 58.3598L198.312 58.3297L198.292 58.3096L188.801 48.0114L186.322 44.3915L206.901 14.6802L215.52 0.792177M215.42 0L206.48 14.4094L185.72 44.3815L188.409 48.3223L197.921 58.6505L200.47 62.2504L201.573 65.3288L202.296 70.3726L204.503 74.0728L206.711 75.4666L211.808 76.1384L215.359 77.2916L222.614 82.3354L231.453 87.4795L255.433 81.7638L262.788 68.7482L262.688 50.1573L251.39 33.4917L215.39 0.0100219L215.42 0Z"
        fill="white" />
    <path
        d="M154.486 149.71L151.165 137.115L148.356 132.763L145.546 131.38L133.255 127.81L118.997 127.198L123.533 120.851L129.964 113.33L148.175 93.2051L185.7 44.8026L188.199 48.4626L197.741 58.811L200.269 62.3908L201.343 65.409L202.045 70.4027L204.323 74.2432L206.63 75.6972L211.777 76.3791L215.289 77.5222L222.483 82.5359L231.062 87.5196L155.038 161.061L154.486 149.71Z"
        fill="#183938" />
    <path
        d="M185.69 45.2338L187.998 48.603L188.018 48.6331L188.038 48.6632L197.53 58.9714L200.018 62.4911L201.082 65.4492L201.794 70.4428V70.5431L201.864 70.6334L204.072 74.3335L204.132 74.4338L204.232 74.4939L206.44 75.8877L206.53 75.9479H206.64L211.687 76.6298L215.129 77.7428L222.363 82.7666L230.63 87.5697L155.239 160.499L154.717 149.69V149.64L154.697 149.59L151.376 137.055L151.356 136.975L151.315 136.905L148.576 132.673L148.496 132.553L148.376 132.493L145.636 131.149L145.596 131.129H145.556L133.295 127.559L133.235 127.539H133.175L119.439 126.948L123.683 121.011L130.115 113.481L148.356 93.3255L185.66 45.2138M185.72 44.3815L147.994 93.0447L129.773 113.17L123.332 120.71L118.526 127.439L133.185 128.061L145.446 131.61L148.185 132.954L150.924 137.186L154.245 149.72L154.817 161.632L231.473 87.4695L222.634 82.3254L215.379 77.2816L211.828 76.1284L206.731 75.4566L204.523 74.0628L202.316 70.3626L201.593 65.3188L200.49 62.2404L197.941 58.6405L188.429 48.3123L185.74 44.3715L185.72 44.3815Z"
        fill="white" />
    <path
        d="M109.867 212.873L107.74 211.569L100.726 204.54L98.9104 203.357L71.9403 193.58L66.9336 190.662L64.0841 187.493L71.4988 180.695L86.9304 164.591L99.1512 151.184L118.636 127.69L133.175 128.301L145.366 131.851L148.004 133.144L150.703 137.316L153.994 149.78L154.556 161.532L148.004 167.839L120.392 203.317L117.141 214.046L109.867 212.873Z"
        fill="#2B6766" />
    <path
        d="M118.747 127.94L133.095 128.552L145.255 132.082L147.834 133.345L150.453 137.386L153.734 149.79L154.295 161.422L147.824 167.649L147.794 167.669L147.774 167.699L120.181 203.146L120.121 203.216L120.091 203.307L116.951 213.745L109.987 212.632L107.91 211.369L100.887 204.349L100.847 204.309L100.807 204.279L99.0308 203.126L98.9806 203.096L98.9305 203.076L72.0607 193.339L67.1242 190.471L64.4352 187.493L71.6895 180.845L87.131 164.741L99.3519 151.324L118.757 127.93M118.526 127.429L98.9606 151.013L86.7498 164.41L71.3182 180.504L63.7228 187.473L66.8031 190.883L71.85 193.811L98.7699 203.557L100.546 204.71L107.609 211.77L109.817 213.113L117.312 214.317L120.583 203.457L148.175 168.01L154.807 161.622L154.235 149.71L150.914 137.176L148.175 132.944L145.436 131.6L133.175 128.051L118.516 127.429H118.526Z"
        fill="white" />
    <path
        d="M71.1276 313.177L66.6226 292.711L65.4085 289.503L63.8734 287.607L60.9436 285.592L44.5187 277.55L31.9467 270.21L7.64553 252.261L2.26756 249.794L26.659 225.989L54.9736 195.716L63.7128 187.824L66.6226 191.053L71.7296 194.031L98.6796 203.798L100.415 204.931L107.439 211.96L109.696 213.334L117.001 214.527L113.088 227.603L115.145 255.509L115.345 281.41L106.235 298.116L75.9336 324.248L71.1276 313.177Z"
        fill="#00543E" />
    <path
        d="M63.6927 188.185L66.4319 191.224L66.4821 191.284L66.5523 191.324L71.5992 194.252L71.6393 194.272L71.6794 194.292L98.5392 204.019L100.225 205.111L107.248 212.131L107.288 212.171L107.339 212.201L109.546 213.545L109.626 213.595L109.727 213.615L116.66 214.728L112.837 227.533L112.807 227.623V227.713L114.884 255.489L115.074 281.35L106.044 297.916L76.0139 323.826L71.3584 313.107L66.8533 292.641V292.601L66.8332 292.571L65.6292 289.402L65.5991 289.322L65.549 289.262L64.064 287.437L64.0138 287.377L63.9536 287.337L61.074 285.371L61.0439 285.351L61.0138 285.331L44.6592 277.329L32.0872 269.989L7.78598 252.04L7.74585 252.01L7.69568 251.99L2.68895 249.704L26.8396 226.129L55.1141 195.896L63.6827 188.165M63.7329 187.473L54.793 195.545L26.4885 225.808L1.83611 249.874L7.50504 252.471L31.8263 270.44L44.4184 277.79L60.8031 285.812L63.6827 287.778L65.1677 289.603L66.3717 292.771L70.8868 313.278L75.8333 324.659L106.446 298.236L115.576 281.471L115.385 255.479L113.319 227.663L117.312 214.307L109.817 213.103L107.609 211.76L100.546 204.7L98.7699 203.547L71.85 193.801L66.8031 190.873L63.7228 187.463L63.7329 187.473Z"
        fill="white" />
    <path
        d="M0.290909 251.358L1.85614 250.165L7.39464 252.692L31.6657 270.631L44.2879 277.991L60.6927 286.023L63.5422 287.978L64.977 289.753L66.1409 292.852L70.6459 313.328L75.5423 324.589L69.4319 329.853L32.4383 357.579L0.290909 251.358Z"
        fill="#009971" />
    <path
        d="M1.89632 250.446L7.24418 252.892L31.5253 270.821L31.5454 270.841H31.5654L44.1876 278.222L60.5422 286.224L63.3316 288.129L64.7262 289.833L65.8901 292.892L70.3951 313.368V313.418L70.4252 313.458L75.2313 324.508L69.2915 329.622L32.5688 357.148L0.581929 251.448L1.89632 250.446ZM1.82609 249.874L-1.52588e-05 251.268L32.2979 358L69.5925 330.043L75.8433 324.659L70.8968 313.278L66.3817 292.771L65.1777 289.603L63.6928 287.778L60.8131 285.812L44.4284 277.79L31.8363 270.44L7.51509 252.471L1.84615 249.874H1.82609Z"
        fill="white" />
    <path
        d="M53.4762 249.982C52.8014 249.982 52.2405 249.863 51.7935 249.627C51.3466 249.39 51.0092 249.04 50.7813 248.575C50.5534 248.111 50.4395 247.541 50.4395 246.866H52.201C52.201 247.155 52.2317 247.383 52.2931 247.55C52.3632 247.708 52.4859 247.817 52.6611 247.878C52.8452 247.931 53.1169 247.957 53.4762 247.957H53.9757V249.982H53.4762ZM39.8308 252.992C39.0771 252.992 38.4111 252.861 37.8326 252.598C37.263 252.335 36.7854 251.967 36.3997 251.494C36.0141 251.029 35.7249 250.49 35.5321 249.877C35.3393 249.254 35.2429 248.584 35.2429 247.865C35.2429 247.515 35.2692 247.16 35.3218 246.8C35.3744 246.432 35.4401 246.082 35.519 245.749L37.2016 246.064C37.1403 246.38 37.0877 246.687 37.0439 246.985C37.0088 247.274 36.9913 247.567 36.9913 247.865C36.9913 248.523 37.0965 249.083 37.3068 249.548C37.5259 250.012 37.8458 250.363 38.2665 250.6C38.6871 250.845 39.2086 250.968 39.8308 250.968C40.4618 250.968 40.992 250.845 41.4215 250.6C41.8597 250.363 42.1927 250.012 42.4205 249.548C42.6484 249.083 42.7623 248.518 42.7623 247.852V244.684H44.5239V247.852C44.5239 248.571 44.4187 249.241 44.2084 249.863C44.0068 250.486 43.7045 251.029 43.3013 251.494C42.9069 251.967 42.4205 252.335 41.8421 252.598C41.2637 252.861 40.5933 252.992 39.8308 252.992ZM45.8779 249.982C45.5098 249.982 45.1549 249.907 44.8131 249.758C44.4713 249.601 44.1733 249.355 43.9192 249.022C43.665 248.689 43.4985 248.268 43.4196 247.76L44.4713 247.155C44.5239 247.445 44.6553 247.664 44.8657 247.813C45.0848 247.962 45.317 248.036 45.5624 248.036C45.8428 248.036 46.0926 247.94 46.3117 247.747C46.5396 247.554 46.6535 247.261 46.6535 246.866V244.04H48.415V247.077C48.415 247.734 48.288 248.277 48.0338 248.707C47.7884 249.136 47.4729 249.456 47.0873 249.666C46.7105 249.877 46.3073 249.982 45.8779 249.982ZM49.7559 249.982C49.3878 249.982 49.0329 249.907 48.6911 249.758C48.3493 249.601 48.0513 249.355 47.7972 249.022C47.543 248.689 47.3765 248.268 47.2976 247.76L48.3493 247.155C48.4019 247.445 48.5334 247.664 48.7437 247.813C48.9628 247.962 49.195 248.036 49.4404 248.036C49.7209 248.036 49.9706 247.94 50.1897 247.747C50.4176 247.554 50.5315 247.261 50.5315 246.866V243.396H52.2931V247.077C52.2931 247.734 52.166 248.277 51.9118 248.707C51.6664 249.136 51.3509 249.456 50.9653 249.666C50.5885 249.877 50.1853 249.982 49.7559 249.982ZM53.9757 249.982V247.957C54.0634 247.957 54.1291 248.049 54.1729 248.233C54.2167 248.417 54.2386 248.658 54.2386 248.956C54.2386 249.263 54.2167 249.513 54.1729 249.706C54.1291 249.89 54.0634 249.982 53.9757 249.982ZM55.9061 243.396H57.6545V249.982H53.9737V247.957H55.9061V243.396ZM53.9737 249.982C53.886 249.982 53.8203 249.89 53.7765 249.706C53.7327 249.522 53.7108 249.272 53.7108 248.956C53.7108 248.65 53.7327 248.409 53.7765 248.233C53.8203 248.049 53.886 247.957 53.9737 247.957V249.982ZM56.7869 241.779C56.4889 241.779 56.2391 241.678 56.0376 241.476C55.836 241.275 55.7352 241.025 55.7352 240.727C55.7352 240.42 55.836 240.171 56.0376 239.978C56.2391 239.776 56.4889 239.675 56.7869 239.675C57.0936 239.675 57.3434 239.776 57.5362 239.978C57.7378 240.171 57.8385 240.42 57.8385 240.727C57.8385 241.025 57.7378 241.275 57.5362 241.476C57.3434 241.678 57.0936 241.779 56.7869 241.779ZM64.9594 249.982V247.957H66.905V249.982H64.9594ZM66.905 249.982V247.957C66.9926 247.957 67.0583 248.049 67.1022 248.233C67.146 248.417 67.1679 248.658 67.1679 248.956C67.1679 249.263 67.146 249.513 67.1022 249.706C67.0583 249.89 66.9926 249.982 66.905 249.982ZM59.609 253.623V251.599H62.041C62.6194 251.599 63.0226 251.498 63.2504 251.296C63.487 251.095 63.6054 250.788 63.6054 250.376V243.737H65.3669V250.376C65.3669 251.06 65.2311 251.643 64.9594 252.125C64.6877 252.615 64.3021 252.988 63.8025 253.242C63.303 253.496 62.7158 253.623 62.041 253.623H59.609ZM62.6589 249.982C61.9315 249.982 61.2961 249.828 60.7527 249.522C60.2181 249.215 59.8018 248.803 59.5039 248.286C59.2059 247.76 59.0569 247.186 59.0569 246.564C59.0569 246.056 59.1489 245.587 59.333 245.157C59.517 244.728 59.7755 244.355 60.1086 244.04C60.4504 243.724 60.8404 243.479 61.2785 243.304C61.7167 243.12 62.1856 243.028 62.6852 243.028C63.1759 243.028 63.6536 243.102 64.118 243.251C64.5825 243.4 64.9988 243.562 65.3669 243.737L64.6307 245.538C63.9033 245.144 63.2548 244.947 62.6852 244.947C62.3171 244.947 61.9928 245.021 61.7124 245.17C61.4319 245.319 61.2084 245.517 61.0419 245.762C60.8842 245.999 60.8053 246.266 60.8053 246.564C60.8053 246.836 60.8798 247.09 61.0288 247.326C61.1778 247.554 61.3881 247.734 61.6598 247.865C61.9402 247.997 62.2732 248.062 62.6589 248.062H64.6702V249.982H62.6589ZM68.8337 243.396H70.5821V249.982H66.9013V247.957H68.8337V243.396ZM66.9013 249.982C66.8136 249.982 66.7479 249.89 66.7041 249.706C66.6603 249.522 66.6383 249.272 66.6383 248.956C66.6383 248.65 66.6603 248.409 66.7041 248.233C66.7479 248.049 66.8136 247.957 66.9013 247.957V249.982ZM70.1088 253.163C69.8547 253.163 69.64 253.08 69.4647 252.913C69.2982 252.747 69.2149 252.536 69.2149 252.282C69.2149 252.019 69.2982 251.805 69.4647 251.638C69.64 251.472 69.8547 251.388 70.1088 251.388C70.363 251.388 70.5733 251.472 70.7398 251.638C70.9151 251.805 71.0028 252.019 71.0028 252.282C71.0028 252.536 70.9151 252.747 70.7398 252.913C70.5733 253.08 70.363 253.163 70.1088 253.163ZM68.0581 253.163C67.8039 253.163 67.5892 253.08 67.414 252.913C67.2474 252.747 67.1642 252.536 67.1642 252.282C67.1642 252.019 67.2474 251.805 67.414 251.638C67.5892 251.472 67.8039 251.388 68.0581 251.388C68.3123 251.388 68.5226 251.472 68.6891 251.638C68.8644 251.805 68.952 252.019 68.952 252.282C68.952 252.536 68.8644 252.747 68.6891 252.913C68.5226 253.08 68.3123 253.163 68.0581 253.163ZM80.1156 253.584C79.3619 253.584 78.6959 253.452 78.1174 253.189C77.5478 252.926 77.0702 252.563 76.6845 252.098C76.2989 251.634 76.0097 251.09 75.8169 250.468C75.6241 249.855 75.5277 249.189 75.5277 248.47C75.5277 248.111 75.554 247.751 75.6066 247.392C75.6592 247.033 75.7249 246.682 75.8038 246.34L77.4864 246.656C77.4251 246.971 77.3725 247.278 77.3287 247.576C77.2936 247.874 77.2761 248.172 77.2761 248.47C77.2761 249.127 77.3813 249.688 77.5916 250.153C77.8107 250.617 78.1306 250.968 78.5512 251.204C78.9719 251.45 79.4934 251.572 80.1156 251.572C80.7466 251.572 81.2768 251.45 81.7062 251.204C82.1444 250.968 82.4775 250.613 82.7053 250.14C82.9332 249.675 83.0471 249.11 83.0471 248.444V243.396H84.8087V248.444C84.8087 249.171 84.7035 249.846 84.4932 250.468C84.2916 251.09 83.9892 251.634 83.5861 252.098C83.1917 252.563 82.7053 252.926 82.1269 253.189C81.5485 253.452 80.8781 253.584 80.1156 253.584ZM80.1682 243.475C79.8702 243.475 79.6204 243.374 79.4189 243.172C79.2173 242.971 79.1165 242.721 79.1165 242.423C79.1165 242.116 79.2173 241.866 79.4189 241.674C79.6204 241.472 79.8702 241.371 80.1682 241.371C80.4749 241.371 80.7247 241.472 80.9175 241.674C81.1191 241.866 81.2199 242.116 81.2199 242.423C81.2199 242.721 81.1191 242.971 80.9175 243.172C80.7247 243.374 80.4749 243.475 80.1682 243.475ZM88.2497 249.982V247.957H89.8009V249.982H88.2497ZM86.5407 249.982V238.821H88.3023V249.982H86.5407ZM89.8009 249.982V247.957C89.8885 247.957 89.9543 248.049 89.9981 248.233C90.0419 248.417 90.0638 248.658 90.0638 248.956C90.0638 249.263 90.0419 249.513 89.9981 249.706C89.9543 249.89 89.8885 249.982 89.8009 249.982ZM95.6142 249.193V246.498C95.6142 246.148 95.5178 245.841 95.325 245.578C95.1322 245.315 94.8518 245.109 94.4837 244.96C94.1244 244.802 93.6906 244.723 93.1823 244.723C92.7966 244.723 92.411 244.767 92.0254 244.855C91.6486 244.943 91.3155 245.052 91.0263 245.184L90.2902 243.527C90.7284 243.255 91.1928 243.05 91.6836 242.909C92.1832 242.769 92.6871 242.699 93.1954 242.699C93.7738 242.699 94.3128 242.787 94.8123 242.962C95.3206 243.137 95.7632 243.391 96.1401 243.724C96.5257 244.057 96.8236 244.456 97.034 244.921C97.2531 245.385 97.3626 245.911 97.3626 246.498V249.193H95.6142ZM89.8038 249.982V247.957H97.9016L97.5467 249.982H89.8038ZM89.8038 249.982C89.7161 249.982 89.6504 249.89 89.6066 249.706C89.5628 249.513 89.5409 249.263 89.5409 248.956C89.5409 248.65 89.5628 248.409 89.6066 248.233C89.6504 248.049 89.7161 247.957 89.8038 247.957V249.982ZM93.1954 241.095C92.8974 241.095 92.6477 240.994 92.4461 240.793C92.2445 240.591 92.1437 240.341 92.1437 240.044C92.1437 239.737 92.2445 239.487 92.4461 239.294C92.6477 239.093 92.8974 238.992 93.1954 238.992C93.5021 238.992 93.7519 239.093 93.9447 239.294C94.1463 239.487 94.2471 239.737 94.2471 240.044C94.2471 240.341 94.1463 240.591 93.9447 240.793C93.7519 240.994 93.5021 241.095 93.1954 241.095Z"
        fill="white" />
    <path
        d="M91.7987 179.619C90.5893 179.619 89.5552 179.426 88.6963 179.04C87.8462 178.663 87.1933 178.107 86.7376 177.371C86.2819 176.643 86.054 175.754 86.054 174.702C86.054 174.413 86.0715 174.119 86.1066 173.821C86.1417 173.515 86.1942 173.199 86.2644 172.875L87.8813 173.19C87.8375 173.506 87.8024 173.778 87.7761 174.005C87.7586 174.233 87.7498 174.439 87.7498 174.623C87.7498 175.64 88.0741 176.389 88.7226 176.871C89.3799 177.362 90.3878 177.607 91.7462 177.607C92.5524 177.607 93.2316 177.533 93.7838 177.384C94.3359 177.244 94.7566 177.055 95.0458 176.819C95.335 176.591 95.4796 176.35 95.4796 176.096C95.4796 175.92 95.4139 175.771 95.2824 175.649C95.1509 175.526 94.9406 175.399 94.6514 175.267C94.3709 175.145 94.0116 175 93.5734 174.834L94.0861 173.085C94.4367 173.217 94.796 173.366 95.1641 173.532C95.5409 173.69 95.8827 173.887 96.1895 174.124C96.505 174.352 96.7591 174.628 96.9519 174.952C97.1447 175.267 97.2411 175.649 97.2411 176.096C97.2411 176.49 97.1579 176.862 96.9914 177.213C96.8336 177.564 96.6014 177.883 96.2946 178.173C95.9879 178.471 95.611 178.725 95.1641 178.935C94.7259 179.154 94.222 179.321 93.6523 179.435C93.0914 179.557 92.4736 179.619 91.7987 179.619ZM95.6242 175.215C94.3096 175.215 93.3149 174.886 92.6401 174.229L93.8626 172.796C93.9328 172.857 94.0511 172.919 94.2176 172.98C94.3929 173.041 94.6032 173.094 94.8486 173.138C95.094 173.173 95.3525 173.19 95.6242 173.19H97.2937V175.215H95.6242ZM97.2937 175.215V173.19C97.3813 173.19 97.4471 173.282 97.4909 173.466C97.5347 173.65 97.5566 173.891 97.5566 174.189C97.5566 174.496 97.5347 174.746 97.4909 174.939C97.4471 175.123 97.3813 175.215 97.2937 175.215ZM107.976 175.215V173.19H109.961V175.215H107.976ZM109.961 175.215V173.19C110.049 173.19 110.115 173.282 110.159 173.466C110.202 173.65 110.224 173.891 110.224 174.189C110.224 174.496 110.202 174.746 110.159 174.939C110.115 175.123 110.049 175.215 109.961 175.215ZM106.662 175.215V171.981C106.662 171.464 106.574 171.034 106.399 170.693C106.224 170.342 105.969 170.079 105.636 169.904C105.303 169.729 104.909 169.641 104.453 169.641C104.059 169.641 103.678 169.711 103.31 169.851C102.941 169.992 102.6 170.193 102.284 170.456C101.977 170.71 101.706 171.021 101.469 171.389C101.233 171.757 101.048 172.174 100.917 172.638C100.786 173.094 100.72 173.589 100.72 174.124H99.7208C99.7208 173.747 99.7514 173.326 99.8128 172.862C99.8829 172.397 99.9881 171.924 100.128 171.442C100.277 170.96 100.47 170.495 100.707 170.049C100.943 169.593 101.233 169.19 101.574 168.839C101.925 168.48 102.332 168.195 102.797 167.985C103.261 167.774 103.792 167.669 104.388 167.669C105.08 167.669 105.676 167.783 106.175 168.011C106.684 168.239 107.104 168.554 107.437 168.957C107.77 169.361 108.016 169.821 108.174 170.338C108.331 170.855 108.41 171.403 108.41 171.981V175.215H106.662ZM98.1038 175.215V173.19H108.41V175.215H98.1038ZM99.2607 174.097V164.054H101.022V172.204L99.2607 174.097ZM97.2888 175.215C97.2011 175.215 97.1354 175.123 97.0916 174.939C97.0478 174.755 97.0259 174.505 97.0259 174.189C97.0259 173.883 97.0478 173.642 97.0916 173.466C97.1354 173.282 97.2011 173.19 97.2888 173.19V175.215ZM97.2888 175.215V173.19H98.1038V175.215H97.2888ZM118.912 175.215C118.544 175.215 118.189 175.14 117.847 174.991C117.505 174.834 117.207 174.588 116.953 174.255C116.708 173.922 116.541 173.502 116.454 172.993L117.505 172.388C117.558 172.678 117.689 172.897 117.9 173.046C118.119 173.195 118.351 173.269 118.596 173.269C118.877 173.269 119.131 173.173 119.359 172.98C119.587 172.787 119.701 172.494 119.701 172.099V168.629H121.449V172.31C121.449 172.967 121.326 173.51 121.081 173.94C120.836 174.369 120.52 174.689 120.134 174.899C119.749 175.11 119.341 175.215 118.912 175.215ZM109.96 175.215V173.19H110.656C111.016 173.19 111.283 173.164 111.458 173.112C111.642 173.05 111.765 172.941 111.826 172.783C111.896 172.616 111.931 172.388 111.931 172.099V169.917H113.68V172.099C113.68 172.774 113.566 173.344 113.338 173.808C113.11 174.273 112.773 174.623 112.326 174.86C111.879 175.097 111.322 175.215 110.656 175.215H109.96ZM115.034 175.215C114.666 175.215 114.311 175.14 113.969 174.991C113.627 174.834 113.329 174.588 113.075 174.255C112.83 173.922 112.663 173.502 112.576 172.993L113.627 172.388C113.68 172.678 113.811 172.897 114.022 173.046C114.241 173.195 114.473 173.269 114.718 173.269C114.999 173.269 115.253 173.173 115.481 172.98C115.709 172.787 115.823 172.494 115.823 172.099V169.273H117.571V172.31C117.571 172.967 117.448 173.51 117.203 173.94C116.958 174.369 116.642 174.689 116.256 174.899C115.871 175.11 115.463 175.215 115.034 175.215ZM109.96 175.215C109.872 175.215 109.806 175.123 109.762 174.939C109.719 174.746 109.697 174.496 109.697 174.189C109.697 173.883 109.719 173.642 109.762 173.466C109.806 173.282 109.872 173.19 109.96 173.19V175.215ZM128.622 175.215V173.19H130.568V175.215H128.622ZM130.568 175.215V173.19C130.656 173.19 130.721 173.282 130.765 173.466C130.809 173.65 130.831 173.891 130.831 174.189C130.831 174.496 130.809 174.746 130.765 174.939C130.721 175.123 130.656 175.215 130.568 175.215ZM123.272 178.856V176.832H125.704C126.282 176.832 126.685 176.731 126.913 176.529C127.15 176.328 127.268 176.021 127.268 175.609V168.971H129.03V175.609C129.03 176.293 128.894 176.876 128.622 177.358C128.351 177.848 127.965 178.221 127.465 178.475C126.966 178.729 126.379 178.856 125.704 178.856H123.272ZM126.322 175.215C125.594 175.215 124.959 175.061 124.416 174.755C123.881 174.448 123.465 174.036 123.167 173.519C122.869 172.993 122.72 172.419 122.72 171.797C122.72 171.289 122.812 170.82 122.996 170.39C123.18 169.961 123.438 169.588 123.771 169.273C124.113 168.957 124.503 168.712 124.941 168.537C125.38 168.353 125.849 168.261 126.348 168.261C126.839 168.261 127.316 168.335 127.781 168.484C128.245 168.633 128.662 168.795 129.03 168.971L128.294 170.772C127.566 170.377 126.918 170.18 126.348 170.18C125.98 170.18 125.656 170.254 125.375 170.403C125.095 170.552 124.871 170.75 124.705 170.995C124.547 171.232 124.468 171.499 124.468 171.797C124.468 172.069 124.543 172.323 124.692 172.559C124.841 172.787 125.051 172.967 125.323 173.098C125.603 173.23 125.936 173.296 126.322 173.296H128.333V175.215H126.322ZM130.564 175.215V173.19H132.365V164.054H134.127V175.215H130.564ZM130.564 175.215C130.477 175.215 130.411 175.123 130.367 174.939C130.323 174.755 130.301 174.505 130.301 174.189C130.301 173.883 130.323 173.642 130.367 173.466C130.411 173.282 130.477 173.19 130.564 173.19V175.215ZM135.864 175.215V164.054H137.625V175.215H135.864Z"
        fill="white" />
    <path
        d="M168.531 98.6666H169.74C171.537 100.174 172.435 101.664 172.435 103.136C172.435 103.741 172.295 104.276 172.014 104.74C171.743 105.196 171.357 105.555 170.858 105.818C170.367 106.072 169.788 106.199 169.122 106.199C168.465 106.199 167.887 106.072 167.387 105.818C166.896 105.555 166.511 105.196 166.23 104.74C165.95 104.276 165.81 103.745 165.81 103.149C165.81 101.677 166.717 100.183 168.531 98.6666ZM169.03 100.494C168.496 100.967 168.106 101.41 167.86 101.822C167.615 102.225 167.492 102.602 167.492 102.952C167.492 103.206 167.558 103.425 167.689 103.609C167.821 103.785 168.009 103.925 168.255 104.03C168.5 104.127 168.789 104.175 169.122 104.175C169.464 104.175 169.753 104.127 169.99 104.03C170.235 103.925 170.424 103.78 170.555 103.596C170.687 103.404 170.752 103.184 170.752 102.939C170.752 102.597 170.63 102.225 170.384 101.822C170.139 101.41 169.762 100.967 169.254 100.494H169.03ZM170.148 97.26C169.893 97.26 169.679 97.1768 169.504 97.0103C169.337 96.8438 169.254 96.629 169.254 96.3661C169.254 96.1032 169.337 95.8885 169.504 95.722C169.679 95.5555 169.893 95.4722 170.148 95.4722C170.402 95.4722 170.612 95.5555 170.779 95.722C170.954 95.8885 171.042 96.1032 171.042 96.3661C171.042 96.629 170.954 96.8438 170.779 97.0103C170.612 97.1768 170.402 97.26 170.148 97.26ZM168.097 97.26C167.843 97.26 167.628 97.1768 167.453 97.0103C167.286 96.8438 167.203 96.629 167.203 96.3661C167.203 96.1032 167.286 95.8885 167.453 95.722C167.628 95.5555 167.843 95.4722 168.097 95.4722C168.351 95.4722 168.561 95.5555 168.728 95.722C168.903 95.8885 168.991 96.1032 168.991 96.3661C168.991 96.629 168.903 96.8438 168.728 97.0103C168.561 97.1768 168.351 97.26 168.097 97.26ZM176.086 106.199V104.175H178.071V106.199H176.086ZM173.036 107.895C173.474 107.895 173.816 107.847 174.061 107.75C174.315 107.663 174.495 107.523 174.6 107.33C174.714 107.137 174.771 106.892 174.771 106.594V99.6131H176.519V106.594C176.519 107.251 176.392 107.816 176.138 108.289C175.884 108.763 175.52 109.131 175.047 109.394C174.583 109.657 174.022 109.801 173.364 109.827L173.036 107.895ZM178.071 106.199V104.175C178.158 104.175 178.224 104.267 178.268 104.451C178.312 104.635 178.334 104.876 178.334 105.174C178.334 105.481 178.312 105.73 178.268 105.923C178.224 106.107 178.158 106.199 178.071 106.199ZM175.652 97.9962C175.354 97.9962 175.104 97.8954 174.903 97.6938C174.701 97.4923 174.6 97.2425 174.6 96.9445C174.6 96.6378 174.701 96.388 174.903 96.1952C175.104 95.9937 175.354 95.8929 175.652 95.8929C175.959 95.8929 176.208 95.9937 176.401 96.1952C176.603 96.388 176.704 96.6378 176.704 96.9445C176.704 97.2425 176.603 97.4923 176.401 97.6938C176.208 97.8954 175.959 97.9962 175.652 97.9962ZM183.313 105.713C182.577 105.713 181.902 105.608 181.289 105.397C180.675 105.187 180.189 104.863 179.83 104.425C179.47 103.978 179.291 103.404 179.291 102.702C179.291 102.133 179.396 101.638 179.606 101.217C179.825 100.788 180.123 100.433 180.5 100.152C180.877 99.8629 181.306 99.6482 181.788 99.508C182.271 99.359 182.774 99.2845 183.3 99.2845C183.703 99.2845 184.12 99.3283 184.549 99.416C184.987 99.5036 185.382 99.6351 185.732 99.8103L184.97 101.506C184.724 101.445 184.448 101.397 184.142 101.362C183.835 101.326 183.559 101.309 183.313 101.309C182.568 101.309 182.003 101.454 181.618 101.743C181.232 102.023 181.039 102.391 181.039 102.847C181.039 103.119 181.114 103.355 181.263 103.557C181.42 103.758 181.666 103.912 181.999 104.017C182.341 104.122 182.779 104.175 183.313 104.175V105.713ZM178.068 106.199V104.175H185.929V106.199H178.068ZM178.068 106.199C177.981 106.199 177.915 106.107 177.871 105.923C177.827 105.73 177.805 105.481 177.805 105.174C177.805 104.867 177.827 104.626 177.871 104.451C177.915 104.267 177.981 104.175 178.068 104.175V106.199ZM183.3 97.6807C183.002 97.6807 182.753 97.5799 182.551 97.3783C182.349 97.1768 182.249 96.927 182.249 96.629C182.249 96.3223 182.349 96.0725 182.551 95.8797C182.753 95.6782 183.002 95.5774 183.3 95.5774C183.607 95.5774 183.857 95.6782 184.05 95.8797C184.251 96.0725 184.352 96.3223 184.352 96.629C184.352 96.927 184.251 97.1768 184.05 97.3783C183.857 97.5799 183.607 97.6807 183.3 97.6807Z"
        fill="white" />
    <path
        d="M206.022 53.0638C205.374 53.0638 204.778 52.9411 204.234 52.6957C203.691 52.459 203.218 52.1129 202.815 51.6572C202.42 51.2102 202.113 50.6756 201.894 50.0534C201.675 49.4224 201.566 48.7169 201.566 47.9369C201.566 47.5776 201.592 47.2182 201.645 46.8589C201.697 46.4996 201.763 46.149 201.842 45.8073L203.524 46.1228C203.463 46.4383 203.41 46.745 203.367 47.043C203.332 47.3409 203.314 47.6301 203.314 47.9106C203.314 48.5766 203.415 49.1419 203.616 49.6064C203.827 50.0709 204.129 50.4214 204.523 50.6581C204.927 50.9035 205.413 51.0262 205.983 51.0262C206.552 51.0262 207.043 50.9035 207.455 50.6581C207.867 50.4214 208.182 50.0709 208.401 49.6064C208.621 49.1419 208.73 48.5766 208.73 47.9106V39.1686H210.492V47.9106C210.492 48.6906 210.378 49.3961 210.15 50.0271C209.931 50.6581 209.62 51.197 209.217 51.644C208.822 52.0997 208.353 52.4503 207.81 52.6957C207.267 52.9411 206.671 53.0638 206.022 53.0638ZM213.941 50.3294V48.305H215.492V50.3294H213.941ZM212.232 50.3294V39.1686H213.994V50.3294H212.232ZM215.492 50.3294V48.305C215.58 48.305 215.646 48.397 215.689 48.581C215.733 48.7651 215.755 49.0061 215.755 49.304C215.755 49.6108 215.733 49.8606 215.689 50.0534C215.646 50.2374 215.58 50.3294 215.492 50.3294ZM225.657 50.3294C225.035 50.3294 224.509 50.2111 224.079 49.9745C223.65 49.7379 223.321 49.3873 223.093 48.9228C222.874 48.4583 222.765 47.8887 222.765 47.2139V46.9378L224.329 47.0035L224.395 47.319C224.404 47.5819 224.439 47.7879 224.5 47.9369C224.57 48.0771 224.697 48.1735 224.881 48.2261C225.065 48.2787 225.324 48.305 225.657 48.305H226.156V50.3294H225.657ZM215.495 50.3294C215.407 50.3294 215.342 50.2374 215.298 50.0534C215.254 49.8606 215.232 49.6108 215.232 49.304C215.232 48.9973 215.254 48.7563 215.298 48.581C215.342 48.397 215.407 48.305 215.495 48.305V50.3294ZM215.495 50.3294V48.305C215.881 48.305 216.205 48.2392 216.468 48.1078C216.74 47.9676 216.985 47.7704 217.204 47.5162C217.423 47.2533 217.642 46.9422 217.861 46.5829C218.08 46.2498 218.308 45.9168 218.545 45.5838C218.79 45.2507 219.058 44.944 219.347 44.6636C219.645 44.3831 219.973 44.1596 220.333 43.9931C220.701 43.8266 221.113 43.7434 221.568 43.7434C222.051 43.7434 222.471 43.8441 222.83 44.0457C223.19 44.2473 223.483 44.5233 223.711 44.8739C223.948 45.2157 224.123 45.6144 224.237 46.0702C224.36 46.5171 224.421 46.9904 224.421 47.4899C224.421 47.9632 224.36 48.4846 224.237 49.0543C224.114 49.6152 223.926 50.1366 223.672 50.6186L222.042 49.8167C222.243 49.4662 222.397 49.0937 222.502 48.6993C222.607 48.2962 222.66 47.8931 222.66 47.4899C222.66 46.8852 222.563 46.4426 222.37 46.1622C222.186 45.8817 221.915 45.7415 221.555 45.7415C221.327 45.7415 221.1 45.8073 220.872 45.9387C220.644 46.0614 220.403 46.2674 220.149 46.5566C219.903 46.837 219.627 47.2182 219.321 47.7003C218.935 48.305 218.558 48.8001 218.19 49.1857C217.822 49.5713 217.423 49.8606 216.994 50.0534C216.573 50.2374 216.074 50.3294 215.495 50.3294ZM223.58 48.5942L223.672 50.6186C222.83 50.6624 222.103 50.6537 221.49 50.5923C220.876 50.5398 220.337 50.4346 219.873 50.2768C219.408 50.1191 218.996 49.9175 218.637 49.6721C218.286 49.418 217.953 49.1332 217.638 48.8177L218.834 47.5425C219.141 47.858 219.505 48.1034 219.925 48.2787C220.346 48.4452 220.854 48.5504 221.45 48.5942C222.046 48.638 222.756 48.638 223.58 48.5942ZM226.156 50.3294V48.305C226.244 48.305 226.31 48.397 226.354 48.581C226.397 48.7651 226.419 49.0061 226.419 49.304C226.419 49.6108 226.397 49.8606 226.354 50.0534C226.31 50.2374 226.244 50.3294 226.156 50.3294ZM238.915 50.3294C238.249 50.3294 237.692 50.2111 237.246 49.9745C236.799 49.7379 236.461 49.3873 236.233 48.9228C236.005 48.4583 235.891 47.8887 235.891 47.2139H237.64C237.64 47.5031 237.671 47.7309 237.732 47.8974C237.802 48.0552 237.929 48.1647 238.113 48.2261C238.297 48.2787 238.564 48.305 238.915 48.305H239.415V50.3294H238.915ZM226.15 50.3294C226.063 50.3294 225.997 50.2374 225.953 50.0534C225.909 49.8606 225.888 49.6108 225.888 49.304C225.888 48.9973 225.909 48.7563 225.953 48.581C225.997 48.397 226.063 48.305 226.15 48.305V50.3294ZM235.103 50.3294C234.735 50.3294 234.38 50.2549 234.038 50.1059C233.696 49.9482 233.398 49.7028 233.144 49.3698C232.899 49.0367 232.732 48.6161 232.644 48.1078L233.696 47.5031C233.749 47.7923 233.88 48.0114 234.091 48.1604C234.31 48.3093 234.542 48.3838 234.787 48.3838C235.068 48.3838 235.322 48.2874 235.55 48.0946C235.778 47.9018 235.891 47.6082 235.891 47.2139V43.7434H237.64V47.4242C237.64 48.0815 237.517 48.6248 237.272 49.0543C237.026 49.4837 236.711 49.8036 236.325 50.0139C235.94 50.2243 235.532 50.3294 235.103 50.3294ZM226.15 50.3294V48.305H226.847C227.206 48.305 227.474 48.2787 227.649 48.2261C227.833 48.1647 227.956 48.0552 228.017 47.8974C228.087 47.7309 228.122 47.5031 228.122 47.2139V45.0317H229.871V47.2139C229.871 47.8887 229.757 48.4583 229.529 48.9228C229.301 49.3873 228.964 49.7379 228.517 49.9745C228.07 50.2111 227.513 50.3294 226.847 50.3294H226.15ZM231.225 50.3294C230.857 50.3294 230.502 50.2549 230.16 50.1059C229.818 49.9482 229.52 49.7028 229.266 49.3698C229.021 49.0367 228.854 48.6161 228.766 48.1078L229.818 47.5031C229.871 47.7923 230.002 48.0114 230.212 48.1604C230.432 48.3093 230.664 48.3838 230.909 48.3838C231.19 48.3838 231.444 48.2874 231.672 48.0946C231.9 47.9018 232.013 47.6082 232.013 47.2139V44.3875H233.762V47.4242C233.762 48.0815 233.639 48.6248 233.394 49.0543C233.148 49.4837 232.833 49.8036 232.447 50.0139C232.062 50.2243 231.654 50.3294 231.225 50.3294ZM239.415 50.3294V48.305C239.502 48.305 239.568 48.397 239.612 48.581C239.656 48.7651 239.677 49.0061 239.677 49.304C239.677 49.6108 239.656 49.8606 239.612 50.0534C239.568 50.2374 239.502 50.3294 239.415 50.3294ZM232.868 38.7348C233.122 38.7348 233.328 38.8181 233.486 38.9846C233.652 39.1511 233.736 39.3614 233.736 39.6156C233.736 39.8697 233.652 40.0801 233.486 40.2466C233.328 40.4043 233.122 40.4832 232.868 40.4832C232.623 40.4832 232.412 40.4043 232.237 40.2466C232.07 40.0801 231.987 39.8697 231.987 39.6156C231.987 39.3614 232.07 39.1511 232.237 38.9846C232.412 38.8181 232.623 38.7348 232.868 38.7348ZM233.893 40.5358C234.147 40.5358 234.358 40.619 234.524 40.7855C234.7 40.9521 234.787 41.1624 234.787 41.4165C234.787 41.6795 234.7 41.8942 234.524 42.0607C234.358 42.2272 234.147 42.3105 233.893 42.3105C233.639 42.3105 233.424 42.2272 233.249 42.0607C233.083 41.8942 232.999 41.6795 232.999 41.4165C232.999 41.1624 233.083 40.9521 233.249 40.7855C233.424 40.619 233.639 40.5358 233.893 40.5358ZM231.843 40.5358C232.097 40.5358 232.307 40.619 232.474 40.7855C232.649 40.9521 232.736 41.1624 232.736 41.4165C232.736 41.6795 232.649 41.8942 232.474 42.0607C232.307 42.2272 232.097 42.3105 231.843 42.3105C231.588 42.3105 231.374 42.2272 231.198 42.0607C231.032 41.8942 230.949 41.6795 230.949 41.4165C230.949 41.1624 231.032 40.9521 231.198 40.7855C231.374 40.619 231.588 40.5358 231.843 40.5358ZM239.412 50.3294V48.305H241.213V39.1686H242.974V50.3294H239.412ZM239.412 50.3294C239.324 50.3294 239.258 50.2374 239.215 50.0534C239.171 49.8693 239.149 49.6195 239.149 49.304C239.149 48.9973 239.171 48.7563 239.215 48.581C239.258 48.397 239.324 48.305 239.412 48.305V50.3294ZM244.712 50.3294V39.1686H246.473V50.3294H244.712Z"
        fill="white" />
    <path
        d="M345.138 84.0724L344.605 83.5978L344.628 83.1145L344.059 82.3736L343.593 80.9932L343.69 79.0861L343.437 77.0401L342.131 74.8146L340.828 73.8393L340.146 73.6715L338.601 73.6426L334.668 74.3689L333.73 74.3632L333.091 74.1953L331.825 73.5673L330.593 72.6557L329.155 71.1595L328.044 70.5489L327.265 70.6676L326.836 70.8846L326.387 71.3969L325.961 70.6734L325.76 70.4621L324.822 70.0917L324.557 69.9036L323.95 68.7633L323.726 68.5521L323.435 68.4219L322.969 68.6042L322.385 69.5621L321.513 69.9846L321.271 70.1959L321.136 70.9136L320.958 71.1798L320.44 71.339L319.908 72.32L319.571 72.6123L319.082 72.7946H318.857L317.537 72.3721H316.285L315.949 72.265L315.658 71.9235L315.457 71.446L315.143 71.3158L315.008 71.42L314.648 71.4489L314.406 70.8152L314.159 70.6271L313.67 70.4679L313.512 69.9614L313.759 69.1396L313.802 68.5058L313.601 68.2656L313.158 68.0775L312.956 67.626L312.798 67.545L312.421 67.5739L312.197 67.3569L312.062 66.8533V66.0546L311.748 65.7131L311.593 65.6581L311.365 65.4469L311.299 65.0764L311.48 64.8102L311.794 64.706H312.395L313.02 64.9694L313.397 65.0244L313.891 64.9173L313.958 64.57L313.779 64.3067L312.571 63.9883L312.306 63.6179L312.26 63.2185L312.349 62.66L312.663 62.1015L312.887 61.8613L313.336 61.6789H313.736L314.225 61.8092L315.12 62.2606H315.48L315.721 62.0494L315.969 61.65L316.547 60.2696L316.818 59.8934L318.227 59.1004L318.446 58.8834L318.581 58.5911L318.558 58.0094L318.294 57.6332L317.911 57.3409L317.781 57.0226L317.825 56.0647L317.937 55.7463L318.138 55.5351L318.34 55.5061L318.564 55.7232L318.97 56.4119L319.125 56.493L319.416 56.3859L319.928 55.8042L320.063 55.509L320.132 55.1386V54.9273L319.951 54.4498L320.71 53.8913L320.889 53.6511L320.935 53.463L320.575 52.5051L320.532 52.1057L320.575 51.9234L321.761 50.0308L321.807 49.4722L321.962 48.9658L321.939 48.5433L321.784 48.0918L321.358 47.4262L320.774 45.9908L320.756 45.4033L321.07 44.1792L321.001 43.8087L320.489 43.4325L318.99 42.9811L318.164 42.2634L317.451 41.8872V41.5399L317.715 40.5038L317.738 40.0813L317.56 39.8382L317.134 39.598L316.82 39.2565L316.642 38.779L316.573 38.1916L316.423 38.1539L316.662 36.4031L316.34 35.451L315.779 35.532L315.624 35.3034L315.442 35.1674L315.178 35.1442L315.088 35.2253V35.4365L314.93 35.3844L314.729 35.4076V35.1963L315.088 34.2384L315.132 33.5439L315.445 32.2387L315.468 31.4631L315.537 31.3039L315.514 30.9856L315.557 30.9567V30.6904L315.649 30.3721L315.626 30.2419L315.828 29.7354V29.4952L315.963 29.4402V28.7225L316.052 28.6415L316.118 28.2421L316.432 27.6547L316.409 27.2785L316.343 27.1482L316.409 27.0932V26.746L316.521 26.5347L316.501 26.2685L316.631 25.9762L316.608 25.8951L316.72 25.8402L316.677 25.5739L316.832 25.2556L316.901 24.8562L317.013 24.6392L317.056 24.2398L317.281 23.8404L317.192 23.7883V23.5713L317.416 23.3832L317.37 23.3311L317.439 23.114L317.393 22.9838L317.551 22.7436L317.505 22.4774H317.571L317.554 22.1851L317.661 22.1012L317.684 21.4905L317.773 21.3024L317.819 20.4198L317.908 20.2606V19.9683L317.842 19.8844V18.9728L321.43 18.9207L323.964 18.7037L326.816 19.2014L327.095 19.0799L327.558 18.5763L328.487 18.2725L331.465 18.1741L334.564 17.7371L336.155 18.1162L337.507 20.7034L338.264 21.5774L339.478 22.3008L339.944 22.4369L341.987 21.5224L344.194 21.3429L344.778 21.0333L346.15 19.705L346.547 19.1609L347.206 18.6718L347.557 18.6342L348.976 18.9757L350.334 18.4606L350.527 18.2319L350.633 17.0165L350.814 16.6142L352.345 15.9631L352.745 14.9994L352.909 12.8955L353.412 10.563L353.93 9.65714L354.327 8.58638L354.261 7.41722L353.971 6.10336L354.008 5.35093L354.693 3.77952L355.159 3.38594L355.916 2.38752L356.687 0.680086L356.879 0.477509L357.443 0.943436L359.348 3.67533L359.662 3.77373L359.955 3.48723L360.628 4.121L361.227 4.2657L361.828 4.10943L362.884 3.54221L363.365 3.48144L364.377 3.61745L364.841 3.88949L364.915 4.13837L364.225 5.74451L363.833 7.25226L363.779 9.35038L363.923 10.6324L364.311 12.308L364.305 12.9563L364.006 14.1254L362.806 17.3464L362.588 19.4503L362.559 21.9478L362.326 21.6758L361.463 21.9391L361.086 22.379L360.254 23.9736L358.934 25.3019L358.962 25.7533L359.892 27.51L360.027 29.7296L359.673 34.6494L359.509 35.4712L359.043 36.5073L359.02 37.005L359.187 37.4131L359.555 37.6186L360.156 37.3552L360.493 37.9369L361.204 38.7009L362.248 40.7614L362.599 41.673L362.818 43.1981L362.662 44.6451L362.099 46.8098L361.955 50.2941L361.707 51.9755L360.807 53.871L359.282 55.4309L359.259 55.619L359.843 56.0357L361.382 56.7361L361.609 56.9907L361.653 57.5927L359.385 58.5882L358.862 59.1901L359.011 60.5387L358.102 60.9005L358.14 61.4821L357.944 61.7108L357.233 61.9133L356.071 62.8018L355.964 63.7828L356.218 64.078L356.1 65.499L356.281 65.9388L356.879 66.2688L357.038 66.8649L356.655 67.7562L356.6 68.6534L357.426 70.3753L357.345 70.5721L356.543 70.5634L356.399 71.4634L356.031 71.4547L355.564 71.1451L355.392 71.2377L355.444 71.8049L355.985 72.6876L355.806 72.9885L354.995 73.1622L354.566 73.767L354.949 74.0593L355.467 74.0448L355.979 75.2227L356.58 75.4658L356.735 75.7233L356.638 76.2124L355.645 78.0095L355.576 78.4928L355.703 78.924L356.37 79.2539L356.534 79.5723L356.333 80.0411L355.941 80.0556L355.671 80.3045L355.867 81.5662L354.923 81.8614L355.156 84.0203L355.015 84.3734L354.414 84.5528L354.33 84.7091L355.101 86.0142L354.442 85.9477L352.575 85.4065L350.204 84.2952L349.197 83.9856L347.367 83.9045L346.165 84.2576L345.146 84.0926L345.138 84.0724Z"
        fill="#CAAE7C" stroke="#E6F5F1" stroke-width="0.5" />
    <path
        d="M298.628 84.0782L298.582 83.9971L298.674 83.7801L298.829 83.7048L298.896 83.4878V83.4357H298.677L298.806 83.2534V83.1174L298.919 82.9061L299.1 82.8251L299.077 82.7441L299.12 82.7209L299.457 81.0771L299.503 80.3073L299.744 79.5665L299.88 78.8488L299.701 78.3742H298.717V78.2382L299.589 78.215L299.655 78.16L299.701 77.9488L299.79 78.0298L299.813 78.2179H300.078L300.101 78.1629H299.946L299.877 78.0877V77.9806L299.966 77.9517L300.012 77.7693V77.6623L299.923 77.6333V77.5581L300.012 77.5291L300.035 77.6102H300.101L300.213 77.5291L300.167 77.4481L300.19 77.1558L300.438 76.7275L300.392 76.5973L300.262 76.6494L300.239 76.2789L300.328 76.2269V76.0156L300.418 75.8564L300.372 75.7494L300.53 75.567V75.3789L300.441 75.2979L300.484 74.9825L300.665 74.8464L300.688 74.476L300.907 74.1837L300.688 74.1548L300.665 74.0246H300.777L300.907 73.7323L301.088 72.9335L301.177 72.8033L301.2 72.4618L301.312 72.2448L301.289 71.9033L301.154 71.8743L301.088 71.7933V71.53L301.2 71.1827L301.379 71.0004L301.537 71.0235L301.666 70.7602L301.643 70.6531L301.488 70.6299V70.4708L301.376 70.3897L301.64 69.8833L301.574 69.7531L301.597 69.5418L301.733 69.3826L301.911 68.7199L302 68.772L302.046 68.6649L302 68.4826L302.179 68.1354L302.135 67.9241L301.977 67.7649V67.6058L302.135 67.4466L302.202 67.0762L302.112 67.0241V66.8881L302.248 66.4945L302.377 66.3064L302.311 66.1993L302.377 66.017L302.36 65.5655L302.449 65.3774V65.1372L302.38 65.0851L302.472 64.8189L302.561 63.9681L302.673 63.9391L302.786 63.6758L302.829 62.906L302.964 62.3185L303.119 62.0551L302.99 61.9741L303.102 61.3866L303.079 60.9641L303.28 60.776L303.303 60.6689L303.326 59.8181L303.456 58.9412L303.433 58.1483L303.525 57.9602V57.8792L303.433 57.7981V57.6679L303.479 57.6129L303.456 57.4306L303.591 57.3235L303.568 57.1644L303.456 57.0833V56.8721L303.591 56.4727V56.2614L303.839 55.9663V55.836L304.017 55.6479L304.331 55.6769L304.555 55.3846L304.71 55.0373L304.802 54.6379L304.733 54.3977L304.892 54.2096L304.981 53.2286L305.159 52.8003L305.318 50.9423L305.407 50.5951V49.7703L305.45 49.3999L305.542 49.1886L305.648 47.8313L305.559 47.403H305.671L305.694 47.3509L305.761 46.7114L305.743 46.3873L305.631 46.176H305.697L305.743 46.095L305.809 46.176L305.876 46.1471V46.066L305.809 46.0429L305.876 45.8258L305.786 45.7448L305.72 45.5046V44.6538L305.833 44.5236L305.743 44.3644L305.873 44.2052L306.074 44.2573L306.569 43.7798L306.811 43.7248L307.104 43.7538L307.504 43.5425L307.593 43.3833L307.66 43.3283L307.729 43.3573L307.795 43.2502H307.996L308.29 43.3862L308.491 43.7566H308.692L308.805 43.8637L309.205 44.0229L309.446 44.046V44.1271L309.558 44.2631L310.166 44.292L310.744 44.1271V44.211L310.479 44.3152L310.433 44.2631L310.255 44.3933H310.166L309.604 44.3412L309.268 44.2342L308.868 43.9419L308.69 43.994L308.802 44.0229L308.845 44.1271L308.934 44.156L308.917 44.2631L309.383 44.5033L309.449 44.6335L309.541 44.6625L309.671 44.8216L309.717 45.0097L309.806 44.9547V44.6914H309.895L309.941 44.9316H310.053L310.096 44.7724L309.984 44.6654V44.5583L310.007 44.5062L310.143 44.5351L310.321 44.7985L310.39 45.3049L310.545 45.357L310.635 45.5741H310.925L311.037 45.493L311.285 45.4641L311.219 45.276L311.308 45.2528L311.662 45.493L311.731 45.9155L312.18 45.7853L312.197 45.7043L312.131 45.5972L311.906 45.5741L311.863 45.3078L311.682 45.3368L311.552 45.2557L311.906 45.1486L312.62 44.6711L312.778 44.6422L312.867 44.4599L313.002 44.4309V44.3239L313.158 44.2428V44.1126L313.27 44.0055L313.405 43.7132L313.719 43.4181L314.191 42.7293L314.993 40.8366L315.129 40.7846L315.083 40.5964L315.284 39.9308L315.373 39.8787L315.35 39.7717L315.531 39.2652L315.644 39.1842L315.598 39.08L315.822 38.3044L315.799 38.1974L316 37.1613L316.023 35.9893L315.799 35.5291L316.36 35.4481L316.682 36.4002L316.444 38.1511L316.593 38.1887L316.662 38.7762L316.841 39.2537L317.154 39.5951L317.58 39.8353L317.758 40.0784L317.735 40.5009L317.471 41.537V41.8843L318.184 42.2605L319.01 42.9782L320.509 43.4296L321.021 43.8058L321.09 44.1763L320.777 45.4004L320.794 45.9879L321.378 47.4233L321.804 48.0889L321.959 48.5404L321.982 48.9629L321.827 49.4693L321.781 50.0279L320.595 51.9205L320.552 52.1028L320.595 52.5022L320.955 53.4601L320.909 53.6482L320.731 53.8884L319.971 54.4469L320.152 54.9244V55.1357L320.083 55.5061L319.948 55.8013L319.436 56.383L319.145 56.4901L318.99 56.409L318.584 55.7203L318.36 55.5032L318.158 55.5322L317.957 55.7434L317.845 56.0618L317.802 57.0197L317.931 57.338L318.314 57.6303L318.578 58.0065L318.601 58.5882L318.466 58.8805L318.248 59.0975L316.838 59.8905L316.567 60.2667L315.989 61.6471L315.742 62.0465L315.5 62.2577H315.14L314.245 61.8063L313.756 61.676H313.356L312.907 61.8584L312.683 62.0986L312.369 62.6571L312.28 63.2156L312.326 63.615L312.591 63.9854L313.799 64.3038L313.978 64.5671L313.912 64.9144L313.417 65.0215L313.04 64.9665L312.415 64.7031H311.814L311.501 64.8073L311.319 65.0735L311.385 65.444L311.613 65.6552L311.768 65.7102L312.082 66.0517V66.8504L312.217 67.354L312.441 67.571L312.818 67.5421L312.977 67.6231L313.178 68.0746L313.621 68.2627L313.822 68.5029L313.779 69.1367L313.532 69.9585L313.69 70.465L314.179 70.6242L314.427 70.8123L314.668 71.446L315.028 71.4171L315.163 71.3129L315.477 71.4431L315.678 71.9207L315.969 72.2621L316.305 72.3692H317.557L318.878 72.7917H319.102L319.591 72.6094L319.928 72.3171L320.46 71.3361L320.978 71.1769L321.156 70.9107L321.292 70.193L321.533 69.9817L322.405 69.5592L322.989 68.6013L323.455 68.419L323.746 68.5492L323.97 68.7604L324.577 69.9007L324.842 70.0888L325.78 70.4592L325.981 70.6705L326.407 71.3939L325.38 72.5631L325.101 73.1448L324.134 74.0824L322.552 75.2429L320.546 76.2703L317.312 77.5002L316.7 77.9661L315.954 79.3755L315.601 80.7038L315.224 83.1492L314.524 85.1026L314.36 86.2892L313.992 86.266L311.751 86.9808H311.173L310.813 86.8998L310.252 86.1589L309.697 85.8406L309.403 85.2589L309.003 84.8074L308.738 84.6193L308.402 84.5152H306.48L305.251 84.2229L304.023 84.1418L303.237 84.246L302.276 84.6164L301.698 84.6454L301.338 84.5644L300.423 84.165L299.687 84.0348L298.645 84.0782H298.628Z"
        fill="#CAAE7C" stroke="#E6F5F1" stroke-width="0.5" />
    <path
        d="M282.919 134.966L283.655 133.111L283.744 132.711L283.992 132.184V132.08L284.081 131.973L284.193 131.394L284.328 131.131L284.346 130.813L284.438 130.79L284.455 130.682L284.524 130.659V130.471L284.567 130.39H284.636V130.26H284.68L284.861 129.945L284.973 129.892L284.99 129.733L285.663 128.735L286.242 127.308L286.803 125.835L287.787 122.417L288.446 122.524L288.823 122.817L289.361 122.921L290.794 122.898L291.484 123.291L292.045 123.372L293.297 123.291L293.97 123.103L294.525 122.576L295.598 121.257L296.136 120.941H296.536L296.985 121.124L297.388 121.81L297.702 121.94L298.15 121.758L298.24 121.598L298.487 121.442L299.022 121.306L299.802 121.387L300.116 121.072L300.139 120.649L300.026 120.334L299.69 119.986L298.798 119.593L298.372 117.006L298.26 116.69L297.946 116.349L297.161 115.819L296.896 115.449L296.83 115.084L296.896 114.554L297.008 114.239L297.031 113.417L297.143 112.679L297.834 111.834L298.372 110.859L298.619 110.248L298.637 109.432L298.412 108.798L298.571 108.295L298.617 107.05L298.481 106.735L297.785 106.365L297.543 105.942L297.118 105.731L296.516 105.201L295.886 104.961L294.168 104.75L293.576 104.732L293.711 104.371V104.24L293.642 104.159L293.665 104.023L293.912 103.447L294.025 103.34L294.002 103.129L294.203 102.759L294.226 102.443L294.468 102.073L294.514 101.702L294.626 101.439L294.58 101.17L294.761 100.988V100.565L294.916 99.8763L295.052 99.665L295.276 99.0544L295.253 98.739L295.342 98.6087L295.455 98.2383L295.432 98.1573L295.685 97.4946L295.702 97.101H295.633V97.02L295.791 96.7537L295.837 96.1489L296.079 95.6714L296.125 95.408L296.326 94.9566L296.303 94.6382L296.392 94.6932L296.462 94.6643L296.416 94.2128L296.505 93.7382L296.594 93.6572L296.577 93.4691L296.908 91.9613V91.8542L296.795 91.7732L296.778 91.643L297.069 91.4838L297.092 91.4028L297.247 90.5056L297.336 90.2655V89.9471L297.471 89.6838L297.848 87.9329V87.6175L297.961 87.0358H297.831V86.9808L298.073 86.7464L298.142 86.5872L298.185 86.2168L298.142 85.8985L298.271 85.3689L298.116 85.2647L298.228 85.0245L298.317 84.9695L298.496 84.4949L298.565 84.466L298.631 84.0724L299.672 84.029L300.409 84.1592L301.324 84.5586L301.684 84.6396L302.262 84.6107L303.223 84.2402L304.008 84.1361L305.237 84.2171L306.465 84.5094H308.387L308.724 84.6136L308.989 84.8017L309.389 85.2531L309.682 85.8348L310.237 86.1531L310.799 86.894L311.158 86.975H311.736L313.978 86.2602L314.346 86.2834L314.179 87.5133L313.618 88.0631L311.526 89.0066L310.988 89.6867L310.134 91.3015L310.045 93.8684L310.422 96.5945L310.157 97.2978L309.475 97.7868L308.37 99.3959L306.92 102.707L306.779 103.818L306.816 104.92L307.913 106.573L308.347 107.487L308.957 110.202L309.055 111.423L308.799 112.419L308.146 113.663L308.054 114.418L308.307 115.052L309.147 115.952L310.071 117.723L310.335 118.817L310.148 120.221L309.504 121.633L309.524 122.273L309.679 122.785L309.325 123.077L309.676 124.015L308.574 126.379L308.77 128.529L310.002 130.199L311.84 131.672L312.228 133.194L311.518 135.411L307.498 136.135L307.429 136.242L305.361 136.152L304.115 135.996L303.393 136.077L302.8 136.543L302.078 138.635L301.223 139.173L298.657 139.717L297.342 140.183L295.699 141.807L295.345 142.727H295.164L294.916 142.909L294.404 143.488L293.596 144.62L293.17 145.071L292.928 145.254L292.41 145.384L292.146 145.201L291.697 144.568L291.119 142.75L290.917 142.305L290.558 141.778L290.109 141.384L288.728 140.594L288.546 140.565L288.034 141.141L287.787 141.329L287.456 141.381L286.696 141.274L286.314 141.355L286.383 141.619L287.007 141.882L287.163 142.386L287.611 142.808L287.634 143.014L287.433 143.254L287.232 143.277L286.719 143.147L286.561 143.202L286.538 143.807L286.314 144.041L285.577 144.171L285.376 144.142L284.887 143.749L284.398 143.618L283.503 143.566L283.126 143.274L283.014 142.959V142.724L283.192 142.461L283.569 142.198L284.176 141.934L284.4 141.723L284.556 141.431L284.49 141.06L284.199 140.693L283.368 140.247L283.166 139.772V139.402L283.391 138.979L283.681 138.823L283.883 138.794L284.691 139.087L285.045 139.139L285.471 139.115L285.695 138.927L285.678 137.903L285.879 137.24L285.721 136.531L285.767 136.349L286.391 135.686L286.458 135.345L286.302 135.081L286.009 134.925L285.229 135.212L284.668 135.159L284.179 134.555L283.779 134.607L283.555 134.818L283.241 134.948H282.939L282.919 134.966Z"
        fill="#CAAE7C" stroke="#E6F5F1" stroke-width="0.5" />
    <path
        d="M287.793 122.417L287.971 121.717L288.149 121.3L288.218 120.69L288.397 120.455L288.285 120.374L288.443 119.845L288.572 119.633V119.477L288.664 119.266L288.777 119.136L288.843 118.554L289.107 118.343V118.102L289.018 118.027L289.266 117.787H289.421L289.622 117.628L289.87 117.234L290.028 116.731L290.14 116.572L290.158 116.337L290.114 116.282L290.25 116.23L290.158 116.1L290.227 116.019L290.181 115.996L290.227 115.808L290.563 115.017L290.581 114.777L290.678 114.725L290.739 114.566L290.627 114.248V113.984L290.805 113.854L290.894 113.883L291.029 113.461L291.231 113.061L291.119 112.85L291.142 112.694H291.208L291.254 112.824H291.343L291.59 112.06L291.746 111.267L291.947 111.001L292.016 110.818L291.993 110.714L292.059 110.659L292.284 109.791V109.392L292.554 108.706L292.508 108.413L292.756 108.283L292.733 108.072L292.574 107.965L292.621 107.36L292.71 107.279L292.845 107.331L292.888 107.25L293.205 106.194L293.423 105.007L293.581 104.735L294.174 104.753L295.892 104.964L296.522 105.204L297.123 105.734L297.549 105.945L297.791 106.367L298.487 106.738L298.622 107.053L298.576 108.298L298.418 108.801L298.642 109.435L298.625 110.251L298.378 110.862L297.84 111.837L297.149 112.682L297.037 113.42L297.014 114.242L296.902 114.557L296.836 115.087L296.902 115.452L297.166 115.822L297.952 116.352L298.266 116.693L298.378 117.009L298.804 119.596L299.695 119.989L300.032 120.337L300.144 120.652L300.121 121.075L299.808 121.39L299.028 121.309L298.493 121.445L298.245 121.601L298.156 121.76L297.707 121.943L297.394 121.812L296.991 121.127L296.542 120.944H296.142L295.604 121.26L294.531 122.579L293.976 123.106L293.302 123.294L292.051 123.375L291.49 123.294L290.799 122.901L289.366 122.924L288.828 122.82L288.451 122.527L287.793 122.42V122.417Z"
        fill="#CAAE7C" stroke="#E6F5F1" stroke-width="0.5" />
    <path
        d="M347.658 173.169L347.626 177.999L347.342 179.894L346.015 183.697L342.971 189.193L342.042 191.088L341.179 192.622L340.764 194.517L341.682 196.526L345.27 201.385L345.909 202.765L346.309 204.727L346.392 206.197L345.845 208.605L345.351 210.327L342.272 215.102L341.944 217.018L342.134 218.549L342.793 220.381L342.787 222.314L341.392 223.605L338.368 225.599L336.221 230.368L336.192 232.067L336.598 233.612L336.187 235.505L334.647 236.063L333.448 237.522L332.737 239.475L332.728 243.295L331.595 245.958L329.621 249.581L329.195 251.661L328.001 252.779L325.625 257.389L325.432 258.928L323.611 267.416L323.055 269.086L321.945 270.692L321.628 271.954L324.41 277.215L324.836 278.671L324.58 279.782L322.793 281.773L322.281 283.379L322.558 285.237L321.027 288.655L323.547 299.869L317.321 308.855L315.647 315.549L315.9 322.815L313.529 327.584L313.169 329.33L313.402 330.713L313.169 332.585L311.797 338.327V341.452L312.013 343.406L312.03 345.214L310.974 346.514L309.535 347.576L308.313 349.003L307.449 350.745L306.664 352.962L306.506 352.91L306.169 352.933L305.968 352.727H305.789L305.723 352.985L305.631 353.014L305.588 353.268L305.476 353.399L305.453 353.526H305.251L305.208 353.653L305.004 353.734L304.915 353.914L304.849 354.299L304.647 354.637H304.469V354.712L304.221 354.993L303.931 355.173L303.862 355.43L303.548 355.74V356.125L303.347 356.252L303.056 356.666L302.898 356.793V357.028L302.544 357.436L302.207 357.592L300.176 355.228L299.117 353.213L298.735 351.665L298.412 348.965L299.169 346.439L299.546 343.909L299.183 342.167L297.742 339.638L297.797 335.172L289.568 311.943L289.732 310.539L287.128 303.296L280.197 283.585L278.56 277.389L272.946 273.693L272.742 270.825L274.408 266.102L270.918 261.984L271.151 256.882L268.823 247.138L261.74 232.168L257.148 218.644L250.51 196.488L254.133 193.756L257.712 190.648L258.598 189.01L258.581 186.472L258.379 183.755L259.084 181.39L261.763 177.926L269.836 170.058L272.178 169.493L272.892 168.22L272.883 166.403L271.787 164.773L268.291 161.489L270.233 158.311L270.57 158.1L270.728 157.865L270.705 157.813L270.57 157.784L270.593 157.55L270.524 157.521V157.446L270.794 157.127V157.235L270.593 157.469L270.817 157.521L270.86 157.602L270.929 157.579L272.158 155.527L272.316 154.974L272.607 154.769L273.056 154.187L273.234 153.823L273.211 153.692L273.459 153.377L273.588 153.035L273.7 152.954L273.746 153.061H273.835L275.199 150.616L275.447 150.275L276.071 149.013L276.425 148.567L276.606 148.04L277.498 146.486L278.307 144.75L278.706 144.07L279.106 143.095L279.242 142.86L279.308 142.831L279.285 142.75L279.509 142.334L279.734 141.7L280.024 141.173L280.361 140.383L280.119 140.12L279.984 139.668L280.007 139.301L280.226 138.748H280.295V138.93L280.205 138.985L280.07 139.301V139.746L280.361 140.25H280.542L280.585 140.12L280.361 139.989V139.908L280.45 139.856L280.433 139.593L280.499 139.512L280.522 139.301V139.22L280.433 139.168V139.06H280.634L280.723 139.168H281.236L281.282 139.037L281.46 138.855L281.503 138.748L281.391 138.696L281.374 138.566L281.391 137.88L281.46 137.828L281.483 137.932H281.549V137.88L281.728 137.776L282.395 136.085L282.913 134.968H283.215L283.529 134.838L283.753 134.627L284.153 134.575L284.642 135.18L285.203 135.232L285.983 134.945L286.276 135.102L286.432 135.365L286.366 135.706L285.741 136.369L285.695 136.551L285.853 137.26L285.652 137.923L285.669 138.948L285.445 139.136L285.019 139.159L284.665 139.107L283.857 138.814L283.655 138.843L283.365 139L283.14 139.422V139.793L283.342 140.267L284.173 140.713L284.464 141.08L284.53 141.451L284.375 141.743L284.15 141.954L283.543 142.218L283.166 142.481L282.988 142.744V142.979L283.1 143.294L283.477 143.587L284.372 143.639L284.861 143.769L285.35 144.163L285.551 144.191L286.288 144.061L286.512 143.827L286.535 143.222L286.694 143.167L287.206 143.297L287.407 143.274L287.608 143.034L287.585 142.828L287.137 142.406L286.981 141.902L286.357 141.639L286.288 141.376L286.671 141.295L287.43 141.402L287.761 141.35L288.008 141.161L288.521 140.586L288.702 140.615L290.083 141.405L290.532 141.798L290.891 142.325L291.093 142.771L291.671 144.588L292.12 145.222L292.385 145.404L292.902 145.274L293.144 145.091L293.57 144.64L294.378 143.509L294.891 142.93L295.138 142.747H295.446L295.895 143.193L296.407 143.957L296.744 144.718L297.103 145.902L297.282 146.142L297.552 146.298L298.266 146.142L298.665 146.194L298.956 146.298L299.356 146.802V147.143L298.93 148.035L298.976 148.376L299.336 149.349L299.379 149.742L299.336 150.347L299.111 150.793L299.042 151.163L299.155 152.581L299.088 153.345L299.29 154.002V154.653L299.155 155.391L299.356 155.866L300.587 156.575L301.75 157.365L302.843 157.97L303.203 158.285L303.652 158.913L304.903 159.228L305.168 159.359L306.917 160.725L305.671 162.594L304.961 166.148L305.312 169.997L305.013 171.641L303.401 174.714L301.617 177.029L300.055 180.189L300.274 182.068L301.174 183.538L302.466 184.611L304.463 185.15L308.117 184.666L311.486 183.821L314.778 184.099L319.416 184.4L321.113 183.512L322.23 183.769L323.97 183.468L325.478 183.338L327.408 182.971L328.588 182.256L330.936 179.839L332.938 177.573L335.542 176.41L338.215 174.448L341.058 171.921L342.327 171.47L347.641 171.551L347.632 173.183L347.658 173.169Z"
        fill="#CAAE7C" stroke="#E6F5F1" stroke-width="0.5" />
    <path
        d="M327.026 147.945L326.914 148.124L322.857 148.229L319.43 149.641L315.226 153.823L311.454 155.643L310.119 156.818L307.665 159.483L306.932 160.713L305.182 159.347L304.918 159.217L303.666 158.901L303.217 158.273L302.857 157.958L301.764 157.353L300.602 156.563L299.37 155.854L299.169 155.38L299.304 154.642V153.99L299.103 153.333L299.169 152.569L299.057 151.151L299.126 150.781L299.35 150.335L299.393 149.731L299.35 149.337L298.991 148.365L298.945 148.023L299.37 147.132V146.79L298.97 146.287L298.68 146.183L298.28 146.13L297.566 146.287L297.296 146.13L297.118 145.89L296.758 144.707L296.421 143.945L295.909 143.181L295.46 142.736H295.334L295.688 141.816L297.33 140.192L298.645 139.726L301.212 139.182L302.066 138.644L302.788 136.551L303.381 136.085L304.103 136.004L305.349 136.161L307.418 136.25L306.5 137.616L307.173 140.157L308.727 140.829L310.948 141.147L312.997 140.409L314.51 138.757L316.041 137.845L317.813 139.492L319.427 140.27L322.903 141.68L326.632 141.662L328.096 143.202L327.857 146.628L327.017 147.948L327.026 147.945Z"
        fill="#CAAE7C" stroke="#E6F5F1" stroke-width="0.5" />
    <path
        d="M272.9 166.4L272.909 168.217L272.195 169.493L269.868 170.052L262.425 177.298L261.78 177.923L259.096 181.393L258.779 182.455L258.391 183.761L258.592 186.478L258.609 189.016L257.723 190.654L254.751 193.235L254.138 193.765L250.516 196.497L247.388 186.053L247.567 185.917L249.955 183.564L252.703 180.603L253.574 179.819L254.311 179.139L255.81 177.567L256.995 176.257L258.894 173.953L259.366 173.296L259.99 172.564L261.754 170.596L265.417 165.841L267.434 162.912L268.303 161.503L271.801 164.77L272.895 166.4H272.9ZM355.613 102.408L355.389 101.653L355.308 100.128L354.995 98.7679L355.285 96.6611L354.736 95.2865L354.756 94.6093L355.147 93.5009L354.517 91.8021L354.578 91.0381L354.834 90.3725L355.061 88.9458L354.865 88.3873L354.273 87.6464L354.428 85.939L352.561 85.3978L350.19 84.2865L349.177 83.9769L347.347 83.8958L346.145 84.2489L345.126 84.084L344.594 83.6093L344.617 83.1261L344.044 82.3852L343.578 81.0048L343.676 79.0977L343.423 77.0516L342.117 74.8262L340.813 73.8509L340.131 73.6831L338.583 73.6599L334.65 74.3863L333.712 74.3805L333.074 74.2127L331.808 73.5847L330.57 72.6731L329.138 71.1769L328.021 70.5663L327.242 70.6878L326.816 70.9049L325.337 72.5863L325.058 73.1679L324.097 74.1056L322.511 75.2661L320.509 76.2934L317.275 77.5234L316.662 77.9893L316.182 78.8951L315.917 79.4015L315.563 80.7299L315.189 83.1753L314.49 85.1287L314.159 87.5451L313.595 88.095L311.503 89.0384L310.965 89.7185L310.111 91.3333L310.022 93.9003L310.399 96.6264L310.134 97.3354L309.967 97.4569L309.458 97.8245L308.353 99.4335L306.897 102.744L306.762 103.855L306.799 104.958L307.895 106.611L308.33 107.525L308.943 110.24L309.041 111.461L308.784 112.456L308.131 113.701L308.085 114.08L308.039 114.456L308.292 115.084L309.133 115.984L309.245 116.195L310.056 117.752L310.321 118.846L310.134 120.244L309.487 121.656L309.507 122.296L309.662 122.808L309.308 123.1L309.662 124.038L308.56 126.408L308.756 128.558L309.987 130.228L311.826 131.701L312.214 133.223L311.501 135.44L307.487 136.164L306.494 137.642L307.168 140.18L308.721 140.852L310.942 141.176L312.991 140.435L314.504 138.783L315.601 138.132L316.038 137.874L317.807 139.521L319.427 140.299L322.9 141.708L326.634 141.691L328.099 143.231L327.857 146.657L327.017 147.977L326.905 148.15L322.851 148.257L319.421 149.667L315.946 153.125L315.218 153.849L311.446 155.669L310.111 156.844L307.657 159.509L306.923 160.739L305.677 162.609L304.966 166.157L305.317 170.006L305.018 171.649L303.407 174.723L301.623 177.038L300.061 180.198L300.28 182.076L301.186 183.546L302.475 184.62L304.472 185.155L308.12 184.672L311.495 183.827L314.781 184.105L319.419 184.406L321.116 183.517L322.232 183.775L323.973 183.474L325.475 183.347L327.411 182.982L328.591 182.267L330.939 179.851L332.941 177.585L335.545 176.421L338.215 174.459L338.995 173.771L341.064 171.936L342.332 171.484L347.649 171.56L347.704 167.644L347.868 163.425L349.566 157.562L351.312 152.037L352.054 149.684L352.146 149.516L354.091 146.006L353.099 140.473L353.735 138.676L352.9 137.327L353.686 135.77L352.285 134.873L351.499 130.879L352.949 129.47L353.458 126.081L352.115 123.106L352.866 122.006L352.736 121.358L351.853 120.334L351.675 116.242L351.902 115.781L352.336 114.907L352.598 113.223L353.732 111.678L354.04 110.622L354.267 108.086L354.785 105.71L355.481 104.33L355.677 103.517L355.622 102.417L355.613 102.408Z"
        fill="#CAAE7C" stroke="#E6F5F1" stroke-width="0.5" />
    <path
        d="M272.9 166.4L272.909 168.217L272.195 169.493L269.868 170.052L262.425 177.298L261.78 177.923L259.096 181.393L258.779 182.455L258.391 183.761L258.592 186.478L258.609 189.016L257.723 190.654L254.751 193.235L254.138 193.765L250.516 196.497L247.388 186.053L247.567 185.917L249.955 183.564L252.703 180.603L253.574 179.819L254.311 179.139L255.81 177.567L256.995 176.257L258.894 173.953L259.366 173.296L259.99 172.564L261.754 170.596L265.417 165.841L267.434 162.912L268.303 161.503L271.801 164.77L272.895 166.4H272.9Z"
        fill="#00543E" stroke="#E6F5F1" stroke-width="0.5" />
    <defs>
        <linearGradient id="paint0_linear_1032_4835" x1="269.5" y1="184" x2="207" y2="144"
            gradientUnits="userSpaceOnUse">
            <stop stop-color="#00543E" />
            <stop offset="1" stop-color="#009971" stop-opacity="0" />
        </linearGradient>
    </defs>
</svg>
    