<svg width="366" height="358" viewBox="0 0 366 358" fill="none" xmlns="http://www.w3.org/2000/svg">
    <path d="M261 49L271.5 163L256.5 191L34 353.5L71 235L152.5 117L261 49Z" fill="url(#paint0_linear_1032_4835)"/>
    <path d="M222.754 82.1048L215.51 77.081L211.888 75.8878L206.811 75.216L204.694 73.8823L202.517 70.2323L201.824 65.2888L200.71 62.1602L198.132 58.5002L188.59 48.1519L186.021 44.3815L206.69 14.5499L215.47 0.391113L251.249 33.6622L262.467 50.2175L262.557 68.668L255.293 81.5332L231.513 87.1987L222.754 82.1048Z" fill="#009971"/>
    <path d="M215.52 0.78214L251.029 33.8126L262.206 50.3077L262.296 68.6078L255.112 81.3226L231.533 86.938L222.895 81.9243L215.64 76.8805L215.58 76.8404L215.51 76.8203L211.958 75.6671H211.918L211.868 75.6471L206.881 74.9853L204.864 73.7118L202.767 70.2022L202.065 65.2586V65.2085L202.045 65.1584L200.941 62.0799L200.921 62.0198L200.881 61.9596L198.333 58.3598L198.312 58.3297L198.292 58.3096L188.801 48.0114L186.322 44.3915L206.901 14.6802L215.52 0.792177M215.42 0L206.48 14.4094L185.72 44.3815L188.409 48.3223L197.921 58.6505L200.47 62.2504L201.573 65.3288L202.296 70.3726L204.503 74.0728L206.711 75.4666L211.808 76.1384L215.359 77.2916L222.614 82.3354L231.453 87.4795L255.433 81.7638L262.788 68.7482L262.688 50.1573L251.39 33.4917L215.39 0.0100219L215.42 0Z" fill="white"/>
    <path d="M154.486 149.71L151.165 137.115L148.356 132.763L145.546 131.38L133.255 127.81L118.997 127.198L123.533 120.851L129.964 113.33L148.175 93.2051L185.7 44.8026L188.199 48.4626L197.741 58.8109L200.269 62.3908L201.343 65.409L202.045 70.4027L204.323 74.2432L206.63 75.6972L211.777 76.3791L215.289 77.5222L222.483 82.5359L231.062 87.5195L155.038 161.061L154.486 149.71Z" fill="#183938"/>
    <path d="M185.69 45.2338L187.998 48.603L188.018 48.6331L188.038 48.6632L197.53 58.9714L200.018 62.4911L201.082 65.4492L201.794 70.4428V70.5431L201.864 70.6334L204.072 74.3335L204.132 74.4338L204.232 74.4939L206.44 75.8877L206.53 75.9479H206.64L211.687 76.6298L215.129 77.7428L222.363 82.7666L230.63 87.5697L155.239 160.499L154.717 149.69V149.64L154.697 149.59L151.376 137.055L151.356 136.975L151.315 136.905L148.576 132.673L148.496 132.553L148.376 132.493L145.636 131.149L145.596 131.129H145.556L133.295 127.559L133.235 127.539H133.175L119.439 126.948L123.683 121.011L130.115 113.481L148.356 93.3255L185.66 45.2138M185.72 44.3815L147.994 93.0447L129.773 113.17L123.332 120.71L118.526 127.439L133.185 128.061L145.446 131.61L148.185 132.954L150.924 137.186L154.245 149.72L154.817 161.632L231.473 87.4695L222.634 82.3254L215.379 77.2816L211.828 76.1284L206.731 75.4566L204.523 74.0628L202.316 70.3626L201.593 65.3188L200.49 62.2404L197.941 58.6405L188.429 48.3123L185.74 44.3715L185.72 44.3815Z" fill="white"/>
    <path d="M109.867 212.873L107.74 211.569L100.726 204.54L98.9104 203.357L71.9403 193.58L66.9336 190.662L64.0841 187.493L71.4988 180.695L86.9304 164.591L99.1512 151.184L118.636 127.69L133.175 128.301L145.366 131.851L148.004 133.145L150.703 137.316L153.994 149.78L154.556 161.532L148.004 167.839L120.392 203.317L117.141 214.046L109.867 212.873Z" fill="#2B6766"/>
    <path d="M118.747 127.94L133.095 128.552L145.255 132.082L147.834 133.345L150.453 137.386L153.734 149.79L154.295 161.422L147.824 167.649L147.794 167.669L147.774 167.699L120.181 203.146L120.121 203.216L120.091 203.307L116.951 213.745L109.987 212.632L107.91 211.369L100.887 204.349L100.847 204.309L100.807 204.279L99.0308 203.126L98.9806 203.096L98.9305 203.076L72.0607 193.339L67.1242 190.471L64.4352 187.493L71.6895 180.845L87.131 164.741L99.3519 151.324L118.757 127.93M118.526 127.429L98.9606 151.013L86.7498 164.41L71.3182 180.504L63.7228 187.473L66.8031 190.883L71.85 193.811L98.7699 203.557L100.546 204.71L107.609 211.77L109.817 213.113L117.312 214.317L120.583 203.457L148.175 168.01L154.807 161.622L154.235 149.71L150.914 137.176L148.175 132.944L145.436 131.6L133.175 128.051L118.516 127.429H118.526Z" fill="white"/>
    <path d="M71.1276 313.177L66.6226 292.711L65.4085 289.503L63.8734 287.607L60.9436 285.592L44.5187 277.55L31.9467 270.21L7.64553 252.261L2.26756 249.794L26.659 225.989L54.9736 195.716L63.7128 187.824L66.6226 191.053L71.7296 194.031L98.6796 203.798L100.415 204.931L107.439 211.96L109.696 213.334L117.001 214.527L113.088 227.603L115.145 255.51L115.345 281.41L106.235 298.116L75.9336 324.248L71.1276 313.177Z" fill="#00543E"/>
    <path d="M63.6927 188.185L66.4319 191.224L66.4821 191.284L66.5523 191.324L71.5992 194.252L71.6393 194.272L71.6794 194.292L98.5392 204.019L100.225 205.112L107.248 212.131L107.288 212.171L107.339 212.201L109.546 213.545L109.626 213.595L109.727 213.615L116.66 214.728L112.837 227.533L112.807 227.623V227.713L114.884 255.489L115.074 281.35L106.044 297.916L76.0139 323.826L71.3584 313.107L66.8533 292.641V292.601L66.8332 292.571L65.6292 289.402L65.5991 289.322L65.549 289.262L64.064 287.437L64.0138 287.377L63.9536 287.337L61.074 285.371L61.0439 285.351L61.0138 285.331L44.6592 277.329L32.0872 269.989L7.78598 252.04L7.74585 252.01L7.69568 251.99L2.68895 249.704L26.8396 226.129L55.1141 195.896L63.6827 188.165M63.7329 187.473L54.793 195.545L26.4885 225.808L1.83611 249.874L7.50504 252.471L31.8263 270.44L44.4184 277.791L60.8031 285.812L63.6827 287.778L65.1677 289.603L66.3717 292.772L70.8868 313.278L75.8333 324.659L106.446 298.236L115.576 281.471L115.385 255.479L113.319 227.663L117.312 214.307L109.817 213.103L107.609 211.76L100.546 204.7L98.7699 203.547L71.85 193.801L66.8031 190.873L63.7228 187.463L63.7329 187.473Z" fill="white"/>
    <path d="M0.290916 251.358L1.85615 250.165L7.39465 252.692L31.6657 270.631L44.2879 277.991L60.6927 286.023L63.5422 287.978L64.977 289.753L66.1409 292.852L70.646 313.328L75.5423 324.589L69.4319 329.853L32.4383 357.579L0.290916 251.358Z" fill="#009971"/>
    <path d="M1.89633 250.446L7.24419 252.892L31.5253 270.821L31.5454 270.841H31.5654L44.1876 278.222L60.5422 286.224L63.3316 288.129L64.7262 289.833L65.8901 292.892L70.3952 313.368V313.418L70.4253 313.458L75.2313 324.508L69.2915 329.622L32.5688 357.148L0.581936 251.448L1.89633 250.446ZM1.82609 249.874L-7.62939e-06 251.268L32.2979 358L69.5925 330.043L75.8434 324.659L70.8968 313.278L66.3818 292.771L65.1777 289.603L63.6928 287.778L60.8131 285.812L44.4284 277.79L31.8363 270.44L7.5151 252.471L1.84616 249.874H1.82609Z" fill="white"/>
    <path d="M37.3649 241.798H39.4419V245.663H43.6091V241.798H45.6862V251H43.6091V247.332H39.4419V251H37.3649V241.798ZM50.1704 247.937C49.7847 247.937 49.4955 248.003 49.3027 248.134C49.1099 248.266 49.0135 248.476 49.0135 248.765C49.0135 249.046 49.1099 249.269 49.3027 249.436C49.5043 249.593 49.776 249.672 50.1178 249.672C50.4157 249.672 50.6787 249.624 50.9065 249.528C51.1431 249.422 51.336 249.287 51.4849 249.12C51.6427 248.945 51.7391 248.743 51.7741 248.515L52.0765 249.646C51.8749 250.119 51.5594 250.479 51.13 250.724C50.7006 250.969 50.1747 251.092 49.5525 251.092C49.053 251.092 48.6191 250.996 48.2511 250.803C47.8917 250.61 47.6113 250.347 47.4097 250.014C47.2169 249.681 47.1205 249.304 47.1205 248.884C47.1205 248.226 47.3528 247.709 47.8172 247.332C48.2817 246.955 48.9478 246.763 49.8154 246.754H51.9713V247.937H50.1704ZM51.761 246.622C51.761 246.237 51.6339 245.934 51.3798 245.715C51.1344 245.496 50.7707 245.387 50.2887 245.387C49.9732 245.387 49.6358 245.444 49.2764 245.558C48.9171 245.663 48.5534 245.816 48.1853 246.018L47.5543 244.703C47.9049 244.519 48.2467 244.366 48.5797 244.243C48.9127 244.12 49.2545 244.028 49.6051 243.967C49.9556 243.897 50.3369 243.862 50.7488 243.862C51.704 243.862 52.4402 244.085 52.9573 244.532C53.4743 244.979 53.7373 245.597 53.746 246.386L53.7592 251H51.7741L51.761 246.622ZM60.5385 247.135C60.5385 246.671 60.4114 246.307 60.1573 246.044C59.9119 245.781 59.5745 245.65 59.1451 245.65C58.6455 245.658 58.2511 245.838 57.9619 246.189C57.6727 246.539 57.5281 246.982 57.5281 247.516H57.0154C57.0154 246.693 57.1337 246.013 57.3704 245.479C57.6158 244.935 57.9575 244.532 58.3957 244.269C58.8427 243.998 59.3685 243.862 59.9732 243.862C60.4991 243.862 60.9548 243.976 61.3404 244.204C61.7348 244.423 62.0371 244.734 62.2475 245.137C62.4578 245.54 62.563 246.018 62.563 246.57V251H60.5385V247.135ZM55.5037 243.941H57.5281V251H55.5037V243.941ZM66.8413 241.798H68.9315L71.2846 245.991L73.5851 241.798H75.6753L71.4161 249.646H71.14L66.8413 241.798ZM70.2461 247.017H72.3231V251H70.2461V247.017ZM78.0636 247.819C78.0636 248.274 78.1819 248.634 78.4185 248.897C78.6551 249.16 78.9794 249.291 79.3913 249.291C79.8821 249.282 80.2633 249.103 80.535 248.752C80.8154 248.402 80.9556 247.959 80.9556 247.424H81.442C81.442 248.248 81.3237 248.932 81.0871 249.475C80.8592 250.01 80.5306 250.408 80.1012 250.671C79.6805 250.934 79.1766 251.07 78.5894 251.079C78.0636 251.079 77.6122 250.969 77.2354 250.75C76.8585 250.522 76.5649 250.207 76.3546 249.804C76.1443 249.401 76.0391 248.923 76.0391 248.371V243.941H78.0636V247.819ZM80.9556 243.941H82.9669V251H80.9556V243.941ZM89.9626 247.135C89.9626 246.671 89.8355 246.307 89.5814 246.044C89.336 245.781 88.9986 245.65 88.5691 245.65C88.0696 245.658 87.6752 245.838 87.386 246.189C87.0968 246.539 86.9522 246.982 86.9522 247.516H86.4395C86.4395 246.693 86.5578 246.013 86.7944 245.479C87.0398 244.935 87.3816 244.532 87.8198 244.269C88.2668 243.998 88.7926 243.862 89.3973 243.862C89.9231 243.862 90.3789 243.976 90.7645 244.204C91.1589 244.423 91.4612 244.734 91.6715 245.137C91.8819 245.54 91.987 246.018 91.987 246.57V251H89.9626V247.135ZM84.9277 243.941H86.9522V251H84.9277V243.941ZM95.5485 247.819C95.5485 248.274 95.6668 248.634 95.9035 248.897C96.1401 249.16 96.4644 249.291 96.8763 249.291C97.367 249.282 97.7483 249.103 98.02 248.752C98.3004 248.402 98.4406 247.959 98.4406 247.424H98.927C98.927 248.248 98.8087 248.932 98.5721 249.475C98.3442 250.01 98.0156 250.408 97.5861 250.671C97.1655 250.934 96.6616 251.07 96.0744 251.079C95.5485 251.079 95.0972 250.969 94.7203 250.75C94.3435 250.522 94.0499 250.207 93.8396 249.804C93.6292 249.401 93.5241 248.923 93.5241 248.371V243.941H95.5485V247.819ZM98.4406 243.941H100.452V251H98.4406V243.941ZM106.869 245.965C106.484 245.755 106.102 245.593 105.725 245.479C105.349 245.356 105.011 245.295 104.713 245.295C104.477 245.295 104.279 245.339 104.122 245.426C103.973 245.514 103.898 245.654 103.898 245.847C103.898 246.031 103.986 246.18 104.161 246.294C104.345 246.399 104.577 246.491 104.858 246.57C105.147 246.649 105.449 246.741 105.765 246.846C106.08 246.942 106.378 247.069 106.659 247.227C106.948 247.385 107.18 247.6 107.356 247.871C107.531 248.134 107.618 248.476 107.618 248.897C107.618 249.37 107.491 249.773 107.237 250.106C106.983 250.43 106.637 250.676 106.199 250.842C105.761 251 105.274 251.079 104.74 251.079C104.17 251.079 103.618 250.996 103.083 250.829C102.549 250.663 102.08 250.417 101.677 250.093L102.334 248.778C102.702 249.059 103.105 249.278 103.543 249.436C103.99 249.585 104.407 249.659 104.792 249.659C104.967 249.659 105.121 249.637 105.252 249.593C105.384 249.55 105.489 249.484 105.568 249.396C105.647 249.309 105.686 249.199 105.686 249.068C105.686 248.875 105.598 248.721 105.423 248.607C105.248 248.485 105.02 248.384 104.74 248.305C104.459 248.217 104.161 248.13 103.846 248.042C103.53 247.946 103.232 247.819 102.952 247.661C102.68 247.503 102.457 247.297 102.281 247.043C102.106 246.78 102.018 246.443 102.018 246.031C102.018 245.54 102.145 245.137 102.4 244.821C102.654 244.497 102.991 244.256 103.412 244.098C103.832 243.941 104.297 243.862 104.805 243.862C105.296 243.862 105.778 243.928 106.251 244.059C106.733 244.19 107.172 244.379 107.566 244.624L106.869 245.965Z" fill="white"/>
    <path d="M88.5958 164.798H90.9095L93.7752 170.53L96.6147 164.798H98.9153V174H97.0486V167.664L94.4325 173.067H93.0917L90.4625 167.664V174H88.5958V164.798ZM105.533 169.899C105.525 169.574 105.454 169.298 105.323 169.07C105.2 168.834 105.021 168.65 104.784 168.518C104.547 168.387 104.276 168.321 103.969 168.321C103.627 168.321 103.329 168.409 103.075 168.584C102.821 168.759 102.624 169 102.483 169.307C102.343 169.614 102.273 169.969 102.273 170.372C102.273 170.827 102.352 171.217 102.51 171.542C102.667 171.866 102.891 172.116 103.18 172.291C103.469 172.466 103.802 172.554 104.179 172.554C104.863 172.554 105.459 172.3 105.967 171.791L107.032 172.843C106.681 173.238 106.248 173.54 105.73 173.75C105.222 173.961 104.648 174.066 104.008 174.066C103.255 174.066 102.602 173.917 102.05 173.619C101.497 173.321 101.068 172.905 100.761 172.37C100.463 171.827 100.314 171.2 100.314 170.49C100.314 169.763 100.468 169.132 100.774 168.597C101.081 168.054 101.506 167.633 102.05 167.335C102.602 167.037 103.237 166.884 103.956 166.875C104.788 166.875 105.468 167.05 105.993 167.401C106.528 167.743 106.914 168.229 107.15 168.86C107.396 169.482 107.488 170.223 107.426 171.082H101.984V169.899H105.533ZM113.127 168.689C112.654 168.645 112.238 168.702 111.878 168.86C111.528 169.018 111.256 169.246 111.063 169.544C110.879 169.842 110.787 170.196 110.787 170.608L110.275 170.516C110.275 169.745 110.389 169.088 110.616 168.544C110.853 168.001 111.186 167.585 111.616 167.296C112.045 167.006 112.549 166.862 113.127 166.862V168.689ZM108.763 166.941H110.787V174H108.763V166.941ZM114.298 164.246H116.322V174H114.298V164.246ZM118.912 166.941H121.212L116.204 172.186V169.806L118.912 166.941ZM118.452 169.425L121.331 174H118.938L116.966 170.635L118.452 169.425ZM126.626 169.899C126.617 169.574 126.547 169.298 126.415 169.07C126.293 168.834 126.113 168.65 125.876 168.518C125.64 168.387 125.368 168.321 125.061 168.321C124.72 168.321 124.422 168.409 124.167 168.584C123.913 168.759 123.716 169 123.576 169.307C123.436 169.614 123.365 169.969 123.365 170.372C123.365 170.827 123.444 171.217 123.602 171.542C123.76 171.866 123.983 172.116 124.273 172.291C124.562 172.466 124.895 172.554 125.272 172.554C125.955 172.554 126.551 172.3 127.059 171.791L128.124 172.843C127.774 173.238 127.34 173.54 126.823 173.75C126.315 173.961 125.741 174.066 125.101 174.066C124.347 174.066 123.694 173.917 123.142 173.619C122.59 173.321 122.16 172.905 121.854 172.37C121.556 171.827 121.407 171.2 121.407 170.49C121.407 169.763 121.56 169.132 121.867 168.597C122.174 168.054 122.599 167.633 123.142 167.335C123.694 167.037 124.33 166.884 125.048 166.875C125.881 166.875 126.56 167.05 127.086 167.401C127.62 167.743 128.006 168.229 128.243 168.86C128.488 169.482 128.58 170.223 128.519 171.082H123.076V169.899H126.626ZM129.449 166.941L135.496 166.954V168.19L131.855 172.475H135.628V174.013L129.331 174V172.764L132.972 168.479H129.449V166.941ZM137.006 166.941H139.03V174H137.006V166.941ZM138.018 163.825C138.342 163.825 138.605 163.93 138.807 164.141C139.017 164.351 139.122 164.614 139.122 164.929C139.122 165.245 139.017 165.508 138.807 165.718C138.605 165.928 138.342 166.034 138.018 166.034C137.711 166.034 137.453 165.928 137.243 165.718C137.032 165.508 136.927 165.245 136.927 164.929C136.927 164.614 137.032 164.351 137.243 164.141C137.453 163.93 137.711 163.825 138.018 163.825Z" fill="white"/>
    <path d="M159.155 101.44C158.822 101.116 158.428 100.862 157.972 100.678C157.525 100.494 157.078 100.402 156.631 100.402C156.219 100.402 155.838 100.481 155.487 100.638C155.137 100.787 154.83 100.998 154.567 101.269C154.304 101.541 154.098 101.857 153.949 102.216C153.809 102.575 153.739 102.965 153.739 103.386C153.739 103.806 153.813 104.201 153.962 104.569C154.111 104.928 154.317 105.248 154.58 105.529C154.843 105.8 155.15 106.015 155.5 106.173C155.851 106.322 156.232 106.396 156.644 106.396C157.021 106.396 157.429 106.313 157.867 106.146C158.305 105.98 158.704 105.756 159.063 105.476L160.246 106.935C159.922 107.163 159.549 107.369 159.129 107.553C158.717 107.737 158.283 107.882 157.827 107.987C157.372 108.092 156.933 108.145 156.513 108.145C155.812 108.145 155.163 108.026 154.567 107.79C153.98 107.544 153.463 107.207 153.016 106.777C152.569 106.348 152.223 105.844 151.977 105.266C151.732 104.678 151.609 104.052 151.609 103.386C151.609 102.72 151.736 102.102 151.991 101.532C152.245 100.954 152.595 100.45 153.042 100.02C153.498 99.591 154.033 99.258 154.646 99.0214C155.259 98.7848 155.921 98.6665 156.631 98.6665C157.087 98.6665 157.538 98.7234 157.985 98.8374C158.432 98.9425 158.857 99.0959 159.26 99.2975C159.663 99.499 160.018 99.74 160.325 100.02L159.155 101.44ZM158.445 103.373H160.246V106.935H158.445V103.373ZM164.52 104.937C164.134 104.937 163.845 105.003 163.652 105.134C163.46 105.266 163.363 105.476 163.363 105.765C163.363 106.046 163.46 106.269 163.652 106.436C163.854 106.593 164.126 106.672 164.467 106.672C164.765 106.672 165.028 106.624 165.256 106.528C165.493 106.422 165.686 106.287 165.835 106.12C165.992 105.945 166.089 105.743 166.124 105.515L166.426 106.646C166.225 107.119 165.909 107.479 165.48 107.724C165.05 107.969 164.524 108.092 163.902 108.092C163.403 108.092 162.969 107.996 162.601 107.803C162.241 107.61 161.961 107.347 161.759 107.014C161.567 106.681 161.47 106.304 161.47 105.884C161.47 105.226 161.702 104.709 162.167 104.332C162.631 103.955 163.298 103.763 164.165 103.754H166.321V104.937H164.52ZM166.111 103.622C166.111 103.237 165.984 102.934 165.729 102.715C165.484 102.496 165.12 102.387 164.638 102.387C164.323 102.387 163.985 102.444 163.626 102.558C163.267 102.663 162.903 102.816 162.535 103.018L161.904 101.703C162.255 101.519 162.596 101.366 162.929 101.243C163.262 101.12 163.604 101.028 163.955 100.967C164.305 100.897 164.687 100.862 165.098 100.862C166.054 100.862 166.79 101.085 167.307 101.532C167.824 101.979 168.087 102.597 168.096 103.386L168.109 108H166.124L166.111 103.622ZM169.421 100.941L175.469 100.954V102.19L171.827 106.475H175.6V108.013L169.303 108V106.764L172.945 102.479H169.421V100.941ZM176.623 100.941L182.67 100.954V102.19L179.029 106.475H182.802V108.013L176.505 108V106.764L180.146 102.479H176.623V100.941ZM188.743 103.899C188.734 103.574 188.664 103.298 188.533 103.07C188.41 102.834 188.23 102.65 187.994 102.518C187.757 102.387 187.486 102.321 187.179 102.321C186.837 102.321 186.539 102.409 186.285 102.584C186.031 102.759 185.834 103 185.693 103.307C185.553 103.614 185.483 103.969 185.483 104.372C185.483 104.827 185.562 105.217 185.72 105.542C185.877 105.866 186.101 106.116 186.39 106.291C186.679 106.466 187.012 106.554 187.389 106.554C188.073 106.554 188.669 106.3 189.177 105.791L190.242 106.843C189.891 107.238 189.457 107.54 188.94 107.75C188.432 107.961 187.858 108.066 187.218 108.066C186.465 108.066 185.812 107.917 185.259 107.619C184.707 107.321 184.278 106.905 183.971 106.37C183.673 105.827 183.524 105.2 183.524 104.49C183.524 103.763 183.678 103.132 183.984 102.597C184.291 102.054 184.716 101.633 185.259 101.335C185.812 101.037 186.447 100.884 187.166 100.875C187.998 100.875 188.677 101.05 189.203 101.401C189.738 101.743 190.123 102.229 190.36 102.86C190.605 103.482 190.697 104.223 190.636 105.082H185.194V103.899H188.743Z" fill="white"/>
    <path d="M207.932 41.1274H210.009V45.5049L213.821 41.1274H216.24L210.009 48.0027V50.3295H207.932V41.1274ZM212.599 44.7162L216.463 50.3295H213.979L211.218 46.3594L212.599 44.7162ZM219.399 47.1482C219.399 47.6039 219.517 47.9632 219.754 48.2261C219.99 48.4891 220.315 48.6205 220.727 48.6205C221.217 48.6117 221.599 48.4321 221.87 48.0815C222.151 47.731 222.291 47.2884 222.291 46.7538H222.777C222.777 47.5776 222.659 48.2612 222.422 48.8046C222.195 49.3391 221.866 49.7379 221.437 50.0008C221.016 50.2637 220.512 50.3996 219.925 50.4083C219.399 50.4083 218.948 50.2988 218.571 50.0797C218.194 49.8518 217.9 49.5363 217.69 49.1332C217.48 48.7301 217.374 48.2524 217.374 47.7003V43.2702H219.399V47.1482ZM222.291 43.2702H224.302V50.3295H222.291V43.2702ZM225.908 43.2702L231.955 43.2833V44.519L228.314 48.8046H232.087V50.3426L225.79 50.3295V49.0938L229.431 44.8082H225.908V43.2702ZM238.028 46.228C238.019 45.9037 237.949 45.6276 237.818 45.3998C237.695 45.1632 237.515 44.9791 237.279 44.8477C237.042 44.7162 236.77 44.6505 236.464 44.6505C236.122 44.6505 235.824 44.7381 235.57 44.9134C235.315 45.0887 235.118 45.3297 234.978 45.6364C234.838 45.9431 234.768 46.2981 234.768 46.7012C234.768 47.1569 234.847 47.5469 235.004 47.8712C235.162 48.1955 235.386 48.4452 235.675 48.6205C235.964 48.7958 236.297 48.8834 236.674 48.8834C237.357 48.8834 237.953 48.6293 238.462 48.121L239.527 49.1726C239.176 49.567 238.742 49.8694 238.225 50.0797C237.717 50.29 237.143 50.3952 236.503 50.3952C235.749 50.3952 235.096 50.2462 234.544 49.9482C233.992 49.6503 233.563 49.234 233.256 48.6994C232.958 48.156 232.809 47.5294 232.809 46.8195C232.809 46.0921 232.962 45.4611 233.269 44.9265C233.576 44.3832 234.001 43.9625 234.544 43.6645C235.096 43.3666 235.732 43.2132 236.45 43.2044C237.283 43.2044 237.962 43.3797 238.488 43.7303C239.023 44.0721 239.408 44.5584 239.645 45.1894C239.89 45.8117 239.982 46.5522 239.921 47.4111H234.479V46.228H238.028ZM244.458 51.1445C244.203 51.7492 243.862 52.2049 243.432 52.5117C243.003 52.8184 242.481 52.9718 241.868 52.9718C241.5 52.9718 241.158 52.9148 240.842 52.8009C240.536 52.6957 240.238 52.5292 239.949 52.3013L240.803 50.8947C241.11 51.1401 241.416 51.2628 241.723 51.2628C241.934 51.2628 242.118 51.2059 242.275 51.0919C242.433 50.9868 242.56 50.8246 242.657 50.6055L242.854 50.1849L239.922 43.2702H242.012L243.866 48.213L245.535 43.2702H247.56L244.458 51.1445Z" fill="white"/>
    <path d="M345.138 84.0724L344.605 83.5978L344.628 83.1145L344.059 82.3737L343.593 80.9932L343.69 79.0861L343.437 77.0401L342.131 74.8146L340.828 73.8394L340.146 73.6715L338.601 73.6426L334.668 74.369L333.73 74.3632L333.091 74.1953L331.825 73.5673L330.593 72.6557L329.155 71.1596L328.044 70.549L327.265 70.6676L326.836 70.8847L326.387 71.3969L325.961 70.6734L325.76 70.4621L324.822 70.0917L324.557 69.9036L323.95 68.7634L323.726 68.5521L323.435 68.4219L322.969 68.6042L322.385 69.5621L321.513 69.9846L321.271 70.1959L321.136 70.9136L320.958 71.1798L320.44 71.339L319.908 72.32L319.571 72.6123L319.082 72.7947H318.857L317.537 72.3721H316.285L315.949 72.2651L315.658 71.9236L315.457 71.4461L315.143 71.3158L315.008 71.42L314.648 71.449L314.406 70.8152L314.159 70.6271L313.67 70.4679L313.512 69.9615L313.759 69.1396L313.802 68.5058L313.601 68.2656L313.158 68.0775L312.956 67.626L312.798 67.545L312.421 67.574L312.197 67.3569L312.062 66.8534V66.0546L311.748 65.7132L311.593 65.6582L311.365 65.4469L311.299 65.0765L311.48 64.8102L311.794 64.706H312.395L313.02 64.9694L313.397 65.0244L313.891 64.9173L313.958 64.57L313.779 64.3067L312.571 63.9883L312.306 63.6179L312.26 63.2186L312.349 62.66L312.663 62.1015L312.887 61.8613L313.336 61.679H313.736L314.225 61.8092L315.12 62.2607H315.48L315.721 62.0494L315.969 61.65L316.547 60.2696L316.818 59.8934L318.227 59.1004L318.446 58.8834L318.581 58.5911L318.558 58.0094L318.294 57.6332L317.911 57.3409L317.781 57.0226L317.825 56.0647L317.937 55.7464L318.138 55.5351L318.34 55.5062L318.564 55.7232L318.97 56.412L319.125 56.493L319.416 56.3859L319.928 55.8042L320.063 55.509L320.132 55.1386V54.9274L319.951 54.4499L320.71 53.8913L320.889 53.6511L320.935 53.463L320.575 52.5051L320.532 52.1058L320.575 51.9234L321.761 50.0308L321.807 49.4723L321.962 48.9658L321.939 48.5433L321.784 48.0918L321.358 47.4262L320.774 45.9908L320.756 45.4033L321.07 44.1792L321.001 43.8088L320.489 43.4326L318.99 42.9811L318.164 42.2634L317.451 41.8872V41.5399L317.715 40.5039L317.738 40.0814L317.56 39.8383L317.134 39.5981L316.82 39.2566L316.642 38.7791L316.573 38.1916L316.423 38.154L316.662 36.4031L316.34 35.451L315.779 35.5321L315.624 35.3034L315.442 35.1674L315.178 35.1443L315.088 35.2253V35.4366L314.93 35.3845L314.729 35.4076V35.1964L315.088 34.2385L315.132 33.5439L315.445 32.2387L315.468 31.4631L315.537 31.304L315.514 30.9856L315.557 30.9567V30.6905L315.649 30.3721L315.626 30.2419L315.828 29.7355V29.4953L315.963 29.4403V28.7226L316.052 28.6415L316.118 28.2422L316.432 27.6547L316.409 27.2785L316.343 27.1483L316.409 27.0933V26.746L316.521 26.5347L316.501 26.2685L316.631 25.9762L316.608 25.8952L316.72 25.8402L316.677 25.5739L316.832 25.2556L316.901 24.8562L317.013 24.6392L317.056 24.2398L317.281 23.8405L317.192 23.7884V23.5713L317.416 23.3832L317.37 23.3311L317.439 23.1141L317.393 22.9839L317.551 22.7437L317.505 22.4774H317.571L317.554 22.1851L317.661 22.1012L317.684 21.4906L317.773 21.3025L317.819 20.4198L317.908 20.2606V19.9683L317.842 19.8844V18.9728L321.43 18.9207L323.964 18.7037L326.816 19.2014L327.095 19.0799L327.558 18.5764L328.487 18.2725L331.465 18.1741L334.564 17.7371L336.155 18.1162L337.507 20.7034L338.264 21.5774L339.478 22.3009L339.944 22.4369L341.987 21.5224L344.194 21.343L344.778 21.0333L346.15 19.705L346.547 19.1609L347.206 18.6719L347.557 18.6342L348.976 18.9757L350.334 18.4606L350.527 18.232L350.633 17.0165L350.814 16.6142L352.345 15.9631L352.745 14.9994L352.909 12.8955L353.412 10.563L353.93 9.65717L354.327 8.58641L354.261 7.41725L353.971 6.10339L354.008 5.35096L354.693 3.77955L355.159 3.38597L355.916 2.38755L356.687 0.680116L356.879 0.477539L357.443 0.943466L359.348 3.67536L359.662 3.77376L359.955 3.48726L360.628 4.12103L361.227 4.26573L361.828 4.10946L362.884 3.54224L363.365 3.48147L364.377 3.61748L364.841 3.88952L364.915 4.1384L364.225 5.74454L363.833 7.2523L363.779 9.35042L363.923 10.6324L364.311 12.308L364.305 12.9563L364.006 14.1254L362.806 17.3464L362.588 19.4503L362.559 21.9478L362.326 21.6758L361.463 21.9391L361.086 22.379L360.254 23.9736L358.934 25.3019L358.962 25.7534L359.892 27.51L360.027 29.7297L359.673 34.6494L359.509 35.4713L359.043 36.5073L359.02 37.0051L359.187 37.4131L359.555 37.6186L360.156 37.3552L360.493 37.9369L361.204 38.7009L362.248 40.7614L362.599 41.673L362.818 43.1982L362.662 44.6451L362.099 46.8098L361.955 50.2941L361.707 51.9755L360.807 53.8711L359.282 55.4309L359.259 55.619L359.843 56.0358L361.382 56.7361L361.609 56.9908L361.653 57.5927L359.385 58.5882L358.862 59.1902L359.011 60.5387L358.102 60.9005L358.14 61.4822L357.944 61.7108L357.233 61.9134L356.071 62.8018L355.964 63.7829L356.218 64.0781L356.1 65.499L356.281 65.9389L356.879 66.2688L357.038 66.8649L356.655 67.7563L356.6 68.6534L357.426 70.3753L357.345 70.5721L356.543 70.5634L356.399 71.4634L356.031 71.4548L355.564 71.1451L355.392 71.2377L355.444 71.8049L355.985 72.6876L355.806 72.9886L354.995 73.1622L354.566 73.767L354.949 74.0593L355.467 74.0449L355.979 75.2227L356.58 75.4658L356.735 75.7233L356.638 76.2124L355.645 78.0096L355.576 78.4929L355.703 78.9241L356.37 79.254L356.534 79.5723L356.333 80.0411L355.941 80.0556L355.671 80.3045L355.867 81.5662L354.923 81.8614L355.156 84.0203L355.015 84.3734L354.414 84.5528L354.33 84.7091L355.101 86.0143L354.442 85.9477L352.575 85.4065L350.204 84.2952L349.197 83.9856L347.367 83.9046L346.165 84.2576L345.146 84.0927L345.138 84.0724Z" fill="#CAAE7C" stroke="#E6F5F1" stroke-width="0.5"/>
    <path d="M298.628 84.0782L298.582 83.9972L298.674 83.7801L298.829 83.7049L298.896 83.4878V83.4357H298.677L298.806 83.2534V83.1174L298.919 82.9061L299.1 82.8251L299.077 82.7441L299.12 82.7209L299.457 81.0772L299.503 80.3074L299.744 79.5665L299.88 78.8488L299.701 78.3742H298.717V78.2382L299.589 78.215L299.655 78.16L299.701 77.9488L299.79 78.0298L299.813 78.2179H300.078L300.101 78.1629H299.946L299.877 78.0877V77.9806L299.966 77.9517L300.012 77.7694V77.6623L299.923 77.6334V77.5581L300.012 77.5292L300.035 77.6102H300.101L300.213 77.5292L300.167 77.4481L300.19 77.1558L300.438 76.7275L300.392 76.5973L300.262 76.6494L300.239 76.279L300.328 76.2269V76.0156L300.418 75.8565L300.372 75.7494L300.53 75.5671V75.379L300.441 75.2979L300.484 74.9825L300.665 74.8465L300.688 74.476L300.907 74.1837L300.688 74.1548L300.665 74.0246H300.777L300.907 73.7323L301.088 72.9336L301.177 72.8033L301.2 72.4618L301.312 72.2448L301.289 71.9033L301.154 71.8744L301.088 71.7933V71.53L301.2 71.1827L301.379 71.0004L301.537 71.0235L301.666 70.7602L301.643 70.6531L301.488 70.63V70.4708L301.376 70.3898L301.64 69.8833L301.574 69.7531L301.597 69.5418L301.733 69.3827L301.911 68.72L302 68.772L302.046 68.665L302 68.4826L302.179 68.1354L302.135 67.9241L301.977 67.7649V67.6058L302.135 67.4466L302.202 67.0762L302.112 67.0241V66.8881L302.248 66.4945L302.377 66.3064L302.311 66.1993L302.377 66.017L302.36 65.5655L302.449 65.3774V65.1372L302.38 65.0851L302.472 64.8189L302.561 63.9681L302.673 63.9391L302.786 63.6758L302.829 62.906L302.964 62.3185L303.119 62.0552L302.99 61.9741L303.102 61.3867L303.079 60.9641L303.28 60.776L303.303 60.669L303.326 59.8181L303.456 58.9413L303.433 58.1483L303.525 57.9602V57.8792L303.433 57.7982V57.6679L303.479 57.6129L303.456 57.4306L303.591 57.3235L303.568 57.1644L303.456 57.0833V56.8721L303.591 56.4727V56.2615L303.839 55.9663V55.8361L304.017 55.6479L304.331 55.6769L304.555 55.3846L304.71 55.0373L304.802 54.638L304.733 54.3978L304.892 54.2097L304.981 53.2286L305.159 52.8003L305.318 50.9424L305.407 50.5951V49.7703L305.45 49.3999L305.542 49.1886L305.648 47.8314L305.559 47.4031H305.671L305.694 47.351L305.761 46.7114L305.743 46.3873L305.631 46.176H305.697L305.743 46.095L305.809 46.176L305.876 46.1471V46.066L305.809 46.0429L305.876 45.8259L305.786 45.7448L305.72 45.5046V44.6538L305.833 44.5236L305.743 44.3644L305.873 44.2052L306.074 44.2573L306.569 43.7798L306.811 43.7248L307.104 43.7538L307.504 43.5425L307.593 43.3834L307.66 43.3284L307.729 43.3573L307.795 43.2502H307.996L308.29 43.3862L308.491 43.7567H308.692L308.805 43.8638L309.205 44.0229L309.446 44.0461V44.1271L309.558 44.2631L310.166 44.2921L310.744 44.1271V44.211L310.479 44.3152L310.433 44.2631L310.255 44.3933H310.166L309.604 44.3413L309.268 44.2342L308.868 43.9419L308.69 43.994L308.802 44.0229L308.845 44.1271L308.934 44.156L308.917 44.2631L309.383 44.5033L309.449 44.6335L309.541 44.6625L309.671 44.8217L309.717 45.0098L309.806 44.9548V44.6914H309.895L309.941 44.9316H310.053L310.096 44.7725L309.984 44.6654V44.5583L310.007 44.5062L310.143 44.5351L310.321 44.7985L310.39 45.3049L310.545 45.357L310.635 45.5741H310.925L311.037 45.493L311.285 45.4641L311.219 45.276L311.308 45.2528L311.662 45.493L311.731 45.9156L312.18 45.7853L312.197 45.7043L312.131 45.5972L311.906 45.5741L311.863 45.3078L311.682 45.3368L311.552 45.2557L311.906 45.1487L312.62 44.6712L312.778 44.6422L312.867 44.4599L313.002 44.431V44.3239L313.158 44.2429V44.1126L313.27 44.0056L313.405 43.7133L313.719 43.4181L314.191 42.7293L314.993 40.8367L315.129 40.7846L315.083 40.5965L315.284 39.9309L315.373 39.8788L315.35 39.7717L315.531 39.2652L315.644 39.1842L315.598 39.08L315.822 38.3045L315.799 38.1974L316 37.1613L316.023 35.9893L315.799 35.5292L316.36 35.4481L316.682 36.4002L316.444 38.1511L316.593 38.1887L316.662 38.7762L316.841 39.2537L317.154 39.5952L317.58 39.8354L317.758 40.0785L317.735 40.501L317.471 41.537V41.8843L318.184 42.2605L319.01 42.9782L320.509 43.4297L321.021 43.8059L321.09 44.1763L320.777 45.4004L320.794 45.9879L321.378 47.4233L321.804 48.0889L321.959 48.5404L321.982 48.9629L321.827 49.4693L321.781 50.0279L320.595 51.9205L320.552 52.1028L320.595 52.5022L320.955 53.4601L320.909 53.6482L320.731 53.8884L319.971 54.447L320.152 54.9245V55.1357L320.083 55.5061L319.948 55.8013L319.436 56.383L319.145 56.4901L318.99 56.4091L318.584 55.7203L318.36 55.5032L318.158 55.5322L317.957 55.7434L317.845 56.0618L317.802 57.0197L317.931 57.338L318.314 57.6303L318.578 58.0065L318.601 58.5882L318.466 58.8805L318.248 59.0975L316.838 59.8905L316.567 60.2667L315.989 61.6471L315.742 62.0465L315.5 62.2577H315.14L314.245 61.8063L313.756 61.6761H313.356L312.907 61.8584L312.683 62.0986L312.369 62.6571L312.28 63.2156L312.326 63.615L312.591 63.9854L313.799 64.3038L313.978 64.5671L313.912 64.9144L313.417 65.0215L313.04 64.9665L312.415 64.7031H311.814L311.501 64.8073L311.319 65.0736L311.385 65.444L311.613 65.6553L311.768 65.7102L312.082 66.0517V66.8505L312.217 67.354L312.441 67.5711L312.818 67.5421L312.977 67.6231L313.178 68.0746L313.621 68.2627L313.822 68.5029L313.779 69.1367L313.532 69.9586L313.69 70.465L314.179 70.6242L314.427 70.8123L314.668 71.4461L315.028 71.4171L315.163 71.3129L315.477 71.4432L315.678 71.9207L315.969 72.2622L316.305 72.3692H317.557L318.878 72.7918H319.102L319.591 72.6094L319.928 72.3171L320.46 71.3361L320.978 71.1769L321.156 70.9107L321.292 70.193L321.533 69.9817L322.405 69.5592L322.989 68.6013L323.455 68.419L323.746 68.5492L323.97 68.7605L324.577 69.9007L324.842 70.0888L325.78 70.4592L325.981 70.6705L326.407 71.394L325.38 72.5631L325.101 73.1448L324.134 74.0825L322.552 75.2429L320.546 76.2703L317.312 77.5002L316.7 77.9662L315.954 79.3755L315.601 80.7038L315.224 83.1492L314.524 85.1027L314.36 86.2892L313.992 86.266L311.751 86.9808H311.173L310.813 86.8998L310.252 86.1589L309.697 85.8406L309.403 85.2589L309.003 84.8075L308.738 84.6194L308.402 84.5152H306.48L305.251 84.2229L304.023 84.1419L303.237 84.246L302.276 84.6165L301.698 84.6454L301.338 84.5644L300.423 84.165L299.687 84.0348L298.645 84.0782H298.628Z" fill="#CAAE7C" stroke="#E6F5F1" stroke-width="0.5"/>
    <path d="M282.919 134.966L283.655 133.111L283.744 132.711L283.992 132.185V132.08L284.081 131.973L284.193 131.394L284.328 131.131L284.346 130.813L284.438 130.79L284.455 130.683L284.524 130.659V130.471L284.567 130.39H284.636V130.26H284.68L284.861 129.945L284.973 129.893L284.99 129.733L285.663 128.735L286.242 127.308L286.803 125.835L287.787 122.417L288.446 122.524L288.823 122.817L289.361 122.921L290.794 122.898L291.484 123.291L292.045 123.372L293.297 123.291L293.97 123.103L294.525 122.577L295.598 121.257L296.136 120.941H296.536L296.985 121.124L297.388 121.81L297.702 121.94L298.15 121.758L298.24 121.598L298.487 121.442L299.022 121.306L299.802 121.387L300.116 121.072L300.139 120.649L300.026 120.334L299.69 119.986L298.798 119.593L298.372 117.006L298.26 116.69L297.946 116.349L297.161 115.819L296.896 115.449L296.83 115.084L296.896 114.555L297.008 114.239L297.031 113.417L297.143 112.679L297.834 111.834L298.372 110.859L298.619 110.248L298.637 109.432L298.412 108.798L298.571 108.295L298.617 107.05L298.481 106.735L297.785 106.365L297.543 105.942L297.118 105.731L296.516 105.201L295.886 104.961L294.168 104.75L293.576 104.732L293.711 104.371V104.24L293.642 104.159L293.665 104.023L293.912 103.448L294.025 103.34L294.002 103.129L294.203 102.759L294.226 102.443L294.468 102.073L294.514 101.702L294.626 101.439L294.58 101.17L294.761 100.988V100.565L294.916 99.8764L295.052 99.6651L295.276 99.0545L295.253 98.739L295.342 98.6088L295.455 98.2384L295.432 98.1574L295.685 97.4946L295.702 97.1011H295.633V97.02L295.791 96.7538L295.837 96.149L296.079 95.6714L296.125 95.4081L296.326 94.9566L296.303 94.6383L296.392 94.6933L296.462 94.6643L296.416 94.2129L296.505 93.7383L296.594 93.6573L296.577 93.4692L296.908 91.9614V91.8543L296.795 91.7733L296.778 91.6431L297.069 91.4839L297.092 91.4029L297.247 90.5057L297.336 90.2655V89.9472L297.471 89.6838L297.848 87.933V87.6176L297.961 87.0359H297.831V86.9809L298.073 86.7465L298.142 86.5873L298.185 86.2169L298.142 85.8986L298.271 85.369L298.116 85.2648L298.228 85.0246L298.317 84.9696L298.496 84.495L298.565 84.466L298.631 84.0725L299.672 84.0291L300.409 84.1593L301.324 84.5587L301.684 84.6397L302.262 84.6107L303.223 84.2403L304.008 84.1361L305.237 84.2172L306.465 84.5095H308.387L308.724 84.6136L308.989 84.8017L309.389 85.2532L309.682 85.8349L310.237 86.1532L310.799 86.8941L311.158 86.9751H311.736L313.978 86.2603L314.346 86.2834L314.179 87.5134L313.618 88.0632L311.526 89.0067L310.988 89.6867L310.134 91.3016L310.045 93.8685L310.422 96.5946L310.157 97.2979L309.475 97.7869L308.37 99.396L306.92 102.707L306.779 103.818L306.816 104.921L307.913 106.573L308.347 107.487L308.957 110.202L309.055 111.423L308.799 112.419L308.146 113.663L308.054 114.419L308.307 115.052L309.147 115.952L310.071 117.723L310.335 118.817L310.148 120.221L309.504 121.633L309.524 122.273L309.679 122.785L309.325 123.077L309.676 124.015L308.574 126.379L308.77 128.529L310.002 130.199L311.84 131.672L312.228 133.195L311.518 135.411L307.498 136.135L307.429 136.242L305.361 136.152L304.115 135.996L303.393 136.077L302.8 136.543L302.078 138.635L301.223 139.173L298.657 139.717L297.342 140.183L295.699 141.807L295.345 142.727H295.164L294.916 142.91L294.404 143.488L293.596 144.62L293.17 145.071L292.928 145.254L292.41 145.384L292.146 145.202L291.697 144.568L291.119 142.75L290.917 142.305L290.558 141.778L290.109 141.384L288.728 140.594L288.546 140.565L288.034 141.141L287.787 141.329L287.456 141.382L286.696 141.274L286.314 141.355L286.383 141.619L287.007 141.882L287.163 142.386L287.611 142.808L287.634 143.014L287.433 143.254L287.232 143.277L286.719 143.147L286.561 143.202L286.538 143.807L286.314 144.041L285.577 144.171L285.376 144.142L284.887 143.749L284.398 143.619L283.503 143.566L283.126 143.274L283.014 142.959V142.724L283.192 142.461L283.569 142.198L284.176 141.934L284.4 141.723L284.556 141.431L284.49 141.06L284.199 140.693L283.368 140.247L283.166 139.772V139.402L283.391 138.98L283.681 138.823L283.883 138.794L284.691 139.087L285.045 139.139L285.471 139.116L285.695 138.927L285.678 137.903L285.879 137.24L285.721 136.531L285.767 136.349L286.391 135.686L286.458 135.345L286.302 135.081L286.009 134.925L285.229 135.212L284.668 135.16L284.179 134.555L283.779 134.607L283.555 134.818L283.241 134.948H282.939L282.919 134.966Z" fill="#CAAE7C" stroke="#E6F5F1" stroke-width="0.5"/>
    <path d="M287.793 122.417L287.971 121.717L288.149 121.3L288.218 120.69L288.397 120.455L288.285 120.374L288.443 119.845L288.572 119.633V119.477L288.664 119.266L288.777 119.136L288.843 118.554L289.107 118.343V118.102L289.018 118.027L289.266 117.787H289.421L289.622 117.628L289.87 117.234L290.028 116.731L290.14 116.572L290.158 116.337L290.114 116.282L290.25 116.23L290.158 116.1L290.227 116.019L290.181 115.996L290.227 115.808L290.563 115.017L290.581 114.777L290.678 114.725L290.739 114.566L290.627 114.248V113.984L290.805 113.854L290.894 113.883L291.029 113.461L291.231 113.061L291.119 112.85L291.142 112.694H291.208L291.254 112.824H291.343L291.59 112.06L291.746 111.267L291.947 111.001L292.016 110.818L291.993 110.714L292.059 110.659L292.284 109.791V109.392L292.554 108.706L292.508 108.413L292.756 108.283L292.733 108.072L292.574 107.965L292.621 107.36L292.71 107.279L292.845 107.331L292.888 107.25L293.205 106.194L293.423 105.007L293.581 104.735L294.174 104.753L295.892 104.964L296.522 105.204L297.123 105.734L297.549 105.945L297.791 106.367L298.487 106.738L298.622 107.053L298.576 108.298L298.418 108.801L298.642 109.435L298.625 110.251L298.378 110.862L297.84 111.837L297.149 112.682L297.037 113.42L297.014 114.242L296.902 114.557L296.836 115.087L296.902 115.452L297.166 115.822L297.952 116.352L298.266 116.693L298.378 117.009L298.804 119.596L299.695 119.989L300.032 120.337L300.144 120.652L300.121 121.075L299.808 121.39L299.028 121.309L298.493 121.445L298.245 121.601L298.156 121.76L297.707 121.943L297.394 121.812L296.991 121.127L296.542 120.944H296.142L295.604 121.26L294.531 122.579L293.976 123.106L293.302 123.294L292.051 123.375L291.49 123.294L290.799 122.901L289.366 122.924L288.828 122.82L288.451 122.527L287.793 122.42V122.417Z" fill="#CAAE7C" stroke="#E6F5F1" stroke-width="0.5"/>
    <path d="M347.658 173.169L347.626 177.999L347.342 179.894L346.015 183.697L342.971 189.193L342.042 191.088L341.179 192.622L340.764 194.517L341.682 196.526L345.27 201.385L345.909 202.765L346.309 204.727L346.392 206.197L345.845 208.605L345.351 210.327L342.272 215.102L341.944 217.018L342.134 218.549L342.793 220.381L342.787 222.314L341.392 223.605L338.368 225.598L336.221 230.368L336.192 232.066L336.598 233.612L336.187 235.505L334.647 236.063L333.448 237.522L332.737 239.475L332.728 243.295L331.595 245.957L329.621 249.581L329.195 251.661L328.001 252.779L325.625 257.389L325.432 258.928L323.611 267.416L323.055 269.086L321.945 270.692L321.628 271.954L324.41 277.215L324.836 278.671L324.58 279.782L322.793 281.773L322.281 283.379L322.558 285.237L321.027 288.655L323.547 299.869L317.321 308.855L315.647 315.548L315.9 322.815L313.529 327.584L313.169 329.33L313.402 330.713L313.169 332.585L311.797 338.327V341.452L312.013 343.406L312.03 345.214L310.974 346.514L309.535 347.576L308.313 349.003L307.449 350.745L306.664 352.962L306.506 352.909L306.169 352.933L305.968 352.727H305.789L305.723 352.985L305.631 353.014L305.588 353.268L305.476 353.399L305.453 353.526H305.251L305.208 353.653L305.004 353.734L304.915 353.914L304.849 354.299L304.647 354.637H304.469V354.712L304.221 354.993L303.931 355.173L303.862 355.43L303.548 355.74V356.125L303.347 356.252L303.056 356.666L302.898 356.793V357.028L302.544 357.436L302.207 357.592L300.176 355.228L299.117 353.213L298.735 351.665L298.412 348.965L299.169 346.439L299.546 343.909L299.183 342.167L297.742 339.638L297.797 335.172L289.568 311.943L289.732 310.539L287.128 303.295L280.197 283.585L278.56 277.389L272.946 273.693L272.742 270.825L274.408 266.102L270.918 261.984L271.151 256.882L268.823 247.138L261.74 232.168L257.148 218.644L250.51 196.488L254.133 193.756L257.712 190.648L258.598 189.01L258.581 186.472L258.379 183.755L259.084 181.39L261.763 177.926L269.836 170.058L272.178 169.493L272.892 168.22L272.883 166.403L271.787 164.773L268.291 161.489L270.233 158.311L270.57 158.1L270.728 157.865L270.705 157.813L270.57 157.784L270.593 157.55L270.524 157.521V157.446L270.794 157.127V157.235L270.593 157.469L270.817 157.521L270.86 157.602L270.929 157.579L272.158 155.527L272.316 154.974L272.607 154.769L273.056 154.187L273.234 153.823L273.211 153.692L273.459 153.377L273.588 153.035L273.7 152.954L273.746 153.061H273.835L275.199 150.616L275.447 150.275L276.071 149.013L276.425 148.567L276.606 148.04L277.498 146.486L278.307 144.75L278.706 144.07L279.106 143.095L279.242 142.86L279.308 142.831L279.285 142.75L279.509 142.334L279.734 141.7L280.024 141.173L280.361 140.383L280.119 140.12L279.984 139.668L280.007 139.301L280.226 138.748H280.295V138.93L280.205 138.985L280.07 139.301V139.746L280.361 140.25H280.542L280.585 140.12L280.361 139.989V139.908L280.45 139.856L280.433 139.593L280.499 139.512L280.522 139.301V139.22L280.433 139.168V139.06H280.634L280.723 139.168H281.236L281.282 139.037L281.46 138.855L281.503 138.748L281.391 138.696L281.374 138.566L281.391 137.88L281.46 137.828L281.483 137.932H281.549V137.88L281.728 137.776L282.395 136.085L282.913 134.968H283.215L283.529 134.838L283.753 134.627L284.153 134.575L284.642 135.18L285.203 135.232L285.983 134.945L286.276 135.102L286.432 135.365L286.366 135.706L285.741 136.369L285.695 136.551L285.853 137.26L285.652 137.923L285.669 138.948L285.445 139.136L285.019 139.159L284.665 139.107L283.857 138.814L283.655 138.843L283.365 139L283.14 139.422V139.793L283.342 140.267L284.173 140.713L284.464 141.08L284.53 141.451L284.375 141.743L284.15 141.954L283.543 142.218L283.166 142.481L282.988 142.744V142.979L283.1 143.294L283.477 143.587L284.372 143.639L284.861 143.769L285.35 144.163L285.551 144.191L286.288 144.061L286.512 143.827L286.535 143.222L286.694 143.167L287.206 143.297L287.407 143.274L287.608 143.034L287.585 142.828L287.137 142.406L286.981 141.902L286.357 141.639L286.288 141.376L286.671 141.295L287.43 141.402L287.761 141.35L288.008 141.161L288.521 140.586L288.702 140.615L290.083 141.405L290.532 141.798L290.891 142.325L291.093 142.771L291.671 144.588L292.12 145.222L292.385 145.404L292.902 145.274L293.144 145.091L293.57 144.64L294.378 143.508L294.891 142.93L295.138 142.747H295.446L295.895 143.193L296.407 143.957L296.744 144.718L297.103 145.902L297.282 146.142L297.552 146.298L298.266 146.142L298.665 146.194L298.956 146.298L299.356 146.802V147.143L298.93 148.035L298.976 148.376L299.336 149.348L299.379 149.742L299.336 150.347L299.111 150.793L299.042 151.163L299.155 152.581L299.088 153.345L299.29 154.002V154.653L299.155 155.391L299.356 155.866L300.587 156.575L301.75 157.365L302.843 157.97L303.203 158.285L303.652 158.913L304.903 159.228L305.168 159.359L306.917 160.725L305.671 162.594L304.961 166.148L305.312 169.997L305.013 171.641L303.401 174.714L301.617 177.029L300.055 180.189L300.274 182.068L301.174 183.538L302.466 184.611L304.463 185.15L308.117 184.666L311.486 183.821L314.778 184.099L319.416 184.4L321.113 183.512L322.23 183.769L323.97 183.468L325.478 183.338L327.408 182.97L328.588 182.256L330.936 179.839L332.938 177.573L335.542 176.41L338.215 174.448L341.058 171.921L342.327 171.47L347.641 171.551L347.632 173.183L347.658 173.169Z" fill="#CAAE7C" stroke="#E6F5F1" stroke-width="0.5"/>
    <path d="M327.026 147.945L326.914 148.124L322.857 148.229L319.43 149.641L315.226 153.823L311.454 155.643L310.119 156.818L307.665 159.483L306.932 160.713L305.182 159.347L304.918 159.217L303.666 158.902L303.217 158.274L302.857 157.958L301.764 157.353L300.602 156.563L299.37 155.854L299.169 155.38L299.304 154.642V153.99L299.103 153.334L299.169 152.57L299.057 151.151L299.126 150.781L299.35 150.335L299.393 149.731L299.35 149.337L298.991 148.365L298.945 148.023L299.37 147.132V146.79L298.97 146.287L298.68 146.183L298.28 146.13L297.566 146.287L297.296 146.13L297.118 145.89L296.758 144.707L296.421 143.946L295.909 143.182L295.46 142.736H295.334L295.688 141.816L297.33 140.192L298.645 139.726L301.212 139.182L302.066 138.644L302.788 136.551L303.381 136.086L304.103 136.005L305.349 136.161L307.418 136.251L306.5 137.616L307.173 140.157L308.727 140.829L310.948 141.147L312.997 140.409L314.51 138.757L316.041 137.845L317.813 139.492L319.427 140.27L322.903 141.68L326.632 141.662L328.096 143.202L327.857 146.628L327.017 147.948L327.026 147.945Z" fill="#CAAE7C" stroke="#E6F5F1" stroke-width="0.5"/>
    <path d="M272.9 166.4L272.909 168.217L272.195 169.493L269.868 170.052L262.425 177.298L261.78 177.923L259.096 181.393L258.779 182.455L258.391 183.761L258.592 186.478L258.609 189.016L257.723 190.654L254.751 193.235L254.138 193.765L250.516 196.497L247.388 186.053L247.567 185.917L249.955 183.564L252.703 180.603L253.574 179.819L254.311 179.139L255.81 177.567L256.995 176.257L258.894 173.953L259.366 173.296L259.99 172.564L261.754 170.596L265.417 165.841L267.434 162.912L268.303 161.503L271.801 164.77L272.895 166.4H272.9ZM355.613 102.409L355.389 101.653L355.308 100.128L354.995 98.7679L355.285 96.6611L354.736 95.2865L354.756 94.6093L355.147 93.5009L354.517 91.8021L354.578 91.0381L354.834 90.3725L355.061 88.9458L354.865 88.3873L354.273 87.6464L354.428 85.939L352.561 85.3978L350.19 84.2865L349.177 83.9769L347.347 83.8959L346.145 84.2489L345.126 84.084L344.594 83.6094L344.617 83.1261L344.044 82.3852L343.578 81.0048L343.676 79.0977L343.423 77.0516L342.117 74.8262L340.813 73.8509L340.131 73.6831L338.583 73.6599L334.65 74.3863L333.712 74.3805L333.074 74.2127L331.808 73.5847L330.57 72.6731L329.138 71.1769L328.021 70.5663L327.242 70.6878L326.816 70.9049L325.337 72.5863L325.058 73.168L324.097 74.1056L322.511 75.2661L320.509 76.2934L317.275 77.5234L316.662 77.9893L316.182 78.8951L315.917 79.4015L315.563 80.7299L315.189 83.1753L314.49 85.1287L314.159 87.5451L313.595 88.095L311.503 89.0384L310.965 89.7185L310.111 91.3333L310.022 93.9003L310.399 96.6264L310.134 97.3354L309.967 97.4569L309.458 97.8245L308.353 99.4335L306.897 102.744L306.762 103.855L306.799 104.958L307.895 106.611L308.33 107.525L308.943 110.24L309.041 111.461L308.784 112.456L308.131 113.701L308.085 114.08L308.039 114.456L308.292 115.084L309.133 115.984L309.245 116.195L310.056 117.752L310.321 118.846L310.134 120.244L309.487 121.656L309.507 122.296L309.662 122.808L309.308 123.1L309.662 124.038L308.56 126.408L308.756 128.558L309.987 130.228L311.826 131.701L312.214 133.223L311.501 135.44L307.487 136.164L306.494 137.642L307.168 140.18L308.721 140.852L310.942 141.176L312.991 140.435L314.504 138.783L315.601 138.132L316.038 137.874L317.807 139.521L319.427 140.299L322.9 141.708L326.634 141.691L328.099 143.231L327.857 146.657L327.017 147.977L326.905 148.15L322.851 148.257L319.421 149.667L315.946 153.125L315.218 153.849L311.446 155.669L310.111 156.844L307.657 159.509L306.923 160.739L305.677 162.609L304.966 166.157L305.317 170.006L305.018 171.649L303.407 174.723L301.623 177.038L300.061 180.198L300.28 182.076L301.186 183.546L302.475 184.62L304.472 185.155L308.12 184.672L311.495 183.827L314.781 184.105L319.419 184.406L321.116 183.517L322.232 183.775L323.973 183.474L325.475 183.347L327.411 182.982L328.591 182.267L330.939 179.851L332.941 177.585L335.545 176.421L338.215 174.459L338.995 173.771L341.064 171.936L342.332 171.484L347.649 171.56L347.704 167.644L347.868 163.425L349.566 157.562L351.312 152.037L352.054 149.684L352.146 149.516L354.091 146.006L353.099 140.473L353.735 138.676L352.9 137.327L353.686 135.77L352.285 134.873L351.499 130.879L352.949 129.47L353.458 126.081L352.115 123.106L352.866 122.006L352.736 121.358L351.853 120.334L351.675 116.242L351.902 115.781L352.336 114.908L352.598 113.223L353.732 111.678L354.04 110.622L354.267 108.086L354.785 105.711L355.481 104.33L355.677 103.517L355.622 102.417L355.613 102.409Z" fill="#CAAE7C" stroke="#E6F5F1" stroke-width="0.5"/>
    <path d="M272.9 166.4L272.909 168.217L272.195 169.493L269.868 170.052L262.425 177.298L261.78 177.923L259.096 181.393L258.779 182.455L258.391 183.761L258.592 186.478L258.609 189.016L257.723 190.654L254.751 193.235L254.138 193.765L250.516 196.497L247.388 186.053L247.567 185.917L249.955 183.564L252.703 180.603L253.574 179.819L254.311 179.139L255.81 177.568L256.995 176.257L258.894 173.953L259.366 173.296L259.99 172.564L261.754 170.596L265.417 165.841L267.434 162.913L268.303 161.503L271.801 164.77L272.895 166.4H272.9Z" fill="#00543E" stroke="#E6F5F1" stroke-width="0.5"/>
    <defs>
    <linearGradient id="paint0_linear_1032_4835" x1="269.5" y1="184" x2="207" y2="144" gradientUnits="userSpaceOnUse">
    <stop stop-color="#00543E"/>
    <stop offset="1" stop-color="#009971" stop-opacity="0"/>
    </linearGradient>
    </defs>
    </svg>
    