<svg width="15" height="15" viewBox="0 0 15 15" fill="none" xmlns="http://www.w3.org/2000/svg">
    <path d="M7.49967 14.1667C11.1816 14.1667 14.1663 11.1819 14.1663 7.50004C14.1663 3.81814 11.1816 0.833374 7.49967 0.833374C3.81778 0.833374 0.833008 3.81814 0.833008 7.50004C0.833008 11.1819 3.81778 14.1667 7.49967 14.1667Z" stroke="#863258"/>
    <path d="M8.83366 10.1666C8.45173 10.5878 7.99333 10.8333 7.50033 10.8333C7.00733 10.8333 6.54893 10.5878 6.16699 10.1666" stroke="#863258" stroke-linecap="round"/>
    <path d="M5.50033 7.16671C5.30937 6.95611 5.08015 6.83337 4.83366 6.83337C4.58717 6.83337 4.35795 6.95611 4.16699 7.16671" stroke="#863258" stroke-linecap="round"/>
    <path d="M10.8333 7.16671C10.6424 6.95611 10.4131 6.83337 10.1667 6.83337C9.9202 6.83337 9.69093 6.95611 9.5 7.16671" stroke="#863258" stroke-linecap="round"/>
    <path d="M7.5 0.833374C6.3954 0.833374 5.5 1.72881 5.5 2.83337C5.5 3.93794 6.3954 4.83337 7.5 4.83337C8.01227 4.83337 8.47947 4.64081 8.83333 4.32411" stroke="#863258" stroke-linecap="round"/>
    </svg>
    