<svg width="16" height="15" viewBox="0 0 16 15" fill="none" xmlns="http://www.w3.org/2000/svg">
    <path d="M8 2.83337C6.8954 2.83337 6 3.72881 6 4.83337V6.16671C6 7.27131 6.8954 8.16671 8 8.16671C9.1046 8.16671 10 7.27131 10 6.16671V4.83337C10 3.72881 9.1046 2.83337 8 2.83337Z" stroke="#863258"/>
    <path d="M10.0003 6.16663C10.0003 7.83329 9.78699 9.09996 7.51146 10.1666C5.23588 11.2333 4.66699 12.7222 4.66699 13.5" stroke="#863258"/>
    <path d="M6 4.83337H10" stroke="#863258" stroke-linecap="round"/>
    <path d="M11.8678 4.51247C11.8678 2.48056 10.136 0.833374 7.99967 0.833374C5.86337 0.833374 4.13155 2.48056 4.13155 4.51247C4.13155 5.9111 3.63962 8.47944 2.03861 10.4566C1.54037 11.0719 1.29125 11.3796 1.33873 11.6627C1.38621 11.9458 1.65303 12.1192 2.18667 12.466C5.67681 14.7336 10.3225 14.7336 13.8127 12.466C14.3463 12.1192 14.6131 11.9458 14.6606 11.6627C14.7081 11.3796 14.459 11.0719 13.9607 10.4566C12.3597 8.47944 11.8678 5.9111 11.8678 4.51247Z" stroke="#863258"/>
    </svg>
    