<svg width="36" height="32" viewBox="0 0 36 32" fill="none" xmlns="http://www.w3.org/2000/svg">
    <path d="M2.66699 13.3334L9.33366 5.33337M9.33366 5.33337L16.5526 12.5523C16.9379 12.9377 17.1307 13.1304 17.3757 13.2319C17.6207 13.3334 17.8933 13.3334 18.4382 13.3334H29.3337L24.2662 7.25239C23.4798 6.30873 23.0866 5.83689 22.5491 5.58513C22.0115 5.33337 21.3974 5.33337 20.169 5.33337H9.33366Z" stroke="#863258" stroke-width="1.5" stroke-linecap="round" stroke-linejoin="round"/>
    <path d="M14.6667 10.6667V26.6667H4V11.8096" stroke="#863258" stroke-width="1.5" stroke-linecap="round" stroke-linejoin="round"/>
    <path d="M14.667 26.6667H28.0003V12" stroke="#863258" stroke-width="1.6" stroke-linecap="round" stroke-linejoin="round"/>
    <path d="M5.33398 10V5.33337" stroke="#863258" stroke-width="1.5" stroke-linecap="round" stroke-linejoin="round"/>
    <path d="M9.34381 16H9.33203" stroke="#863258" stroke-width="1.5" stroke-linecap="round" stroke-linejoin="round"/>
    <path d="M9.33398 26.6667V21.3334" stroke="#863258" stroke-width="1.5" stroke-linecap="round" stroke-linejoin="round"/>
    <path d="M20 18.6667H22.6667" stroke="#863258" stroke-width="1.5" stroke-linecap="round" stroke-linejoin="round"/>
    <path d="M34.5607 7.33328C34.5607 3.9582 31.6953 1.22217 28.1607 1.22217C24.6261 1.22217 21.7607 3.9582 21.7607 7.33328C21.7607 10.7083 24.6261 13.4444 28.1607 13.4444C31.6953 13.4444 34.5607 10.7083 34.5607 7.33328Z" fill="#863258"/>
    <path d="M30.0799 9.16667L26.2402 5.5M26.2406 9.16667L30.0802 5.5" stroke="white" stroke-width="1.6" stroke-linecap="round" stroke-linejoin="round"/>
    </svg>
    