<svg width="22" height="30" viewBox="0 0 22 30" fill="none" xmlns="http://www.w3.org/2000/svg">
    <path d="M12.3315 8.33337H9.66985C5.84326 8.33337 3.26333 12.4255 4.77069 16.104C4.98066 16.6166 5.46243 16.9487 5.99548 16.9487H6.93278C7.24872 16.9487 7.5241 17.1736 7.60073 17.4942L8.80745 22.5423C9.05905 23.595 9.96332 24.3334 11.0007 24.3334C12.038 24.3334 12.9423 23.595 13.1939 22.5423L14.4005 17.4942C14.4772 17.1736 14.7527 16.9487 15.0685 16.9487H16.0059C16.5389 16.9487 17.0207 16.6166 17.2307 16.104C18.738 12.4255 16.158 8.33337 12.3315 8.33337Z" stroke="#863258" stroke-width="1.5"/>
    <path d="M14.3327 4.99996C14.3327 6.84091 12.8403 8.33329 10.9993 8.33329C9.15842 8.33329 7.66602 6.84091 7.66602 4.99996C7.66602 3.15901 9.15842 1.66663 10.9993 1.66663C12.8403 1.66663 14.3327 3.15901 14.3327 4.99996Z" stroke="#863258" stroke-width="1.5"/>
    <path d="M20.3327 24.3334C20.3327 26.5426 16.154 28.3334 10.9993 28.3334C5.8447 28.3334 1.66602 26.5426 1.66602 24.3334" stroke="#863258" stroke-width="1.5" stroke-linecap="round"/>
    </svg>
    