<svg width="14" height="15" viewBox="0 0 14 15" fill="none" xmlns="http://www.w3.org/2000/svg">
    <path d="M9.33432 5.53888L9.61465 4.10197C9.94458 2.41101 8.68285 0.833374 7.00065 0.833374C5.31843 0.833374 4.05674 2.41101 4.38666 4.10197L4.667 5.53888C4.88949 6.67924 5.86619 7.50004 7.00065 7.50004C8.13512 7.50004 9.11185 6.67924 9.33432 5.53888Z" stroke="#863258" stroke-linecap="round"/>
    <path d="M6.16604 7.16663C6.16604 6.89049 5.94217 6.66663 5.66604 6.66663C5.3899 6.66663 5.16604 6.89049 5.16604 7.16663H6.16604ZM8.83271 7.16663C8.83271 6.89049 8.60884 6.66663 8.33271 6.66663C8.05657 6.66663 7.83271 6.89049 7.83271 7.16663H8.83271ZM5.16604 7.16663V8.02116H6.16604V7.16663H5.16604ZM7.83271 7.16663V8.02116H8.83271V7.16663H7.83271ZM7.04017 9.66583C7.02664 9.66636 7.01304 9.66663 6.99937 9.66663V10.6666C7.02597 10.6666 7.05251 10.6661 7.07891 10.6651L7.04017 9.66583ZM6.91984 10.6651C6.94624 10.6661 6.97277 10.6666 6.99937 10.6666V9.66663C6.98571 9.66663 6.97211 9.66636 6.95857 9.66583L6.91984 10.6651ZM7.83271 8.02116C7.83271 8.36496 7.82877 8.53163 7.78351 8.68416C7.74417 8.81676 7.66017 8.97589 7.41371 9.23203L8.13437 9.92529C8.44664 9.60076 8.64191 9.30669 8.74224 8.96856C8.83664 8.65029 8.83271 8.32856 8.83271 8.02116H7.83271ZM7.07891 10.6651C7.10471 10.6641 7.19504 10.6628 7.30097 10.6259C7.39971 10.5915 7.48164 10.538 7.55091 10.4848C7.68117 10.3848 7.85897 10.2117 8.13437 9.92529L7.41371 9.23203C7.13057 9.52643 7.00297 9.64469 6.94171 9.69183C6.91511 9.71223 6.92964 9.69629 6.97197 9.68156C7.02144 9.66436 7.06637 9.66483 7.04017 9.66583L7.07891 10.6651ZM5.16604 8.02116C5.16604 8.32856 5.1621 8.65029 5.25652 8.96856C5.35683 9.30669 5.55213 9.60076 5.86437 9.92529L6.58504 9.23203C6.33857 8.97589 6.25457 8.81676 6.21524 8.68416C6.16997 8.53163 6.16604 8.36496 6.16604 8.02116H5.16604ZM6.95857 9.66583C6.93237 9.66483 6.97731 9.66436 7.02677 9.68156C7.06911 9.69629 7.08364 9.71223 7.05704 9.69183C6.99577 9.64469 6.86817 9.52643 6.58504 9.23203L5.86437 9.92529C6.13977 10.2117 6.31757 10.3848 6.44784 10.4848C6.51711 10.538 6.59904 10.5915 6.69777 10.6259C6.80371 10.6628 6.89404 10.6641 6.91984 10.6651L6.95857 9.66583Z" fill="#863258"/>
    <path d="M5.66667 8.83337C3.50425 9.45104 2.42303 9.75984 1.76405 10.5559C1.7002 10.633 1.63986 10.713 1.58321 10.7956C1.0777 11.5324 1.00927 12.4725 1 14.1667M8.33333 8.83337C10.4957 9.45104 11.5769 9.75984 12.2359 10.5559C12.2998 10.633 12.3601 10.713 12.4168 10.7956C12.9223 11.5324 12.9907 12.4725 13 14.1667" stroke="#863258" stroke-linecap="round"/>
    <path d="M7 10.1666V12.8333" stroke="#863258" stroke-linecap="round"/>
    <path d="M4.33398 3.5H9.66732" stroke="#863258" stroke-linecap="round" stroke-linejoin="round"/>
    </svg>
    