<svg width="30" height="30" viewBox="0 0 30 30" fill="none" xmlns="http://www.w3.org/2000/svg">
    <path d="M23 15H7V28.3333H23V15Z" stroke="#863258" stroke-width="1.52381" stroke-linecap="round" stroke-linejoin="round"/>
    <path d="M17.6663 28.3334V23C17.6663 21.5272 16.4725 20.3334 14.9997 20.3334C13.5269 20.3334 12.333 21.5272 12.333 23V28.3334" stroke="#863258" stroke-width="1.52381" stroke-linecap="round" stroke-linejoin="round"/>
    <path d="M23 15L26.6029 16.3511C28.0401 16.89 28.3333 17.3131 28.3333 18.848V28.3333H23V15Z" stroke="#863258" stroke-width="1.52381" stroke-linecap="round" stroke-linejoin="round"/>
    <path d="M1.66699 18.848C1.66699 17.3131 1.96017 16.89 3.39733 16.3511L7.00033 15V28.3333H1.66699V18.848Z" stroke="#863258" stroke-width="1.52381" stroke-linecap="round" stroke-linejoin="round"/>
    <path d="M20.6107 11.6667C22.0844 7.48072 19.1919 3 15 3C10.8081 3 7.91555 7.48072 9.38931 11.6667" stroke="#863258" stroke-width="1.52381" stroke-linecap="round" stroke-linejoin="round"/>
    <path d="M15 3.00008V1.66675" stroke="#863258" stroke-width="1.52381" stroke-linecap="round" stroke-linejoin="round"/>
    <path d="M9.66699 15V12.3334M20.3337 15V12.3334" stroke="#863258" stroke-width="1.52381" stroke-linecap="round" stroke-linejoin="round"/>
    <path d="M8.33301 11.6667H21.6663" stroke="#863258" stroke-width="1.52381" stroke-linecap="round" stroke-linejoin="round"/>
    </svg>
    