<svg width="26" height="26" viewBox="0 0 26 26" fill="none" xmlns="http://www.w3.org/2000/svg">
    <path
        d="M15.6033 3.45444C17.2396 1.81815 18.0577 1 19.0744 1C20.0911 1 20.9092 1.81815 22.5456 3.45444C24.1819 5.09075 25 5.90889 25 6.92556C25 7.94223 24.1819 8.76037 22.5456 10.3967M10.3967 22.5456C8.76037 24.1819 7.94223 25 6.92556 25C5.90889 25 5.09075 24.1819 3.45445 22.5456C1.81815 20.9092 1 20.0911 1 19.0744C1 18.0577 1.81815 17.2396 3.45445 15.6033"
        stroke="#863258" stroke-width="1.5" stroke-linecap="round" stroke-linejoin="round" />
    <path
        d="M6.05777 13L3.45445 10.3967C1.81815 8.76037 1 7.94223 1 6.92556C1 5.90889 1.81815 5.09075 3.45445 3.45444C5.09075 1.81815 5.90889 1 6.92556 1C7.94223 1 8.76037 1.81815 10.3967 3.45444L13 6.05777M6.05777 13L13 6.05777M6.05777 13L13 19.9423M13 6.05777L19.9423 13M13 19.9423L15.6033 22.5456C17.2396 24.1819 18.0577 25 19.0744 25C20.0911 25 20.9092 24.1819 22.5456 22.5456C24.1819 20.9092 25 20.0911 25 19.0744C25 18.0577 24.1819 17.2396 22.5456 15.6033L19.9423 13M13 19.9423L19.9423 13"
        stroke="#863258" stroke-width="1.5" stroke-linecap="round" stroke-linejoin="round" />
</svg>
    