<svg width="39" height="38" viewBox="0 0 39 38" fill="none" xmlns="http://www.w3.org/2000/svg">
    <path d="M6.625 23.375C7.19953 23.375 7.76844 23.2618 8.29924 23.042C8.83004 22.8221 9.31234 22.4998 9.71859 22.0936C10.1248 21.6873 10.4471 21.205 10.667 20.6742C10.8868 20.1434 11 19.5745 11 19C11 20.1603 11.4609 21.2731 12.2814 22.0936C13.1019 22.9141 14.2147 23.375 15.375 23.375C16.5353 23.375 17.6481 22.9141 18.4686 22.0936C19.2891 21.2731 19.75 20.1603 19.75 19C19.75 20.1603 20.2109 21.2731 21.0314 22.0936C21.8519 22.9141 22.9647 23.375 24.125 23.375C25.2853 23.375 26.3981 22.9141 27.2186 22.0936C28.0391 21.2731 28.5 20.1603 28.5 19C28.5 20.1603 28.9609 21.2731 29.7814 22.0936C30.6019 22.9141 31.7147 23.375 32.875 23.375C34.0353 23.375 35.1481 22.9141 35.9686 22.0936C36.7891 21.2731 37.25 20.1603 37.25 19C37.25 28.6652 29.4152 36.5 19.75 36.5C10.0848 36.5 2.25 28.6652 2.25 19C2.25 20.1603 2.71094 21.2731 3.53141 22.0936C4.35188 22.9141 5.46468 23.375 6.625 23.375ZM23.25 9.375C23.25 10.3033 22.8813 11.1935 22.2249 11.8499C21.5685 12.5063 20.6783 12.875 19.75 12.875C18.8217 12.875 17.9315 12.5063 17.2751 11.8499C16.6187 11.1935 16.25 10.3033 16.25 9.375C16.25 7.44125 19.75 1.5 19.75 1.5C19.75 1.5 23.25 7.44125 23.25 9.375Z" stroke="#A72323" stroke-width="2.66667" stroke-linecap="round" stroke-linejoin="round"/>
    </svg>
    