<svg width="32" height="32" viewBox="0 0 32 32" fill="none" xmlns="http://www.w3.org/2000/svg">
    <path d="M22.667 21.1282C22.667 19.7688 23.8609 18.6666 25.3337 18.6666C26.8065 18.6666 28.0003 19.7688 28.0003 21.1282C28.0003 21.6182 27.8453 22.0748 27.5778 22.4584C26.7809 23.6016 25.3337 24.6918 25.3337 26.0513V26.6666M25.3206 29.3333H25.3326" stroke="#863258" stroke-width="1.5" stroke-linecap="round" stroke-linejoin="round"/>
    <path d="M21.3337 29.3333H8.78815C6.72765 29.3333 5.08874 28.3306 3.61721 26.9287C0.604814 24.0587 5.55073 21.7653 7.43709 20.6421C10.8377 18.6171 14.9413 18.149 18.667 19.2374" stroke="#863258" stroke-width="1.5" stroke-linecap="round" stroke-linejoin="round"/>
    <path d="M22 8.66663C22 11.9803 19.3137 14.6666 16 14.6666C12.6863 14.6666 10 11.9803 10 8.66663C10 5.35292 12.6863 2.66663 16 2.66663C19.3137 2.66663 22 5.35292 22 8.66663Z" stroke="#863258" stroke-width="1.5"/>
    </svg>
    