<svg width="37" height="30" viewBox="0 0 37 30" fill="none" xmlns="http://www.w3.org/2000/svg">
    <path d="M5 28.25C4.07174 28.25 3.1815 27.8813 2.52513 27.2249C1.86875 26.5685 1.5 25.6783 1.5 24.75C1.5 23.8217 1.86875 22.9315 2.52513 22.2751C3.1815 21.6187 4.07174 21.25 5 21.25M5 28.25C5.92826 28.25 6.8185 27.8813 7.47487 27.2249C8.13125 26.5685 8.5 25.6783 8.5 24.75C8.5 23.8217 8.13125 22.9315 7.47487 22.2751C6.8185 21.6187 5.92826 21.25 5 21.25M5 28.25H20.75M5 21.25H20.75M20.75 28.25C19.8217 28.25 18.9315 27.8813 18.2751 27.2249C17.6187 26.5685 17.25 25.6783 17.25 24.75C17.25 23.8217 17.6187 22.9315 18.2751 22.2751C18.9315 21.6187 19.8217 21.25 20.75 21.25M20.75 28.25C21.6783 28.25 22.5685 27.8813 23.2249 27.2249C23.8813 26.5685 24.25 25.6783 24.25 24.75C24.25 23.8217 23.8813 22.9315 23.2249 22.2751C22.5685 21.6187 21.6783 21.25 20.75 21.25M27.75 17.75C27.75 18.6783 28.1187 19.5685 28.7751 20.2249C29.4315 20.8813 30.3217 21.25 31.25 21.25C32.1783 21.25 33.0685 20.8813 33.7249 20.2249C34.3813 19.5685 34.75 18.6783 34.75 17.75C34.75 16.8217 34.3813 15.9315 33.7249 15.2751C33.0685 14.6187 32.1783 14.25 31.25 14.25C30.3217 14.25 29.4315 14.6187 28.7751 15.2751C28.1187 15.9315 27.75 16.8217 27.75 17.75Z" stroke="#A72323" stroke-width="2.66667" stroke-linecap="round" stroke-linejoin="round"/>
    <path d="M12 16V7.25H15.5C16.8924 7.25 18.2277 7.80312 19.2123 8.78769C20.1969 9.77226 20.75 11.1076 20.75 12.5V21.25" stroke="#A72323" stroke-width="2.66667" stroke-linecap="round" stroke-linejoin="round"/>
    <path d="M6.75 21.25V17.75C6.75 17.2859 6.93437 16.8408 7.26256 16.5126C7.59075 16.1844 8.03587 16 8.5 16H20.75M31.25 14.25V2L20.75 14.25" stroke="#A72323" stroke-width="2.66667" stroke-linecap="round" stroke-linejoin="round"/>
    </svg>
    