<svg width="39" height="28" viewBox="0 0 39 28" fill="none" xmlns="http://www.w3.org/2000/svg">
    <path d="M3.75 22.75H10.925C10.4292 22.2542 9.97008 21.7146 9.54775 21.1313C9.12542 20.5479 8.75325 19.9208 8.43125 19.25H3.75V22.75ZM19.5 22.75C21.9208 22.75 23.9847 21.8966 25.6915 20.1897C27.3983 18.4829 28.2512 16.4197 28.25 14C28.25 11.5792 27.3966 9.51592 25.6897 7.81025C23.9829 6.10458 21.9197 5.25117 19.5 5.25C17.0792 5.25 15.0159 6.10342 13.3103 7.81025C11.6046 9.51708 10.7512 11.5803 10.75 14C10.75 16.4208 11.6034 18.4847 13.3103 20.1915C15.0171 21.8983 17.0803 22.7512 19.5 22.75ZM30.5688 8.75H35.25V5.25H28.075C28.5708 5.74583 29.0305 6.28542 29.454 6.86875C29.8775 7.45208 30.2491 8.07917 30.5688 8.75ZM0.25 28V14H3.75V15.75H7.38125C7.32292 15.4583 7.28675 15.1737 7.27275 14.896C7.25875 14.6183 7.25117 14.3197 7.25 14C7.25 10.5875 8.43883 7.693 10.8165 5.3165C13.1942 2.94 16.0887 1.75117 19.5 1.75H35.25V0H38.75V14H35.25V12.25H31.6187C31.6771 12.5417 31.7138 12.8263 31.729 13.104C31.7442 13.3817 31.7512 13.6803 31.75 14C31.75 17.4125 30.5617 20.3076 28.1852 22.6852C25.8087 25.0629 22.9137 26.2512 19.5 26.25H3.75V28H0.25ZM19.5 19.25C18.5375 19.25 17.7138 18.9076 17.029 18.2227C16.3442 17.5379 16.0012 16.7137 16 15.75C16 15.0792 16.1388 14.4159 16.4165 13.7603C16.6942 13.1046 17.2262 12.1637 18.0125 10.9375L19.5 8.75L20.9875 10.9375C21.775 12.1625 22.3076 13.1034 22.5852 13.7603C22.8629 14.4171 23.0012 15.0803 23 15.75C23 16.7125 22.6576 17.5368 21.9727 18.2227C21.2879 18.9088 20.4637 19.2512 19.5 19.25Z" fill="#A72323"/>
    </svg>
    